<?xml version="1.0" encoding="UTF-8" standalone="no"?>
<!-- Created with Inkscape (http://www.inkscape.org/) -->

<svg
   xmlns:dc="http://purl.org/dc/elements/1.1/"
   xmlns:cc="http://creativecommons.org/ns#"
   xmlns:rdf="http://www.w3.org/1999/02/22-rdf-syntax-ns#"
   xmlns:svg="http://www.w3.org/2000/svg"
   xmlns="http://www.w3.org/2000/svg"
   xmlns:sodipodi="http://sodipodi.sourceforge.net/DTD/sodipodi-0.dtd"
   xmlns:inkscape="http://www.inkscape.org/namespaces/inkscape"
   width="744.09448819"
   height="1052.3622047"
   id="svg3082"
   version="1.1"
   inkscape:version="0.48.2 r9819"
   sodipodi:docname="drawing.png">
  <defs
     id="defs3084" />
  <sodipodi:namedview
     id="base"
     pagecolor="#ffffff"
     bordercolor="#666666"
     borderopacity="1.0"
     inkscape:pageopacity="0.0"
     inkscape:pageshadow="2"
     inkscape:zoom="1.4142136"
     inkscape:cx="444.83437"
     inkscape:cy="576.47762"
     inkscape:document-units="px"
     inkscape:current-layer="layer3"
     showgrid="false"
     inkscape:window-width="1280"
     inkscape:window-height="776"
     inkscape:window-x="0"
     inkscape:window-y="24"
     inkscape:window-maximized="1" />
  <metadata
     id="metadata3087">
    <rdf:RDF>
      <cc:Work
         rdf:about="">
        <dc:format>image/svg+xml</dc:format>
        <dc:type
           rdf:resource="http://purl.org/dc/dcmitype/StillImage" />
        <dc:title></dc:title>
      </cc:Work>
    </rdf:RDF>
  </metadata>
  <g
     inkscape:groupmode="layer"
     id="layer6"
     inkscape:label="Layer#2" />
  <g
     inkscape:groupmode="layer"
     id="layer3"
     inkscape:label="Layer#1">
    <g
       id="g3919"
       transform="matrix(-0.93969262,-0.34202014,-0.34202014,0.93969262,902.01856,159.05021)">
      <path
         inkscape:connector-curvature="0"
         d="m 462.76351,484.52294 c -3.69265,-3.19847 -7.75439,-5.93747 -11.76904,-8.70953 -4.39005,-3.02517 -8.69753,-6.17551 -13.16511,-9.08683 -3.33742,-1.97931 -6.4236,-4.34456 -9.65373,-6.4853 -2.25672,-1.39821 -4.52258,-2.7855 -6.82168,-4.11322 -1.75204,-1.2196 -3.77258,-1.89442 -5.74825,-2.64714 -2.2813,-0.76969 -4.47657,-1.755 -6.78321,-2.4528 -2.70464,-0.74782 -5.44278,-1.35661 -8.10681,-2.24302 -3.05313,-1.07928 -6.22098,-1.71534 -9.34992,-2.50906 -2.69245,-0.67959 -5.33676,-1.53374 -8.02587,-2.22773 -3.01052,-0.71024 -6.03379,-1.36175 -8.99923,-2.24589 -3.45316,-1.06814 -6.92628,-2.066 -10.39363,-3.08699 -3.37348,-0.90398 -6.76492,-1.72802 -10.10215,-2.76325 -3.83071,-1.21684 -7.6635,-2.4419 -11.45364,-3.78288 -3.80191,-1.18313 -7.53102,-2.58186 -11.31297,-3.82424 -3.27859,-1.13151 -6.63338,-2.0433 -9.97467,-2.97581 -3.50087,-0.78662 -6.97086,-1.69882 -10.46536,-2.51133 -2.39612,-0.55747 -4.85398,-0.65314 -7.30277,-0.70212 -2.26895,0.0557 -4.44003,0.62114 -6.63022,1.1426 -2.3004,0.59478 -4.62649,1.12007 -6.94637,1.67599 -2.77759,0.55751 -5.53071,1.23733 -8.33232,1.66512 -2.76874,0.42591 -5.50909,0.92782 -8.30178,1.20757 -2.11783,0.5352 -4.26089,0.92191 -6.43117,1.16088 -2.32714,0.10625 -4.60385,0.56681 -6.87616,1.03812 -2.64727,0.48891 -5.29914,0.93649 -7.94684,1.42555 -2.48924,0.60292 -5.00568,1.07415 -7.50384,1.63601 -2.17501,0.75667 -4.51224,1.18676 -6.60259,2.16975 -1.95181,0.81797 -3.92355,1.57381 -5.94007,2.21768 -2.41159,0.99893 -4.84573,1.9451 -7.22352,3.02299 -2.50337,1.10059 -5.00316,2.18523 -7.45758,3.39166 -2.04555,1.15731 -4.06446,2.35899 -6.15049,3.44124 -1.61684,0.99637 -3.14057,2.12577 -4.64294,3.2882 -1.5312,1.27654 -3.28924,2.29027 -4.82646,3.55181 -2.01451,1.32166 -3.78406,2.95951 -5.64841,4.47404 -1.58907,1.32506 -3.08421,2.7474 -4.66418,4.08211 -1.37403,1.35868 -2.67562,2.78128 -3.99448,4.19241 -1.69152,1.50533 -2.99412,3.3515 -4.515,5.01235 -1.00575,1.47669 -2.42968,2.62474 -3.41224,4.11411 -1.315,1.66255 -2.72629,3.24044 -4.09424,4.8588 -1.34327,1.34613 -2.55151,2.78886 -3.75769,4.2518 -1.34179,1.56043 -2.89166,2.94644 -4.20774,4.52589 -1.41344,1.55736 -2.80584,3.13619 -4.23025,4.68541 -1.47452,1.54248 -2.76397,3.24629 -4.12536,4.88784 -1.48466,1.64194 -2.87505,3.35843 -4.25004,5.09205 -1.71817,1.93767 -3.01969,4.1808 -4.44327,6.32964 -1.21473,1.60717 -1.92958,3.43774 -2.71683,5.27213 -0.54292,1.26847 -0.28111,1.96282 -0.18232,3.32051 0.42791,2.17905 0.92465,4.33873 1.42714,6.4999 0.63886,3.00681 1.46995,5.96425 2.15483,8.95953 0.80583,2.38072 1.25577,4.84383 1.75318,7.29873 0.5568,2.77113 1.41421,5.46026 2.17075,8.17861 0.68763,2.07029 1.52504,4.0793 2.22383,6.14675 0.85626,2.01916 2.10019,3.87459 3.52932,5.53271 1.58486,1.68565 3.41421,3.12299 5.16786,4.62986 2.42158,2.21771 4.97658,4.25728 7.70941,6.07387 2.60809,1.81383 5.30524,3.4894 7.84046,5.40599 2.39149,1.40636 4.66382,2.99603 7.00921,4.47589 3.30291,2.29991 6.67355,4.47869 10.16125,6.48841 4.36178,2.43267 8.84274,4.6406 13.38629,6.71147 5.4773,2.24855 10.89752,4.63024 16.33141,6.98187 4.69085,1.79017 9.38552,3.56935 14.03555,5.46377 4.06232,1.59127 8.07737,3.30514 12.13254,4.91309 3.91482,1.50376 7.87077,2.91841 11.8983,4.09039 4.36525,1.29932 8.79693,2.37038 13.24685,3.33661 4.05923,1.0334 8.19501,1.63584 12.36535,1.95515 2.67299,0.17413 5.35201,0.11599 8.02834,0.13596 2.52379,0.0321 5.04075,-0.38701 7.51114,-0.88055 2.85655,-0.47164 5.67092,-1.13741 8.53106,-1.59165 2.63982,-0.24137 5.23755,-0.76829 7.8662,-1.09121 2.44835,-0.40327 4.95542,-0.22905 7.40719,-0.54001 2.57873,-0.27371 5.09012,-0.90587 7.64742,-1.32341 3.01586,-0.2743 6.00441,-0.75321 9.01147,-1.1185 3.16032,-0.36684 6.29655,-0.84093 9.46775,-1.11576 2.59828,-0.15576 5.14257,-0.73889 7.72233,-1.06784 2.79751,-0.19122 5.56282,-0.6848 8.35352,-0.97688 2.45755,-0.40105 4.91667,-0.78313 7.35471,-1.29027 2.53328,-0.55521 5.0698,-1.0981 7.60226,-1.65813 2.60725,-0.5595 5.17153,-1.26872 7.79265,-1.76817 2.48146,-0.59491 4.92683,-1.36011 7.35679,-2.14603 2.32562,-0.91299 4.70552,-1.68608 7.03892,-2.57896 2.39823,-0.89826 4.68268,-2.05786 7.04858,-3.02981 2.25184,-0.92395 4.47239,-1.91204 6.6594,-2.97983 2.18231,-1.10593 4.4444,-2.14023 6.52706,-3.42676 1.2733,-0.7176 2.54031,-1.62218 3.51222,-2.73229 1.42364,-1.31205 2.75813,-2.71374 4.20513,-4.00598 1.86014,-1.56151 3.78463,-2.99033 5.92253,-4.14908 1.79457,-1.13957 3.62442,-2.22789 5.47958,-3.26878 2.63969,-1.23739 5.37259,-2.26481 8.06704,-3.37735 2.58926,-1.15116 5.32155,-1.89356 8.02407,-2.71748 0.12907,-0.0719 0.25815,-0.14373 0.38722,-0.2156 7.63484,-3.16979 12.11761,7.6275 4.48277,10.79729 l 0,0 c -0.51582,0.19588 -1.03164,0.39176 -1.54746,0.58764 -2.3588,0.68266 -4.76234,1.24378 -6.99629,2.29121 -2.26419,0.89617 -4.50657,1.84085 -6.73115,2.83073 -1.86943,1.03132 -3.68075,2.17233 -5.50587,3.27985 -1.33039,0.76866 -2.54289,1.68065 -3.74812,2.63129 -1.31259,1.19819 -2.507,2.51214 -3.82882,3.69849 -1.83349,1.71877 -3.79547,3.37627 -6.03004,4.54743 -2.31515,1.22846 -4.64161,2.44154 -6.99642,3.59335 -2.43249,1.25764 -4.95889,2.29671 -7.48081,3.3591 -2.48497,1.01373 -4.88735,2.23026 -7.39448,3.19603 -2.53236,0.92312 -5.0911,1.77304 -7.60915,2.73889 -2.89891,0.88774 -5.79866,1.79729 -8.74426,2.51157 -2.4669,0.42853 -4.85649,1.1784 -7.31457,1.65241 -2.59976,0.60362 -5.22631,1.10222 -7.82595,1.70598 -2.84448,0.58606 -5.70917,1.0247 -8.57982,1.46692 -2.71689,0.24281 -5.39663,0.73259 -8.10773,1.02054 -2.70999,0.2901 -5.39022,0.84717 -8.11825,0.95202 -3.05316,0.25499 -6.06296,0.80741 -9.10644,1.12964 -2.84643,0.31567 -5.66904,0.81368 -8.52125,1.08249 -2.73082,0.42388 -5.40588,1.15156 -8.15947,1.44104 -2.41498,0.26213 -4.84427,0.21018 -7.26012,0.48606 -2.52446,0.33557 -5.02283,0.84797 -7.56515,1.03786 -2.71475,0.40124 -5.3781,1.07971 -8.09523,1.4714 -3.21144,0.60738 -6.45558,1.1838 -9.73553,1.17278 -2.99916,0.009 -5.99791,-0.11608 -8.9865,-0.37132 -4.63771,-0.43636 -9.21557,-1.24083 -13.75049,-2.30692 -4.71741,-0.99918 -9.41037,-2.14462 -14.03334,-3.51917 -4.4008,-1.27492 -8.73751,-2.73748 -13.01767,-4.37419 -4.0565,-1.663 -8.06737,-3.43514 -12.14256,-5.05437 -4.72136,-1.95206 -9.51466,-3.72344 -14.22749,-5.69719 -5.45169,-2.42255 -10.92206,-4.79453 -16.46102,-7.01079 -4.88109,-2.19405 -9.73375,-4.47849 -14.4264,-7.05344 -3.60595,-2.06274 -7.14568,-4.23402 -10.59467,-6.55123 -2.67805,-1.64202 -5.31843,-3.33495 -7.96586,-5.02647 -2.33284,-1.80203 -4.8171,-3.39521 -7.20315,-5.12467 -3.06515,-2.08695 -5.98267,-4.36398 -8.86937,-6.69046 -2.24572,-1.89732 -4.41125,-3.91128 -6.42099,-6.05743 -2.30553,-2.74922 -4.33326,-5.76413 -5.69569,-9.09928 -0.86271,-2.3348 -1.76222,-4.65758 -2.47252,-7.04485 -0.73815,-2.92923 -1.56989,-5.83455 -2.33656,-8.75641 -0.52487,-2.40805 -0.8909,-4.84948 -1.6563,-7.20355 -0.62813,-2.93463 -1.40184,-5.84123 -2.16663,-8.742 -0.67941,-2.70614 -1.22816,-5.44043 -1.70302,-8.19036 -0.32329,-3.13405 -0.32599,-6.21112 1.08226,-9.11511 1.12035,-2.44447 2.18108,-4.92714 3.83403,-7.0744 1.66631,-2.3045 2.98967,-4.85612 4.84138,-7.02943 1.41354,-1.7868 2.92417,-3.49011 4.38589,-5.23748 1.45977,-1.80303 2.94104,-3.58452 4.50161,-5.30126 1.36465,-1.54026 2.73243,-3.07641 4.10471,-4.6051 1.32649,-1.46913 2.72265,-2.87036 4.03111,-4.35686 1.2927,-1.453 2.48779,-2.99262 3.86727,-4.36564 1.17289,-1.32785 2.2971,-2.68706 3.45199,-4.03336 1.34497,-1.80461 2.89821,-3.41095 4.29738,-5.1708 1.48009,-1.59772 2.75711,-3.37645 4.38538,-4.83712 1.54942,-1.83168 3.30889,-3.45707 4.98566,-5.17024 1.66355,-1.55165 3.39996,-3.00921 5.16246,-4.44577 1.99214,-1.54415 3.78735,-3.33869 5.86355,-4.78144 1.55532,-1.12435 3.14085,-2.20508 4.6655,-3.37276 2.00327,-1.57375 4.10539,-3.01228 6.29768,-4.31104 2.19471,-1.25423 4.44249,-2.4066 6.63833,-3.65892 2.57007,-1.21743 5.15202,-2.39707 7.78038,-3.48426 2.71254,-1.20455 5.43319,-2.39113 8.17721,-3.52311 1.81965,-0.65816 3.63339,-1.32173 5.43519,-2.02835 2.73732,-0.99696 5.53705,-1.8303 8.33443,-2.64341 2.66301,-0.59724 5.3433,-1.09683 7.99464,-1.74824 2.52275,-0.43783 5.03649,-0.9071 7.56317,-1.31737 2.66848,-0.59457 5.36804,-1.09122 8.09043,-1.35028 2.19414,-0.21341 4.33366,-0.72297 6.51338,-1.03963 2.58172,-0.25161 5.103,-0.82665 7.67417,-1.14882 2.47709,-0.38765 4.90458,-1.01443 7.3693,-1.46709 2.36214,-0.5797 4.70713,-1.23241 7.07754,-1.76564 3.14786,-0.69006 6.30055,-1.33043 9.54266,-1.34263 3.28989,0.10945 6.61725,0.14491 9.80765,1.05581 3.56912,0.95798 7.12552,1.93808 10.74664,2.69072 3.54181,1.00252 7.12805,1.87924 10.58683,3.14822 3.78558,1.34168 7.54998,2.74638 11.38773,3.93559 3.66329,1.28611 7.38033,2.4182 11.08228,3.58327 3.28076,1.03279 6.67247,1.68213 9.95026,2.73099 3.47169,1.04432 6.97269,1.98647 10.44775,3.02232 2.80036,0.85213 5.70875,1.33162 8.53918,2.07913 2.73896,0.69131 5.43745,1.50401 8.16147,2.24242 3.26365,0.93766 6.58303,1.69083 9.83227,2.68765 2.63217,0.77334 5.3004,1.40115 7.94311,2.13642 2.54849,0.75069 4.97987,1.73183 7.45358,2.67797 2.67431,0.93724 5.3481,1.91974 7.70035,3.54032 2.50637,1.51811 5.01093,3.03969 7.47977,4.61877 3.08884,2.22364 6.07271,4.60569 9.32987,6.58646 4.45897,3.04007 8.79941,6.25401 13.2671,9.28158 4.05227,2.81563 8.11255,5.62016 12.19798,8.38698 6.73002,4.80715 -0.0683,14.32483 -6.79834,9.51768 z"
         id="path3111"
         style="fill:#000000;fill-opacity:1;fill-rule:nonzero;stroke:none" />
      <path
         inkscape:connector-curvature="0"
         d="m 439.74896,450.43011 c 2.79693,-0.21555 5.47477,-1.1273 8.11037,-2.03713 3.01451,-0.93502 6.00814,-1.94172 9.03756,-2.82718 2.46413,-0.89219 4.95774,-1.68793 7.47074,-2.42953 2.85267,-0.81612 5.63104,-1.85169 8.45449,-2.76008 2.54708,-0.72812 5.04858,-1.59937 7.62878,-2.20661 2.45065,-0.43385 4.81631,-1.16419 7.22974,-1.74398 1.27841,-0.50013 2.58642,-0.93321 3.92641,-1.23691 1.53291,-0.34742 0.85309,-0.0466 1.53216,-0.3731 1.82601,-0.57802 3.69359,-1.00184 5.54308,-1.49974 2.40242,-0.77198 4.83562,-1.46053 7.23795,-2.23316 2.15036,-0.97491 4.38397,-1.75532 6.59185,-2.58903 2.49936,-1.0773 5.00419,-2.13364 7.52865,-3.15162 2.2762,-1.02366 4.59658,-1.96346 6.96435,-2.75398 0.68222,-0.35731 0.27051,-0.1543 1.24897,-0.58007 7.63621,-3.23701 12.21402,7.56222 4.57781,10.79922 l 0,0 c -1.31017,0.54094 -0.56611,0.23949 -2.23585,0.89529 -2.14603,0.65318 -4.21496,1.55745 -6.27928,2.42742 -2.58811,1.00433 -5.12038,2.13849 -7.69085,3.18604 -2.43906,0.93452 -4.83762,1.97124 -7.27671,2.90683 -2.45446,0.735 -4.92741,1.3983 -7.35128,2.23746 -1.83019,0.58407 -3.67922,1.08275 -5.52364,1.6133 -2.031,0.53533 -4.09433,0.92383 -6.0683,1.67426 -2.46775,0.59583 -4.92746,1.21446 -7.39435,1.81255 -2.23403,0.46326 -4.38225,1.25414 -6.58755,1.83012 -2.90888,0.96489 -5.83878,1.8655 -8.75574,2.80599 -2.57698,0.77962 -5.07543,1.78597 -7.65304,2.56505 -2.87156,0.74798 -5.71679,1.62367 -8.52738,2.57134 -3.22974,1.03049 -6.46891,2.07477 -9.80145,2.72216 -8.22006,1.37001 -10.15754,-10.2549 -1.93749,-11.62491 z"
         id="path3115"
         style="fill:#000000;fill-opacity:1;fill-rule:nonzero;stroke:none" />
      <path
         inkscape:connector-curvature="0"
         d="m 440.45034,599.95583 c 3.5029,1.48801 6.83098,3.32144 10.17084,5.13265 3.5796,1.85202 6.71011,4.35001 9.64055,7.09037 2.32491,2.06107 4.07703,4.67309 6.26145,6.86042 1.54305,1.43296 2.78713,3.12433 4.16368,4.70352 1.0628,1.3403 2.1138,2.69519 3.21213,4.01191 1.47855,1.54021 3.09862,2.93006 4.61972,4.42544 5.80347,5.91758 -2.56526,14.12492 -8.36872,8.20734 l 0,0 c -1.59732,-1.76808 -3.47336,-3.27966 -5.11395,-5.0089 -1.19477,-1.35706 -2.34745,-2.75607 -3.43152,-4.20093 -1.14781,-1.44191 -2.2834,-2.87686 -3.57414,-4.20169 -1.92488,-2.1351 -3.64603,-4.44984 -5.6716,-6.49278 -2.1982,-2.14203 -4.62228,-3.9058 -7.34431,-5.34235 -2.52468,-1.44503 -5.04725,-2.88788 -7.79017,-3.89383 -7.98406,-2.28116 -4.75802,-13.57233 3.22604,-11.29117 z"
         id="path3117"
         style="fill:#000000;fill-opacity:1;fill-rule:nonzero;stroke:none" />
      <path
         inkscape:connector-curvature="0"
         d="m 481.7177,627.46809 c 3.74235,0.0921 7.50218,-0.26198 11.24091,-0.49001 5.0416,-0.25816 10.0864,0.28397 15.12245,0.51844 6.09218,0.11993 12.16507,0.62536 18.24965,0.91312 5.22785,0.24985 10.46189,0.29297 15.69468,0.29331 4.33457,0.0486 8.66876,-0.0282 13.00316,-0.0481 4.45713,0.0539 8.91397,0.0577 13.37122,0.0309 3.81796,-0.0672 7.6186,0.35608 11.42142,0.62698 2.03619,0.14377 4.07737,0.17854 6.1178,0.19635 1.96177,0.0105 3.92358,0.006 5.88537,0.004 1.99802,-0.002 3.99604,-0.003 5.99405,-0.003 1.00031,-1.7e-4 2.00062,-2.1e-4 3.00093,-2.5e-4 8.27659,-4.3e-4 8.27721,11.70443 6.2e-4,11.70487 l 0,0 c -0.99952,6e-5 -1.99905,1.1e-4 -2.99857,3.7e-4 -1.99436,6.1e-4 -3.98872,0.002 -5.98308,0.005 -2.011,0.003 -4.02207,0.01 -6.03303,-0.008 -2.34179,-0.0325 -4.68483,-0.1025 -7.01541,-0.35081 -3.45312,-0.36668 -6.90525,-0.94225 -10.38814,-0.82125 -4.45531,-0.0252 -8.91018,-0.0192 -13.3653,0.0413 -4.36703,-0.014 -8.73367,-0.0801 -13.10083,-0.0783 -5.40383,-0.0846 -10.80839,-0.19436 -16.2053,-0.49519 -6.03089,-0.36645 -12.0585,-0.80086 -18.10325,-0.82672 -4.6816,-0.16314 -9.36892,-0.53824 -14.05252,-0.38384 -3.96594,0.1885 -7.90243,0.63148 -11.85683,0.95934 -8.3355,0 -8.3355,-11.78818 0,-11.78818 z"
         id="path3119"
         style="fill:#000000;fill-opacity:1;fill-rule:nonzero;stroke:none" />
      <path
         inkscape:connector-curvature="0"
         d="m 601.89409,431.07989 c -0.23522,3.32664 -0.13639,6.66362 -0.16506,9.9953 0.0143,3.1585 0.0346,6.31686 0.0728,9.47518 0.0294,2.21732 0.0416,4.4348 0.0479,6.65229 -0.0483,2.85309 -0.0779,5.70601 -0.0958,8.55946 -0.0436,3.06109 0.0518,6.12166 0.0451,9.18263 -0.032,2.65814 0.007,5.31647 0.0287,7.97455 0.0244,1.8714 0.47252,3.71466 0.70474,5.57432 0.25071,2.19978 0.29242,4.415 0.31817,6.62652 0.0376,1.79669 0.46638,3.56963 0.68718,5.35828 0.24691,2.20389 0.28748,4.42278 0.31279,6.63802 0.0372,1.79799 0.46622,3.57219 0.68715,5.36208 0.45009,1.93005 -0.0565,4.03152 0.38213,5.94456 0.41741,2.10238 0.66224,4.22829 0.81059,6.36474 0.51875,2.35297 0.69717,4.77154 0.88715,7.16962 0.1292,2.18239 0.63823,4.3184 0.91546,6.48741 0.0895,2.21194 0.32536,4.37344 0.68117,6.55537 0.39211,2.31625 0.53067,4.66142 0.6052,7.0059 0.042,2.14091 0.0669,4.28291 0.005,6.42348 -0.0749,2.98315 -0.0569,5.96754 -0.0269,8.95119 0.0274,2.26846 0.0429,4.53703 0.0507,6.80564 0.028,2.289 -0.0225,4.57725 -0.0617,6.86575 -0.0176,3.36672 -0.52198,6.70856 -0.77771,10.06344 -0.10071,3.71382 -0.60789,7.39633 -0.92276,11.09419 -0.25832,3.50558 -0.29481,7.02039 -0.337,10.53342 -0.0632,3.45639 -0.0223,6.91444 0.024,10.37096 -9.9e-4,2.62994 0.0378,5.25967 0.0593,7.88948 -0.0259,1.74924 -0.0348,3.49822 -0.0288,5.24763 2.8e-4,8.20698 -11.60615,8.20738 -11.60643,3.9e-4 l 0,0 c 0.006,-1.74825 -0.003,-3.49609 -0.0298,-5.24416 0.0198,-2.62765 0.0553,-5.25527 0.0489,-7.88303 0.0406,-3.50054 0.0706,-7.00167 0.0535,-10.50237 0.0346,-3.77973 0.13369,-7.562 0.44371,-11.33041 0.2814,-3.66843 0.73804,-7.31858 0.82903,-10.99917 0.20916,-3.08174 0.66801,-6.15056 0.6716,-9.24032 -0.0392,-2.28858 -0.0898,-4.57693 -0.0617,-6.86603 0.008,-2.27002 0.0237,-4.53999 0.0526,-6.80985 0.0322,-2.98485 0.0539,-5.97044 -0.0152,-8.95493 -0.0564,-2.02116 -0.0206,-4.04305 -0.0663,-6.06456 -0.0514,-1.84643 -0.13771,-3.69485 -0.42893,-5.52186 -0.35985,-2.31496 -0.65645,-4.6268 -0.76526,-6.96853 -0.27147,-2.35436 -0.82369,-4.67561 -0.89509,-7.05011 -0.16596,-2.44028 -0.54144,-4.83529 -0.98097,-7.23981 -0.12312,-1.89454 -0.37604,-3.77048 -0.73645,-5.63526 -0.22099,-2.01554 -0.20833,-4.03635 -0.39646,-6.05546 -0.26105,-2.21246 -0.80943,-4.39968 -0.77348,-6.63807 -0.0197,-1.78874 -0.0424,-3.5807 -0.22649,-5.36173 -0.26089,-2.21025 -0.80917,-4.39514 -0.77413,-6.63127 -0.0202,-1.784 -0.0443,-3.57114 -0.2289,-5.34735 -0.27327,-2.3262 -0.83297,-4.63323 -0.74461,-6.98811 0.0217,-2.65808 0.0607,-5.31641 0.0287,-7.97455 -0.007,-3.06097 0.0887,-6.12154 0.0451,-9.18263 -0.0178,-2.85345 -0.0475,-5.70637 -0.0958,-8.55946 0.006,-2.21749 0.0185,-4.43497 0.0479,-6.65229 0.0381,-3.15832 0.0585,-6.31668 0.0728,-9.47518 -0.0287,-3.33168 0.0702,-6.66866 -0.16506,-9.9953 0,-8.33551 11.78818,-8.33551 11.78818,0 z"
         id="path3123"
         style="fill:#000000;fill-opacity:1;fill-rule:nonzero;stroke:none" />
      <path
         inkscape:connector-curvature="0"
         d="m 593.42023,434.70914 c -2.56184,-1.04958 -5.21604,-1.73883 -7.94503,-2.16258 -2.8062,-0.57385 -5.63517,-1.00556 -8.49121,-1.21968 -2.04175,-0.11391 -4.08805,-0.13565 -6.13258,-0.14998 -2.64652,0.0776 -5.26758,0.003 -7.89318,-0.34423 -2.36829,-0.33451 -4.75444,-0.50811 -7.14331,-0.59684 -2.75864,-0.32084 -5.50098,-0.7291 -8.2739,-0.90848 -3.51648,-0.60804 -7.08225,-0.78107 -10.61722,-1.22622 -2.56039,-0.35278 -5.13122,-0.61113 -7.7103,-0.77328 -8.18386,-0.64776 -7.26779,-12.2215 0.91607,-11.57374 l 0,0 c 2.71655,0.25273 5.41914,0.61402 8.12234,0.98111 3.37253,0.35523 6.75553,0.61284 10.1243,1.01019 2.63609,0.20659 5.25776,0.50886 7.87635,0.87246 2.71788,0.10361 5.42613,0.30458 8.11973,0.69744 2.16699,0.24071 4.32574,0.24349 6.50834,0.20674 2.38462,-0.004 4.77228,-0.0167 7.14905,0.21491 3.10717,0.31735 6.17699,0.86152 9.24489,1.44152 3.35452,0.53804 6.60628,1.42954 9.86979,2.35828 7.90007,2.63335 4.17594,13.80573 -3.72413,11.17238 z"
         id="path3125"
         style="fill:#000000;fill-opacity:1;fill-rule:nonzero;stroke:none" />
      <path
         inkscape:connector-curvature="0"
         d="m 531.69652,431.03038 c -0.70693,3.13281 -0.43405,6.36083 -0.26857,9.53811 0.14014,3.74746 0.1045,7.49158 0.54488,11.21818 0.31099,3.01962 0.70096,6.02301 1.13358,9.02755 0.23176,2.43859 0.60259,4.83384 1.06152,7.23625 0.44807,2.34558 0.60618,4.7295 0.63996,7.11293 -0.20593,2.68356 -0.59417,5.36226 -1.02281,8.02075 -0.48573,2.80143 -0.75996,5.62978 -0.88702,8.46819 -0.12597,3.08745 -0.15568,6.17701 -0.1853,9.26664 0.0193,3.78891 -0.007,7.57746 -8e-5,11.36635 0.0292,4.02358 0.451,8.03148 0.68757,12.0464 0.21497,5.05147 0.12045,10.09309 0.4612,15.13986 0.4614,4.29086 0.45564,8.62284 0.90351,12.91198 0.35673,3.45113 0.71611,6.89716 0.90636,10.36192 0.17161,3.01754 0.0886,6.04044 0.11223,9.06125 0.034,2.64639 0.022,5.29286 0.039,7.93941 0.0453,2.64553 -0.53878,5.24208 -0.77122,7.87004 -0.27063,2.80136 -0.20496,5.61864 -0.26942,8.42844 0.12227,3.25301 -0.33007,6.47574 -0.63238,9.70533 -0.24353,2.70168 -0.33831,5.41247 -0.35895,8.12403 -0.0354,3.09176 -0.0475,6.18285 -0.012,9.2747 0.1231,1.8435 -0.1625,3.66757 -0.46418,5.47816 -1.43811,8.15826 -12.97563,6.12447 -11.53752,-2.03378 l 0,0 c 0.21538,-1.1472 0.54329,-2.25319 0.43374,-3.43582 0.0314,-3.14473 0.006,-6.28863 0.0246,-9.43331 0.0552,-3.05624 0.0384,-6.12103 0.402,-9.16127 0.32121,-2.86251 0.73326,-5.71825 0.58423,-8.60709 -0.021,-3.1306 0.13727,-6.25837 0.27774,-9.38519 0.2106,-2.28191 0.57397,-4.55381 0.68241,-6.83348 0.0211,-2.639 0.017,-5.27794 0.0509,-7.9168 0.016,-2.84546 -0.0472,-5.68863 -0.11414,-8.53312 -0.12469,-3.29669 -0.37461,-6.58806 -0.76514,-9.86438 -0.35951,-4.40375 -0.2868,-8.83455 -0.64877,-13.24093 -0.30376,-5.06322 -0.45888,-10.12998 -0.65539,-15.19814 -0.23626,-4.23214 -0.74916,-8.45386 -0.76645,-12.69178 0.003,-3.79389 -0.0319,-7.58738 -0.015,-11.3813 -0.0264,-3.29725 -0.0929,-6.59926 0.0527,-9.89401 0.20127,-3.16331 0.51883,-6.31182 1.03252,-9.44134 0.22896,-2.03313 0.33122,-4.097 0.78898,-6.09525 -0.0767,-1.77605 -0.13648,-3.5583 -0.45495,-5.31202 -0.45632,-2.57184 -0.81323,-5.14143 -1.01057,-7.74734 -0.43059,-3.1464 -0.91717,-6.27918 -1.11949,-9.45249 -0.36174,-3.96662 -0.40562,-7.93738 -0.55505,-11.91573 -0.12829,-3.89432 -0.41921,-7.80081 0.0625,-11.68365 1.17503,-8.22526 12.80731,-6.56351 11.63227,1.66175 z"
         id="path3127"
         style="fill:#000000;fill-opacity:1;fill-rule:nonzero;stroke:none" />
      <path
         inkscape:connector-curvature="0"
         d="m 464.59208,479.38688 c 1.58989,-2.21699 3.09403,-4.47448 4.57426,-6.76219 1.06591,-1.82777 2.39052,-3.48749 3.82959,-5.03139 1.35607,-1.35635 2.78686,-2.62976 4.22253,-3.90494 1.63073,-1.64199 3.26202,-3.27414 4.8249,-4.98142 2.03647,-1.99219 4.17209,-3.89299 6.32986,-5.75489 1.20724,-1.35012 2.70615,-2.4212 3.9054,-3.77331 0.94183,-1.05233 2.20653,-1.87272 3.05769,-3.00424 1.08756,-1.18056 2.27324,-2.25706 3.35816,-3.43912 0.80649,-0.87393 1.76077,-1.61105 2.54215,-2.5069 5.76531,-5.99422 14.24243,2.15916 8.47711,8.15339 l 0,0 c -0.74457,0.75047 -1.50878,1.48521 -2.28127,2.2045 -1.10573,1.24832 -2.35825,2.34179 -3.44651,3.59983 -1.08043,1.12462 -2.20371,2.21053 -3.35775,3.25798 -1.55296,1.51146 -3.19749,2.92336 -4.7642,4.42171 -1.81446,1.45772 -3.52159,3.06116 -5.20483,4.66565 -1.79447,1.98588 -3.75532,3.80891 -5.5658,5.78058 -1.2463,1.16752 -2.52109,2.30327 -3.697,3.54119 -0.90975,0.54575 -1.89818,2.46565 -2.56946,3.27901 -1.57134,2.192 -3.12091,4.43157 -4.46205,6.76975 -4.60693,6.91041 -14.37972,0.39522 -9.77278,-6.51519 z"
         id="path3129"
         style="fill:#000000;fill-opacity:1;fill-rule:nonzero;stroke:none" />
      <path
         inkscape:connector-curvature="0"
         d="m 471.9753,579.95426 c 2.73284,2.0641 5.26047,4.37703 7.84222,6.62226 2.64142,2.38426 5.24009,4.81463 7.80301,7.28288 1.91223,1.86202 4.03985,3.48436 6.04395,5.24727 2.0505,1.94124 4.24805,3.71239 6.3828,5.55967 2.40784,2.15938 5.12849,3.94383 7.77437,5.79574 2.76723,1.96296 5.49277,3.98446 8.25905,5.94775 2.24987,1.6358 4.38975,3.42052 6.50955,5.21888 0.94012,0.92038 1.81291,1.88125 2.6558,2.88818 5.18913,6.47796 -3.97209,13.81649 -9.16121,7.33853 l 0,0 c -0.36057,-0.51999 -0.85529,-0.92063 -1.18184,-1.46338 -1.79465,-1.66711 -3.75576,-3.16417 -5.68185,-4.67525 -2.63235,-2.00327 -5.31704,-3.92638 -8.00058,-5.86223 -2.94892,-2.08138 -5.99353,-4.06705 -8.71345,-6.44499 -2.16847,-1.86305 -4.44477,-3.59795 -6.50406,-5.58602 -2.15273,-1.89026 -4.42889,-3.6467 -6.42884,-5.70415 -2.38174,-2.34799 -4.77392,-4.69038 -7.31667,-6.86559 -2.19717,-1.91772 -4.31272,-3.98368 -6.79744,-5.52677 -6.91041,-4.60693 -0.39521,-14.37972 6.51519,-9.77278 z"
         id="path3131"
         style="fill:#000000;fill-opacity:1;fill-rule:nonzero;stroke:none" />
      <path
         inkscape:connector-curvature="0"
         d="m 470.7177,568.46809 c 2.01563,0.0351 4.33841,0.34923 6.20351,-0.59959 2.58203,-1.09979 5.08401,-2.37438 7.61861,-3.57678 2.74767,-1.41243 5.5499,-2.71548 8.29527,-4.13172 2.82493,-1.2036 5.42509,-2.8301 8.10074,-4.31842 2.60851,-1.34029 5.36497,-2.31619 8.10947,-3.32764 2.06519,-0.74396 4.11438,-1.52289 6.11268,-2.42416 2.03955,-0.80054 4.04155,-1.68448 6.09092,-2.45727 1.34026,-0.67635 2.67571,-1.35711 4.05838,-1.95714 0.18323,-0.0834 0.36645,-0.16687 0.54968,-0.2503 7.52789,-3.51752 12.50241,7.12853 4.97452,10.64605 l 0,0 c -0.3265,0.15474 -0.653,0.30948 -0.97949,0.46422 -1.57481,0.56378 -2.99404,1.55352 -4.5789,2.1096 -1.84047,0.63059 -3.6433,1.3994 -5.42208,2.18204 -2.24355,0.9501 -4.54318,1.75826 -6.83528,2.58225 -2.22699,0.80413 -4.42768,1.6232 -6.56336,2.65605 -2.81597,1.45966 -5.58927,3.00563 -8.4106,4.45461 -2.86059,1.40793 -5.77482,2.70433 -8.61041,4.16442 -2.92182,1.36214 -5.6882,3.06461 -8.73115,4.15813 -3.25496,0.99148 -6.57853,1.40416 -9.98251,1.41383 -8.3355,0 -8.3355,-11.78818 0,-11.78818 z"
         id="path3133"
         style="fill:#000000;fill-opacity:1;fill-rule:nonzero;stroke:none" />
      <path
         inkscape:connector-curvature="0"
         d="m 471.45034,481.95583 c 3.4965,0.94646 7.106,1.41117 10.64731,2.17923 3.49786,0.94143 7.0079,1.82427 10.42534,3.03218 2.44044,0.86142 4.88774,1.71037 7.27483,2.712 2.15958,0.72869 4.23489,1.66087 6.33528,2.53928 2.37472,0.80952 4.67297,1.8123 6.93786,2.88687 2.51078,1.02003 5.02245,2.04 7.55117,3.01574 2.33836,0.99869 4.71426,1.94017 7.14302,2.69925 0.42194,0.15994 0.84388,0.31989 1.26582,0.47984 7.70228,2.97887 3.48951,13.87153 -4.21276,10.89266 l 0,0 c -0.25449,-0.10166 -0.50897,-0.20333 -0.76346,-0.30499 -2.58152,-0.90271 -5.12911,-1.91622 -7.63179,-3.01604 -2.772,-1.09478 -5.57817,-2.08977 -8.33317,-3.22874 -2.10129,-0.98818 -4.20605,-1.94774 -6.40565,-2.70696 -2.16807,-0.89428 -4.34944,-1.72818 -6.55666,-2.52005 -2.10887,-0.95099 -4.27166,-1.77503 -6.45747,-2.54103 -2.96776,-1.04746 -5.96278,-2.00144 -9.01101,-2.79086 -3.78296,-0.83606 -7.61965,-1.37113 -11.4347,-2.03721 -7.98406,-2.28116 -4.75802,-13.57233 3.22604,-11.29117 z"
         id="path3135"
         style="fill:#000000;fill-opacity:1;fill-rule:nonzero;stroke:none" />
      <path
         inkscape:connector-curvature="0"
         d="m 322.75016,418.88894 c 1.05628,3.20071 2.34134,6.30941 3.56757,9.4459 1.01345,2.57618 2.04465,5.14351 3.02817,7.73179 0.89869,2.22724 1.48266,4.56506 2.40795,6.78122 0.94853,1.88137 1.25216,4.09479 2.24026,5.94707 0.84279,2.39464 1.7778,4.74043 2.47581,7.18671 0.75927,2.79329 1.43512,5.60341 2.1097,8.41896 0.63523,2.6395 1.36356,5.25379 1.99784,7.89568 0.57384,2.92 1.372,5.78108 1.85082,8.72099 0.55346,2.72178 0.94078,5.47213 1.19977,8.23644 0.53413,2.27343 0.80642,4.58641 1.00574,6.90944 0.15273,2.69331 0.63137,5.3508 0.868,8.0369 0.23888,2.84335 0.29451,5.69898 0.29874,8.55118 0.0328,2.93999 -0.45706,5.85707 -0.75656,8.77665 -0.46083,3.13312 -0.89574,6.26581 -1.46164,9.38154 -0.48893,3.11996 -1.00275,6.23703 -1.60231,9.33796 -0.64355,3.24892 -1.18851,6.52142 -1.98366,9.73745 -0.55702,2.43672 -1.2992,4.83179 -1.78376,7.28488 -0.43177,2.3134 -1.00007,4.60667 -1.59192,6.88597 -0.59792,2.58861 -1.32365,5.14574 -1.94788,7.72814 -0.52809,2.4037 -0.66736,4.85277 -1.20471,7.25457 -0.39226,1.52193 -0.50982,3.0884 -0.58622,4.65201 0.0513,2.65875 -0.44356,5.27655 -0.74154,7.90851 -0.23521,2.45811 -0.27666,4.92843 -0.29711,7.39587 0.15731,2.46977 -0.39113,4.88478 -0.68429,7.32007 -0.236,2.24074 -0.28244,4.4947 -0.30851,6.74576 -0.20628,2.22498 -0.64499,4.4135 -0.86041,6.63795 -0.15327,1.76556 -0.10333,3.5329 -0.31066,5.29499 -0.18638,1.58405 -0.27667,0.84342 -0.15767,1.58798 0.0206,-0.27049 0.0411,-0.54099 0.0617,-0.81148 1.59812,8.18588 -9.97847,10.44597 -11.57659,2.26008 l 0,0 c -0.0681,-0.72466 -0.13621,-1.44933 -0.20432,-2.17399 0.24325,-2.37644 0.66641,-4.71247 0.55935,-7.12285 0.1457,-1.97605 0.41323,-3.93821 0.81326,-5.87988 0.0609,-2.6123 0.17701,-5.22402 0.45065,-7.82389 0.21679,-2.08223 0.61696,-4.13288 0.55487,-6.22976 0.0682,-2.79013 0.19904,-5.57864 0.45685,-8.35841 0.21769,-2.41214 0.63653,-4.80379 0.58421,-7.23251 0.0822,-2.31938 0.22599,-4.64049 0.85023,-6.88985 0.61883,-2.36669 0.72159,-4.83044 1.35335,-7.20459 0.62412,-2.6737 1.32261,-5.32741 1.93246,-8.00276 0.55624,-2.11335 1.00709,-4.24856 1.44943,-6.38108 0.58799,-2.6145 1.39402,-5.17209 1.98316,-7.78411 0.84778,-2.95357 1.28625,-6.0023 1.89833,-9.00746 0.60794,-3.06086 1.00592,-6.1589 1.52614,-9.23399 0.51783,-2.74116 0.85614,-5.50694 1.30048,-8.26051 0.1854,-2.57482 0.71045,-5.12106 0.68697,-7.70596 -0.0352,-2.53034 -0.0391,-5.06315 -0.23972,-7.58767 -0.25756,-2.71718 -0.71398,-5.41002 -0.93871,-8.12738 -0.18249,-2.3191 -0.62461,-4.58956 -0.99202,-6.88445 -0.18621,-2.51995 -0.54204,-5.01596 -1.11771,-7.4789 -0.35249,-2.61049 -1.03566,-5.14715 -1.57779,-7.72152 -0.65838,-2.65069 -1.45126,-5.27005 -1.99975,-7.94694 -0.62779,-2.62565 -1.32003,-5.23278 -2.00354,-7.84363 -0.61422,-2.00356 -1.41385,-3.93872 -2.13633,-5.90392 -0.79436,-2.03214 -1.45939,-4.11303 -2.2533,-6.14631 -0.92013,-2.33513 -1.58311,-4.75379 -2.52522,-7.07957 -0.9168,-2.54749 -1.86678,-5.07997 -2.81658,-7.61518 -1.1674,-3.01522 -2.29772,-6.04757 -3.63398,-8.99299 -3.26763,-7.62446 7.51499,-12.24558 10.78262,-4.62112 z"
         id="path3139"
         style="fill:#000000;fill-opacity:1;fill-rule:nonzero;stroke:none" />
      <path
         inkscape:connector-curvature="0"
         d="m 182.33748,477.83645 c 0.30295,3.01769 1.18944,5.95792 2.14217,8.83114 1.14625,2.9972 2.25274,5.88255 2.79079,9.07958 0.28833,4.35791 0.85621,8.68496 1.31876,13.02762 0.4784,5.0397 0.43601,10.09587 0.83324,15.14297 0.34001,5.96805 0.94798,11.90228 1.57726,17.84438 0.5022,5.18926 0.87308,10.39519 1.18307,15.5984 0.42103,3.95901 -0.26571,7.81963 -0.95853,11.69208 -0.67533,2.88058 -1.78953,5.61768 -2.7108,8.41843 -0.99065,2.27473 -0.54324,1.29583 -1.31749,2.94786 -5.02974,10.63451 -20.06921,3.5214 -15.03948,-7.11312 l 0,0 c 0.52252,-1.09494 0.23044,-0.75212 0.6418,-1.18896 0.69972,-2.01564 1.61354,-4.07411 2.12677,-6.09217 0.50504,-2.63968 1.28293,-5.15899 0.98265,-7.88831 -0.14999,-4.90499 -0.61498,-9.80869 -0.92664,-14.70779 -0.61653,-6.03962 -1.19843,-12.07349 -1.58008,-18.13347 -0.45925,-4.95026 -0.71907,-9.90338 -1.04321,-14.86324 -0.38878,-4.00193 -1.01007,-7.976 -1.36593,-11.98078 -0.371,-2.36191 -1.72101,-4.41679 -2.20969,-6.75484 -1.13585,-3.65817 -2.10004,-7.37001 -2.88476,-11.11976 -1.93748,-11.62491 14.50262,-14.36493 16.4401,-2.74002 z"
         id="path3143"
         style="fill:#000000;fill-opacity:1;fill-rule:nonzero;stroke:none" />
    </g>
    <g
       id="g4018">
      <path
         inkscape:connector-curvature="0"
         d="m 524.03329,309.48831 c -2.29353,-0.99355 -4.69637,-1.80102 -7.08423,-2.56281 -2.38227,-0.7017 -4.71265,-1.4837 -7.17395,-1.86267 -2.57811,-0.76509 -5.22411,-1.22137 -7.82712,-1.87183 -1.91718,-0.70901 -3.91513,-0.98986 -5.93916,-1.15301 -2.45542,-0.41722 -4.84323,-1.06378 -7.32351,-1.32845 -2.03139,-0.17436 -4.03431,-0.34817 -6.01644,0.0879 -1.3738,0.39198 -3.97596,0.55864 -5.10812,1.50105 -2.211,0.92929 -4.44116,1.81047 -6.70557,2.60545 -3.17391,0.85753 -6.4646,1.22521 -9.71431,1.70376 -3.496,0.11894 -6.84878,1.03471 -10.26719,1.66127 -1.38641,0.35267 -2.23572,1.13905 -3.32844,1.95025 -0.0402,0.0626 -0.14232,0.11658 -0.12071,0.18779 0.11642,0.38342 0.16103,-0.33011 0.27379,-0.062 0.11404,0.2712 -0.16845,1.3932 -0.19279,1.60884 -0.1999,2.50945 -0.17011,5.03045 -0.1658,7.54584 -0.0586,2.72882 0.53912,5.40759 1.22593,8.03079 0.86974,2.10376 1.96133,4.08165 2.87992,6.1619 0.98506,2.38183 2.06611,4.71852 2.99401,7.12323 0.70077,2.75219 1.39401,5.51586 1.88873,8.31263 0.55478,4.47386 -2.07696,7.63168 -5.24544,10.33343 -2.22982,1.79262 -4.86095,2.95133 -7.33903,4.34949 -2.42601,1.09342 -4.75508,2.36252 -7.12797,3.56769 -3.23777,1.76296 -6.64448,3.20584 -10.09164,4.50323 -3.84564,1.58299 -7.67671,3.19409 -11.61688,4.52954 -3.05401,1.56424 -6.56418,1.81468 -9.73891,2.93919 -2.25228,0.80137 -4.61907,1.06813 -6.88342,1.78124 -2.34468,0.49945 -4.61035,1.11758 -6.91465,1.75592 -2.34766,0.78137 -4.97987,0.97061 -7.25706,1.92048 -2.98379,0.76953 -5.97103,1.51755 -8.9662,2.24661 -2.41704,0.42072 -4.81227,0.91341 -7.12001,1.76805 -2.53252,0.73151 -4.99982,1.59404 -7.5086,2.39293 -2.85088,0.81966 -5.6766,1.63316 -8.61026,2.11215 -3.30222,0.71354 -6.62464,1.27135 -9.98597,1.6088 -2.6462,0.40788 -5.18673,1.20291 -7.76464,1.89403 -2.26873,0.74516 -4.52196,1.41929 -6.64654,2.52085 -2.37738,1.07912 -4.72645,2.18561 -7.11069,3.25361 -2.40176,0.79608 -4.63344,1.93057 -6.90526,3.02826 -2.77963,1.21839 -5.52852,2.50118 -8.39016,3.53554 -2.34427,1.39441 -5.09637,1.8491 -7.52264,3.03172 -2.90782,1.31218 -5.88007,2.47156 -8.75874,3.84846 -2.7741,1.32222 -5.58227,2.55205 -8.34397,3.89322 -3.42102,1.21357 -6.53473,3.10268 -9.7322,4.78951 -3.15834,1.94347 -6.50729,3.53197 -9.8086,5.21306 -3.17408,1.75849 -6.52554,3.29759 -9.53674,5.33199 -1.89288,1.11843 -3.52184,2.63494 -5.04856,4.20794 -1.34755,2.06539 -3.33657,3.6407 -4.61825,5.74688 -1.36003,2.11254 -3.01441,3.99266 -4.56764,5.95579 -1.47872,1.76162 -2.72876,3.69937 -3.99199,5.62082 -1.11324,2.5112 -3.18463,4.4811 -4.40691,6.9101 -1.71706,2.31597 -3.036,4.87407 -4.52641,7.33201 -1.33277,2.23909 -2.73868,4.45691 -3.73421,6.875 -0.87433,1.69128 -1.45283,3.49842 -2.18848,5.24868 -3.55063,7.94361 -14.7846,2.92227 -11.23397,-5.02135 l 0,0 c 0.85064,-1.66434 1.26977,-3.52332 2.18801,-5.1649 1.32927,-2.92507 2.90067,-5.74204 4.59257,-8.47117 1.52524,-2.25483 2.53933,-4.84425 4.23274,-6.99627 1.50481,-2.47315 3.42847,-4.6538 4.74938,-7.24619 1.45897,-2.40687 2.9714,-4.76191 4.74401,-6.95345 1.36644,-1.63174 2.77151,-3.21501 3.98045,-4.97593 1.8268,-2.58615 3.98539,-4.89828 5.92441,-7.40081 2.21274,-2.30403 4.66416,-4.45308 7.45963,-6.02185 3.44235,-2.03931 7.02331,-3.84211 10.5076,-5.80973 3.27944,-1.64646 6.57276,-3.24735 9.70418,-5.16861 3.3574,-1.6942 6.60142,-3.61496 10.0513,-5.12437 2.78434,-1.27795 5.61441,-2.43623 8.37155,-3.77472 2.99496,-1.41763 6.05822,-2.68299 9.07046,-4.06215 2.77019,-1.1537 5.62152,-2.09712 8.35183,-3.35143 2.44983,-0.84137 4.71716,-2.09616 7.11029,-3.07227 2.35059,-1.1457 4.67837,-2.32268 7.16214,-3.16123 2.22487,-1.02791 4.46917,-2.01106 6.69353,-3.03836 2.9012,-1.43851 5.95978,-2.40405 9.04278,-3.37586 3.22841,-0.84037 6.419,-1.82608 9.74765,-2.2207 3.1086,-0.27146 6.1762,-0.79037 9.20201,-1.5634 2.34888,-0.36148 4.57502,-1.09812 6.851,-1.75883 2.3753,-0.72847 4.73478,-1.49683 7.10619,-2.23242 2.71934,-0.93897 5.50417,-1.65053 8.35429,-2.0622 2.69882,-0.63884 5.38858,-1.33059 8.05884,-2.06944 2.56138,-0.7469 5.1691,-1.34084 7.72711,-2.09987 2.18095,-0.60467 4.35545,-1.18387 6.5667,-1.65929 2.38161,-0.72442 4.83319,-1.06573 7.21076,-1.80251 3.12567,-0.78245 6.3248,-1.27258 9.30161,-2.59004 3.83562,-1.1965 7.46108,-2.92114 11.19237,-4.39576 3.03079,-1.08377 5.89342,-2.55847 8.70098,-4.12524 2.18747,-1.11093 4.32836,-2.31294 6.58366,-3.28243 1.87193,-1.08181 3.90816,-1.90658 5.6132,-3.2329 0.40497,-0.27771 0.64555,-0.77247 1.07934,-1.00257 0.16185,-0.0858 -0.17173,0.32552 -0.2296,0.49933 -0.1845,0.55407 -0.19558,0.87757 -0.12902,1.47677 0.009,0.0767 0.0298,-0.15141 0.0447,-0.22712 -0.31895,-1.64999 -0.7211,-3.66892 -1.1139,-5.46475 -0.80935,-2.24692 -1.82288,-4.42853 -2.80082,-6.60465 -1.07713,-2.67577 -2.58035,-5.18404 -3.33975,-7.99511 -0.91429,-3.60785 -1.67355,-7.30625 -1.68285,-11.04284 -0.009,-3.01232 -0.0461,-6.03116 0.20509,-9.0358 0.48612,-3.9623 1.58952,-7.69588 4.90084,-10.2451 2.61015,-1.91947 5.34476,-3.4904 8.59254,-4.05013 3.50453,-0.57486 6.97976,-1.3075 10.52833,-1.57774 2.51631,-0.40747 5.01422,-0.92873 7.51493,-1.4054 1.87252,-0.62964 3.7147,-1.37696 5.53054,-2.14592 2.56925,-1.08827 5.21998,-1.97367 7.98981,-2.39052 3.20043,-0.57548 6.41343,-0.51684 9.64539,-0.21483 2.3589,0.24597 4.73877,0.56006 6.99878,1.30723 2.82859,0.21837 5.65373,0.57543 8.34219,1.53237 1.98586,0.86267 4.45191,0.59589 6.41997,1.64247 3.0947,0.51596 6.07084,1.39674 9.06506,2.31515 2.95027,0.99659 5.86369,2.07087 8.81624,3.06181 7.89616,3.94808 2.31273,15.11494 -5.58343,11.16686 z"
         id="path3950"
         style="fill:#000000;fill-opacity:1;fill-rule:nonzero;stroke:none" />
      <path
         inkscape:connector-curvature="0"
         d="m 208.22103,478.92234 c 2.27497,-2.36113 4.4916,-4.75622 6.88487,-7.00197 2.62001,-2.19561 5.50143,-4.08889 8.47356,-5.77616 1.67236,-1.31527 3.55126,-2.3536 5.23665,-3.6454 1.78029,-1.24505 3.57876,-2.45817 5.43497,-3.60409 1.82165,-1.07183 3.90577,-1.86635 5.59426,-3.15148 1.76597,-1.32924 3.70356,-2.49522 5.41762,-3.89876 2.02517,-1.75145 3.98517,-3.57107 6.06551,-5.25769 2.39515,-1.89779 4.76016,-3.82605 7.31905,-5.50282 1.95129,-1.58058 4.17128,-2.8103 6.1013,-4.41518 2.63036,-2.01619 5.49382,-3.7095 8.1525,-5.68167 2.37344,-1.71615 5.06116,-2.95618 7.45382,-4.63813 2.5959,-1.65 5.09604,-3.43435 7.73715,-5.01404 2.7308,-1.90334 5.62453,-3.53624 8.69629,-4.82101 2.82932,-1.78527 6.18125,-2.24619 9.23137,-3.4178 2.65616,-0.83309 5.34738,-1.59813 8.06806,-2.19405 2.81575,-0.74434 5.80834,-1.09549 8.57467,-2.00935 1.69019,-0.5191 0.8044,-0.26038 2.65933,-0.76942 8.39737,-2.25477 11.58609,9.6209 3.18872,11.87567 l 0,0 c -1.63126,0.42584 -0.76795,0.19065 -2.58793,0.71278 -3.02189,0.76023 -6.07234,1.42974 -9.10921,2.12217 -2.37323,0.58051 -4.70705,1.32129 -7.05695,1.98496 -2.82076,0.8204 -5.69529,1.39963 -8.27435,2.90795 -2.55008,1.06933 -4.83563,2.69859 -7.17872,4.14539 -2.48228,1.42974 -4.71409,3.22865 -7.16996,4.69993 -2.35386,1.51275 -4.75505,2.94522 -7.15735,4.37272 -2.56589,1.77236 -5.18417,3.47472 -7.64639,5.38998 -2.306,1.7551 -4.68301,3.41175 -7.04664,5.089 -2.19454,1.35083 -4.15318,3.07381 -6.16849,4.66746 -2.17039,1.79869 -4.2725,3.66397 -6.35978,5.55747 -1.99047,1.47647 -4.00141,2.93649 -6.03567,4.34953 -1.94071,1.24736 -3.93746,2.45123 -6.00211,3.47487 -1.67342,1.00429 -3.26931,2.07721 -4.8555,3.21296 -2.09729,1.39631 -4.16696,2.82266 -6.29115,4.18859 -2.11515,1.14661 -4.13592,2.50289 -6.09167,3.89184 -2.29168,2.18971 -4.55807,4.41428 -6.42083,6.99275 -6.24871,6.2487 -15.0857,-2.5883 -8.837,-8.837 z"
         id="path3952"
         style="fill:#000000;fill-opacity:1;fill-rule:nonzero;stroke:none" />
      <path
         inkscape:connector-curvature="0"
         d="m 531.98356,302.19355 c -0.75014,3.05545 -2.0987,5.87196 -3.70156,8.55871 -1.43412,2.31103 -2.70719,4.72134 -4.34442,6.89674 -2.81823,3.41322 -6.75605,4.66719 -10.97769,5.24291 -2.78228,0.0648 -5.48633,0.35743 -8.2258,0.80791 -2.85384,0.92039 -5.78115,1.51095 -8.75084,1.89039 -2.3846,0.50272 -4.76206,0.98993 -7.0302,1.8994 -2.1216,1.03047 -3.88484,2.62749 -5.41814,4.39741 -1.59077,1.44193 -2.86444,3.09773 -4.10962,4.80691 -0.6489,1.25765 -1.53651,2.42198 -1.89399,3.81124 -0.4765,1.98036 -1.21921,3.86105 -1.54356,5.87848 -0.30287,2.36958 -0.31461,4.76373 -0.33898,7.14872 -0.0209,3.03326 0.087,6.05881 -0.19811,9.08023 -0.49624,2.32899 -0.87209,4.66572 -1.05186,7.03975 -0.15684,2.6239 -0.15805,5.25381 -0.16602,7.88141 -0.003,2.82354 0.003,5.64707 0.005,8.47061 0.0533,3.12135 0.0858,6.209 -0.48272,9.28762 -0.40532,2.60695 -1.0366,5.15771 -1.62386,7.72743 -0.45561,3.28121 -1.83964,6.21257 -3.69594,8.90886 -2.04086,2.33051 -4.62879,3.92438 -7.28185,5.44862 -3.11243,1.60197 -6.0446,3.46948 -9.30961,4.75349 -2.47509,1.29211 -5.14707,2.14543 -7.80214,2.97992 -4.58773,1.21383 -9.28354,1.99892 -13.94426,2.89227 -3.10406,0.53155 -6.06717,1.56736 -9.17826,2.10352 -3.23956,0.45455 -6.51142,0.58136 -9.76746,0.30345 -2.28374,-0.30638 -4.95159,-1.0539 -6.90853,-1.56578 -8.64317,-1.59868 -6.3823,-13.82196 2.26087,-12.22328 l 0,0 c 2.09351,0.50891 4.0606,1.26168 6.20921,1.55629 1.61834,0.64895 4.43606,-0.24758 6.19753,-0.20489 3.04411,-0.47159 5.97109,-1.49848 9.0436,-1.81466 4.06612,-0.68785 8.16241,-1.39056 12.12162,-2.5434 2.51074,-0.9424 5.02168,-1.87548 7.46739,-2.9787 2.62119,-0.87029 4.91181,-2.51518 7.31975,-3.82973 0.9789,-0.60124 2.06089,-1.15729 2.95717,-1.88118 0.2892,-0.23357 0.51748,-0.54535 0.83388,-0.74049 0.0953,-0.0588 -0.0889,0.20561 -0.13331,0.30841 0.82533,-1.25044 1.52029,-2.54942 1.63014,-4.18974 0.55511,-2.46302 1.11845,-4.90438 1.49693,-7.4032 0.50278,-2.26124 0.29074,-4.56418 0.31658,-6.88364 -0.002,-2.83747 -0.008,-5.67494 -0.007,-8.51242 0.006,-2.91809 0.005,-5.83842 0.17026,-8.75288 0.18781,-2.61401 0.48003,-5.22119 1.10748,-7.77155 0.71923,-2.18871 -0.2492,-5.25216 0.13581,-7.55687 0.0237,-3.0148 0.0435,-6.04046 0.44591,-9.03383 0.43113,-2.60137 1.24339,-5.05807 1.91539,-7.59093 0.88671,-2.68673 2.20421,-5.17138 3.76989,-7.52498 1.59853,-2.02346 3.11474,-4.08885 5.09894,-5.77499 2.90833,-2.97477 6.06857,-5.75693 9.93284,-7.42306 3.22273,-1.22432 6.54632,-2.07606 9.94488,-2.66107 2.81824,-0.33061 5.53157,-1.06073 8.26312,-1.81609 2.86631,-0.47198 5.72225,-0.85178 8.63089,-0.89653 0.90186,-0.10612 1.93109,-0.15234 2.75477,-0.53386 1.39097,-1.76383 2.37502,-3.82908 3.58563,-5.71355 0.98929,-1.66223 1.968,-3.32316 2.1392,-5.29205 2.1444,-8.5776 14.27496,-5.54496 12.13056,3.03265 z"
         id="path3954"
         style="fill:#000000;fill-opacity:1;fill-rule:nonzero;stroke:none" />
      <path
         inkscape:connector-curvature="0"
         d="m 374.05323,434.61576 c -3.28411,1.22196 -6.42564,2.76446 -9.66825,4.08029 -3.88464,1.16807 -7.88477,1.01471 -11.78107,0.0396 -2.85086,-0.58633 -5.56256,-1.55659 -8.19354,-2.78858 -2.59405,-1.15344 -5.11374,-2.49368 -7.62686,-3.8187 -2.06783,-1.14769 -4.05151,-2.43169 -6.09112,-3.63123 -1.6419,-1.20224 -0.94903,-0.70685 -2.06916,-1.49933 -7.12412,-5.11151 0.10465,-15.18654 7.22877,-10.07502 l 0,0 c 1.09693,0.79388 0.74342,0.42425 1.20617,0.9484 1.90124,1.15216 3.75185,2.37757 5.66647,3.49157 2.20163,1.33421 4.61808,2.37439 6.96093,3.4365 1.94295,0.93035 3.9179,1.61446 6.05922,2.00153 1.38122,0.39846 2.72247,0.49605 4.17696,0.50828 2.92286,-1.08663 5.83895,-2.32222 8.54804,-3.86016 7.89617,-3.94808 13.4796,7.21878 5.58344,11.16686 z"
         id="path3956"
         style="fill:#000000;fill-opacity:1;fill-rule:nonzero;stroke:none" />
      <path
         inkscape:connector-curvature="0"
         d="m 369.37465,412.43681 c 1.22952,3.05961 2.49496,6.10349 3.69961,9.1743 1.20278,2.79717 1.47697,5.97606 2.74137,8.73862 0.97001,2.89132 1.75541,5.84577 2.76834,8.72259 1.24369,3.22423 1.81985,6.61327 2.13569,10.03689 0.21482,3.00466 0.20417,6.01907 0.20448,9.02958 0.15231,3.72092 -1.02272,7.2748 -1.91182,10.83612 -1.06546,3.4673 -2.96984,6.62591 -4.93555,9.65272 -1.14134,2.0731 -2.82875,3.85117 -3.83955,5.99293 -1.24213,1.79475 -2.09081,3.77277 -2.69186,5.8624 -0.15703,1.03845 -0.71653,2.27973 -0.23114,3.32372 0.14534,0.3126 -0.0203,-0.6947 -0.10495,-1.02888 0.71139,0.64424 2.06105,1.30587 3.35088,2.2165 1.65191,0.99986 3.394,1.91047 5.18079,2.65762 2.81915,0.82122 5.62892,1.68682 8.52721,2.18796 2.86126,0.4252 5.75765,0.47929 8.64453,0.51478 1.70252,-0.78059 3.86186,-0.36076 5.51817,-1.15362 0.2991,-0.0944 0.59821,-0.18885 0.89732,-0.28328 8.35472,-2.5763 11.99816,9.23906 3.64344,11.81536 l 0,0 c -0.422,0.12794 -0.844,0.25588 -1.26601,0.38382 -2.95111,0.70294 -5.97461,1.23695 -8.99728,1.48608 -3.52526,-0.0728 -7.0573,-0.21609 -10.54327,-0.78766 -3.74512,-0.66502 -7.40842,-1.6735 -11.02847,-2.83564 -2.76032,-1.10599 -5.51612,-2.33758 -7.97258,-4.03012 -1.9457,-1.84944 -4.9814,-2.58275 -6.23511,-5.23315 -0.44536,-0.82734 -0.99311,-1.60725 -1.33608,-2.48201 -1.27919,-3.26266 -0.57704,-6.91321 0.20832,-10.18366 0.84933,-2.87899 1.77995,-5.81743 3.56842,-8.27145 1.37036,-2.44293 3.04788,-4.68436 4.54364,-7.05324 1.31908,-1.75579 2.27968,-3.80785 3.28468,-5.7506 0.66298,-2.57322 1.55344,-5.14755 1.4525,-7.83591 -6e-5,-2.65011 0.0128,-5.30324 -0.15345,-7.94938 -0.2017,-2.42857 -0.57053,-4.83085 -1.47403,-7.11244 -0.95832,-2.7949 -1.76883,-5.63965 -2.72744,-8.43433 -0.9702,-2.83822 -1.70288,-5.75139 -2.58847,-8.61618 -1.04486,-2.72092 -2.09268,-5.44734 -3.4992,-8.00701 -3.94808,-7.89617 7.21878,-13.4796 11.16687,-5.58343 z"
         id="path3958"
         style="fill:#000000;fill-opacity:1;fill-rule:nonzero;stroke:none" />
      <path
         inkscape:connector-curvature="0"
         d="m 399.53909,506.14411 c -1.61585,-1.39734 -3.52803,-2.3807 -5.34505,-3.48172 -1.60164,-0.74415 -3.06385,-1.85549 -4.78565,-2.31225 -2.86705,-1.02561 -5.60768,-2.36871 -8.41494,-3.54495 -2.24869,-0.8116 -4.90203,-1.16828 -6.53588,-3.14354 -0.79731,-0.96392 -1.26354,-2.15937 -1.89531,-3.23905 -1.1259,-4.39468 0.8582,-7.74035 3.07234,-11.3022 1.48795,-2.37533 3.42812,-4.38854 5.20468,-6.5326 1.77383,-2.0099 3.56991,-3.99404 5.19464,-6.12824 1.47803,-1.9093 3.29131,-3.52932 4.84039,-5.37018 1.49621,-1.28495 2.41244,-2.97315 3.63357,-4.51983 1.37103,-1.78318 2.91653,-3.43602 4.52193,-5.01 1.35939,-1.54158 2.5128,-3.24245 3.83065,-4.82272 1.09618,-1.42201 1.89987,-3.03 2.7935,-4.58279 0.78609,-1.21693 0.88497,-2.64314 1.01974,-4.04804 0.16643,-1.92265 0.23728,-3.99322 -0.74731,-5.72923 -1.12238,-2.58018 -2.32602,-5.12584 -3.35168,-7.74599 -0.59735,-1.9225 -1.67534,-3.51363 -2.7918,-5.14227 -1.4135,-2.14273 -2.95198,-4.18951 -4.30564,-6.37427 -1.53184,-2.07237 -2.87526,-4.31599 -3.99697,-6.63691 -0.68717,-1.30522 -1.18316,-2.68783 -1.67566,-4.07367 -2.86212,-8.21862 8.76076,-12.26627 11.62288,-4.04765 l 0,0 c 0.33782,1.01258 0.73702,1.9926 1.27412,2.92083 0.78065,1.94969 2.14069,3.66524 3.27638,5.41221 1.21417,2.03423 2.7348,3.87887 4.04039,5.85283 1.63035,2.4319 3.07074,4.94417 4.08754,7.70299 0.8952,2.48996 2.02953,4.89987 3.06425,7.33337 1.47957,3.77641 2.243,7.62666 1.75934,11.70254 -0.31059,3.24179 -0.88117,6.46088 -2.6567,9.26306 -1.41456,2.04101 -2.32471,4.46508 -4.07127,6.297 -1.71597,1.75323 -2.78606,4.07834 -4.63868,5.72521 -1.33711,1.11504 -2.39365,2.57941 -3.49491,3.91068 -1.49676,1.45098 -2.17907,3.69891 -3.97635,4.89947 -1.45876,1.58001 -2.9894,3.08526 -4.41471,4.69658 -1.79862,2.22603 -3.66131,4.39792 -5.47703,6.61173 -1.39923,1.58203 -2.87098,3.088 -4.08086,4.82884 -1.40939,2.34874 -0.28773,0.5183 -1.14831,1.86341 -0.1305,0.20398 -0.24404,0.88369 -0.31805,0.65313 -0.10015,-0.312 -0.0361,-0.65435 -0.0542,-0.98153 -0.0837,-0.24403 -0.16741,-0.48805 -0.25112,-0.73208 -0.46245,-0.59373 -0.85052,-1.25376 -1.38735,-1.7812 -0.24675,-0.24243 -0.59922,-0.34965 -0.91804,-0.48384 -0.0531,-0.0224 -0.22421,0.003 -0.17097,0.0255 1.26681,0.52382 2.61205,0.89067 3.87519,1.42791 2.45947,1.03746 4.86486,2.25544 7.39988,3.06496 2.69392,0.89748 5.15704,2.24164 7.60769,3.66155 2.52371,1.70644 5.28995,3.08169 7.62234,5.07597 6.2487,6.24871 -2.5883,15.0857 -8.837,8.837 z"
         id="path3960"
         style="fill:#000000;fill-opacity:1;fill-rule:nonzero;stroke:none" />
      <path
         inkscape:connector-curvature="0"
         d="m 487.06402,300.83719 c 2.22299,-0.30473 4.16379,-1.43671 6.35566,-1.9146 8.86962,-0.99646 10.27883,11.54707 1.40921,12.54353 l 0,0 c 0.24046,-0.0879 0.92627,-0.42705 0.68001,-0.35704 -1.82741,0.51956 -3.53226,1.48996 -5.41224,1.85867 -8.57761,2.1444 -11.61025,-9.98616 -3.03264,-12.13056 z"
         id="path3988"
         style="fill:#000000;fill-opacity:1;fill-rule:nonzero;stroke:none" />
      <path
         inkscape:connector-curvature="0"
         d="m 435.24614,275.22808 c -1.57509,1.5042 -2.80807,3.26491 -3.98263,5.08629 -0.64165,1.75994 -1.16517,3.58744 -1.61146,5.41398 -0.3493,2.59803 -0.81884,5.15301 -1.41594,7.707 -0.50925,2.94459 -1.68678,5.70309 -2.61567,8.52567 -1.01111,4.75606 -3.62941,7.3069 -8.05023,9.043 -3.46873,0.90719 -7.08145,0.97763 -10.63038,0.64946 -3.92594,-0.58271 -7.1334,-3.02999 -10.01199,-5.5983 -2.34587,-1.52716 -3.45063,-4.21272 -5.30757,-6.16245 -3.19548,-3.79079 -2.35493,-8.4342 -0.88697,-12.71677 1.13261,-3.01108 3.07774,-5.57692 5.24361,-7.91164 1.49508,-1.88719 3.39033,-3.2964 5.27616,-4.75291 2.46523,-2.07808 5.11706,-3.964 7.94805,-5.50807 2.6197,-0.91301 5.0698,-2.1662 7.61813,-3.23644 1.01249,-0.7378 2.20279,-1.11342 3.35842,-1.55812 8.39346,-2.62172 12.10115,9.24843 3.70768,11.87016 l 0,0 c 0.84686,-1.1949 -3.30877,2.47149 -2.38757,1.09952 -2.22133,0.86929 -4.31824,2.05673 -6.61127,2.74726 -2.20239,1.00321 -4.1481,2.61537 -5.93685,4.21505 -1.44836,1.17311 -2.9328,2.25257 -4.10801,3.77446 -1.15526,0.93388 -2.01327,2.3531 -2.63112,3.67053 -0.97671,1.48312 0.15665,1.79041 -1.26373,0.0543 -0.13596,-0.16618 0.23276,0.36086 0.34914,0.54129 1.26231,1.70744 2.34081,3.56037 4.05157,4.87226 1.03439,1.11942 2.49801,2.24409 3.23419,2.3834 1.47484,0.58998 3.41158,-0.13857 4.96264,-0.11853 -1.15562,2.39953 0.60632,-0.3037 0.44589,-1.27507 0.84165,-2.45715 1.86473,-4.84666 2.23559,-7.43803 0.61633,-2.59849 1.12018,-5.16663 1.50109,-7.81783 0.79351,-3.19769 1.58389,-6.48168 3.29417,-9.32836 1.67693,-2.45142 3.47853,-4.79473 5.38806,-7.06809 6.24871,-6.24871 15.0857,2.58829 8.837,8.837 z"
         id="path3980"
         style="fill:#000000;fill-opacity:1;fill-rule:nonzero;stroke:none" />
      <path
         inkscape:connector-curvature="0"
         d="m 426.85323,392.5599 c 0.68997,-3.16763 1.44291,-6.33601 2.01232,-9.53173 0.45214,-2.81056 0.5293,-5.66213 0.63428,-8.50151 0.11543,-3.95433 0.14737,-7.88761 -0.28563,-11.82134 -0.34257,-2.40109 -1.45036,-4.19576 -2.8093,-6.11118 -1.29762,-2.12319 -3.08017,-3.88626 -4.69278,-5.76648 -1.76234,-2.04122 -3.25013,-4.30438 -5.06479,-6.29906 -2.06444,-2.10056 -3.82002,-4.4617 -5.72537,-6.69756 -2.33674,-3.21393 -3.86409,-6.79355 -4.79919,-10.63385 -0.67095,-3.37435 -0.7707,-6.82489 -0.6975,-10.25365 -0.11141,-3.07938 0.46186,-6.11285 0.88784,-9.14692 1.26314,-8.5701 13.38308,-6.78374 12.11994,1.78635 l 0,0 c -0.37062,2.41077 -0.98765,4.81802 -0.84549,7.26944 0.0993,2.53015 0.0602,5.07897 0.47483,7.5848 0.42492,2.05318 1.20247,3.88956 2.39821,5.62574 1.69121,2.13248 3.35202,4.27194 5.25753,6.22694 1.92335,2.11914 3.55837,4.46029 5.44153,6.61549 1.78399,2.21045 3.85951,4.20674 5.30843,6.67266 2.48193,3.59722 4.23875,7.45202 4.68927,11.85625 0.45745,4.42745 0.58528,8.84961 0.47963,13.3007 0.002,3.53154 -0.11493,7.06747 -0.7899,10.54616 -0.67337,3.43428 -1.63757,6.8038 -1.86329,10.31139 -2.14441,8.5776 -14.27497,5.54496 -12.13057,-3.03264 z"
         id="path3982"
         style="fill:#000000;fill-opacity:1;fill-rule:nonzero;stroke:none" />
    </g>
  </g>
</svg>
