<?xml version="1.0" encoding="UTF-8" standalone="no"?>
<!-- Created with Inkscape (http://www.inkscape.org/) -->

<svg
   xmlns:dc="http://purl.org/dc/elements/1.1/"
   xmlns:cc="http://creativecommons.org/ns#"
   xmlns:rdf="http://www.w3.org/1999/02/22-rdf-syntax-ns#"
   xmlns:svg="http://www.w3.org/2000/svg"
   xmlns="http://www.w3.org/2000/svg"
   xmlns:sodipodi="http://sodipodi.sourceforge.net/DTD/sodipodi-0.dtd"
   xmlns:inkscape="http://www.inkscape.org/namespaces/inkscape"
   width="792pt"
   height="612pt"
   id="svg2985"
   version="1.1"
   inkscape:version="0.91 r13725"
   sodipodi:docname="vad2000.svg"
   style="display:inline">
  <defs
     id="defs2987" />
  <sodipodi:namedview
     inkscape:document-units="in"
     pagecolor="#ffffff"
     bordercolor="#666666"
     borderopacity="1.0"
     inkscape:pageopacity="0.0"
     inkscape:pageshadow="2"
     inkscape:zoom="4.0732029"
     inkscape:cx="518.61128"
     inkscape:cy="529.56666"
     inkscape:current-layer="layer6"
     id="namedview2989"
     showgrid="false"
     showguides="true"
     inkscape:guide-bbox="true"
     inkscape:window-width="1366"
     inkscape:window-height="744"
     inkscape:window-x="0"
     inkscape:window-y="24"
     inkscape:window-maximized="1" />
  <metadata
     id="metadata2991">
    <rdf:RDF>
      <cc:Work
         rdf:about="">
        <dc:format>image/svg+xml</dc:format>
        <dc:type
           rdf:resource="http://purl.org/dc/dcmitype/StillImage" />
      </cc:Work>
    </rdf:RDF>
  </metadata>
  <g
     inkscape:groupmode="layer"
     id="layer2"
     inkscape:label="Fills"
     style="display:inline">
    <path
       style="fill:#90ab99;fill-opacity:1;stroke:#90ab99;stroke-width:4.30581951;stroke-linecap:butt;stroke-linejoin:round;stroke-miterlimit:4;stroke-dasharray:none;stroke-opacity:1"
       d="m 691.6057,405.39578 c -3.33141,-2.20663 -5.57472,-4.91837 -12.08703,-14.61092 -3.53194,-5.25675 -9.34521,-10.67432 -28.60258,-26.65565 -13.49733,-11.20119 -23.35584,-17.56471 -35.93719,-23.19692 -12.28345,-5.49884 -14.2184,-5.92238 -26.9059,-5.88926 -10.18918,0.0266 -11.82863,0.21371 -19.77294,2.25679 -7.16653,1.84306 -9.97302,2.2278 -16.25048,2.2278 l -7.58791,0 3.9249,-4.11484 c 2.15869,-2.26316 3.92489,-4.60676 3.92489,-5.20799 0,-1.70387 -4.3652,-1.36768 -8.33024,0.64155 -4.54436,2.30281 -7.5534,5.02937 -12.98139,11.76278 -6.87363,8.5267 -8.72528,12.83157 -11.36398,26.41979 -0.74052,3.81333 -2.14593,8.56753 -3.12315,10.56489 -2.01548,4.11951 -6.69656,8.56865 -11.67654,11.09801 -5.08683,2.58363 -17.21263,4.86036 -16.07402,3.01806 0.47697,-0.77175 3.71855,-1.72335 9.73341,-2.85732 3.5032,-0.66046 4.62355,-1.2596 7.03838,-3.76397 4.55239,-4.7212 5.44326,-8.39026 4.70988,-19.39783 -0.33225,-4.98694 -0.56358,-11.25452 -0.51408,-13.92795 0.16779,-9.06101 4.12618,-16.41619 15.0294,-27.92654 5.011,-5.29001 6.72037,-7.56112 6.72037,-8.92885 0,-1.64994 -0.19193,-1.78794 -1.9096,-1.37304 -5.00361,1.20862 -12.1479,6.21659 -16.18036,11.34203 l -2.39481,3.04392 -4.37471,-0.42724 c -5.58129,-0.54507 -14.95498,-3.68807 -20.01604,-6.71139 -5.29472,-3.16288 -10.17235,-7.99255 -12.25424,-12.1337 -3.35016,-6.66393 -5.49223,-19.57302 -6.70744,-40.42222 -0.63805,-10.94693 -0.572,-12.7663 0.74372,-20.48477 1.84875,-10.84543 1.52746,-15.47951 -1.50477,-21.70372 -2.89415,-5.94078 -4.48922,-7.71982 -14.9483,-16.67238 -4.71897,-4.03925 -8.78229,-7.98161 -9.02959,-8.7608 -0.28201,-0.88853 -0.0244,-1.84088 0.69111,-2.55447 0.96654,-0.964 2.91293,-1.13635 12.74415,-1.12849 10.17877,0.008 12.2428,0.20779 16.81138,1.62618 7.10771,2.20672 13.60991,5.73048 18.31917,9.92777 7.93064,7.06846 8.00888,10.64105 0.44496,20.31546 -6.85639,8.76945 -9.74169,15.98111 -9.73016,24.32005 0.0115,8.36194 3.04939,13.00779 12.4288,19.00772 2.11882,1.35539 6.29069,3.46244 9.27083,4.68233 l 5.41843,2.21799 -2.75512,3.48549 c -2.98738,3.77932 -9.01287,7.31682 -13.85686,8.13521 -2.66382,0.45004 -5.65208,2.51094 -5.65208,3.89804 0,1.21868 4.67051,2.71511 8.47412,2.71511 6.77071,0 15.85974,-6.22593 18.98848,-13.00699 0.74522,-1.61517 1.66743,-2.83141 2.04935,-2.70278 0.38192,0.12864 4.28792,1.39347 8.67999,2.81074 15.33849,4.94957 19.83665,7.0652 41.97441,19.74196 12.24161,7.00992 29.75698,16.50171 38.92305,21.09287 25.27176,12.65827 30.62753,15.95523 52.07991,32.05998 9.83829,7.38581 23.58426,20.86625 28.74819,28.19287 3.48349,4.9424 10.48534,17.91764 10.48534,19.43055 0,1.34421 -2.55203,0.69871 -5.83511,-1.47591 z"
       id="path3961"
       inkscape:connector-curvature="0" />
    <path
       style="fill:#e2e2e2;fill-opacity:1;stroke:#e2e2e2;stroke-width:4.30581951;stroke-linecap:butt;stroke-linejoin:round;stroke-miterlimit:4;stroke-dasharray:none;stroke-opacity:1"
       d="m 655.08248,521.91093 c 0,-0.13397 0.29221,-1.14953 0.64935,-2.2568 0.35713,-1.10727 2.23935,-7.39205 4.1827,-13.96619 4.5154,-15.27511 10.09695,-30.17008 15.41431,-41.13482 3.11586,-6.42508 4.34742,-8.37038 4.79402,-7.57235 0.33055,0.59065 1.39375,4.12508 2.36268,7.85429 4.17378,16.06399 1.2394,29.39718 -9.17637,41.69547 -4.73132,5.58644 -18.22669,16.97437 -18.22669,15.3804 z"
       id="path3963"
       inkscape:connector-curvature="0" />
    <path
       style="fill:#e2e2e2;fill-opacity:1;stroke:#e2e2e2;stroke-width:4.30581951;stroke-linecap:butt;stroke-linejoin:round;stroke-miterlimit:4;stroke-dasharray:none;stroke-opacity:1"
       d="m 570.36583,548.10176 c -0.9548,-0.13792 -4.54831,-0.60129 -7.98559,-1.02971 -13.42594,-1.67342 -30.87885,-6.96825 -47.91351,-14.53593 -16.0371,-7.1245 -19.79037,-9.01704 -19.79037,-9.979 0,-0.51927 0.63532,-4.02521 1.41182,-7.79096 0.7765,-3.76575 2.03285,-10.75282 2.79189,-15.52682 8.16132,-51.33117 16.06505,-77.34281 32.07128,-105.54861 9.85365,-17.36386 26.49208,-40.27513 29.24826,-40.27513 5.05828,0 22.27256,6.06603 35.51178,12.51376 34.70131,16.90015 61.05907,42.12776 76.41392,73.13745 l 4.41692,8.92015 -1.68532,2.66971 c -8.05231,12.75569 -17.37765,36.91776 -25.31002,65.57854 -2.68119,9.6875 -3.80864,12.75287 -5.03554,13.69085 -0.86946,0.66472 -5.64308,3.2228 -10.60803,5.68462 -12.70485,6.29957 -25.93397,10.32245 -40.15178,12.20989 -5.07052,0.67313 -19.47354,0.84631 -23.38571,0.28119 l 0,0 z"
       id="path3965"
       inkscape:connector-curvature="0" />
    <path
       style="fill:#e2e2e2;fill-opacity:1;stroke:#e2e2e2;stroke-width:4.30581951;stroke-linecap:butt;stroke-linejoin:round;stroke-miterlimit:4;stroke-dasharray:none;stroke-opacity:1"
       d="m 477.66359,514.59225 c -17.30158,-9.54545 -25.94568,-15.43316 -40.27513,-27.43246 -14.04744,-11.76313 -45.24655,-43.85473 -60.57576,-62.30859 -0.78897,-0.94979 -0.76028,-2.87934 0.18067,-12.15198 2.93442,-28.91747 8.83253,-42.92422 27.75835,-65.92006 l 5.55519,-6.74984 24.30396,0.43809 c 23.36512,0.42117 43.71742,1.51761 60.85804,3.27863 l 8.08373,0.83052 -0.65351,2.16272 c -0.90087,2.9813 -0.87127,15.24817 0.0478,19.79107 0.41617,2.05721 0.75667,5.58812 0.75667,7.84647 0,6.90266 -2.71981,10.27349 -8.3137,10.3037 -6.81366,0.0368 -12.98379,2.61231 -14.56331,6.07897 -2.46168,5.40279 1.29599,9.88269 8.27554,9.8661 5.23672,-0.0124 15.87029,-2.28936 20.31725,-4.35044 6.88978,-3.19328 12.8888,-9.86424 15.75169,-17.51602 0.74498,-1.99112 1.71053,-6.2425 2.14567,-9.44749 0.89443,-6.58791 2.80561,-11.8436 6.17265,-16.97464 l 2.30264,-3.50899 7.04454,1.25512 c 3.8745,0.69032 7.28421,1.33369 7.57713,1.42972 0.29292,0.096 -2.14976,3.74902 -5.42819,8.11774 -14.82733,19.7584 -25.7972,39.01648 -33.83894,59.40569 -6.83619,17.33264 -11.10082,33.37423 -15.41451,57.9823 -5.8075,33.12982 -7.46248,42.03662 -7.89215,42.47414 -0.25009,0.25466 -4.82942,-1.95056 -10.17629,-4.90047 z"
       id="path3967"
       inkscape:connector-curvature="0" />
    <path
       style="fill:#e2e2e2;fill-opacity:1;stroke:#e2e2e2;stroke-width:4.30581951;stroke-linecap:butt;stroke-linejoin:round;stroke-miterlimit:4;stroke-dasharray:none;stroke-opacity:1"
       d="m 268.30235,448.58696 c -18.14761,-8.8986 -29.48343,-14.83419 -29.4379,-15.41407 0.054,-0.68822 68.10011,-186.1986 68.6655,-187.19908 0.22352,-0.39553 58.99372,21.23668 59.15019,21.77207 0.29797,1.01952 -67.46248,194.91945 -68.18763,195.12236 -0.37301,0.10437 -13.95859,-6.3222 -30.19016,-14.28128 z"
       id="path3969"
       inkscape:connector-curvature="0" />
    <path
       style="fill:#9a9a9a;fill-opacity:1;stroke:#9a9a9a;stroke-width:4.30581951;stroke-linecap:butt;stroke-linejoin:round;stroke-miterlimit:4;stroke-dasharray:none;stroke-opacity:1"
       d="m 379.6875,273.03125 c -0.19988,0.19988 6.30463,12.86459 25.15625,48.96875 l 5.875,11.28125 15.9375,0 15.9375,0 -10.53125,-21.09375 -10.5625,-21.125 -20.78125,-9.125 c -11.4363,-5.01942 -20.9079,-9.0296 -21.03125,-8.90625 z m -7.84375,2.125 c -0.15648,0.45986 -7.41902,21.28019 -16.125,46.28125 -8.70598,25.00105 -15.72864,45.58387 -15.59375,45.71875 0.13489,0.13489 8.49821,2.37051 18.5625,4.96875 10.06429,2.59825 18.3223,4.6701 18.375,4.625 0.0527,-0.045 1.83509,-3.45657 3.96875,-7.59375 4.47848,-8.68381 9.43351,-15.98418 17.53125,-25.875 l 5.75,-7 -16.09375,-30.96875 c -8.85007,-17.03996 -16.21852,-30.6161 -16.375,-30.15625 z M 432.3125,296.125 c -0.11761,0.1113 4.03934,8.67791 9.21875,19.03125 l 9.40625,18.8125 4.15625,0 c 2.29015,0 4.15625,-0.06 4.15625,-0.15625 0,-1.26567 -4.90036,-27.90036 -5.1875,-28.1875 -0.60144,-0.60143 -21.50505,-9.7318 -21.75,-9.5 z m -94.25,78.09375 C 337.51806,374.23797 309.1814,453.9155 308,458.75 c -0.1867,0.76399 58.65317,-34.10801 60.53125,-35.875 0.31339,-0.29485 1.01651,-5.03947 1.5625,-10.53125 1.05812,-10.64281 2.42966,-19.57704 3.9375,-25.3125 l 0.9375,-3.5 -18.09375,-4.6875 c -9.95206,-2.56346 -18.41579,-4.639 -18.8125,-4.625 z M 371.25,429.8125 c -0.37069,0 -55.75908,33.25711 -56.625,34 -0.29988,0.25725 1.10648,0.35999 3.125,0.21875 4.70318,-0.32911 78.22431,-4.375 79.5,-4.375 0.52786,0 -5.02942,-6.72623 -12.34375,-14.9375 C 377.59191,436.50748 371.43357,429.8125 371.25,429.8125 Z"
       id="path3971"
       inkscape:connector-curvature="0" />
  </g>
  <g
     inkscape:groupmode="layer"
     id="layer1"
     inkscape:label="Bomb lines (unbroken)"
     style="display:none">
    <path
       style="fill:none;stroke:#000000;stroke-width:4.42913389;stroke-linecap:butt;stroke-linejoin:miter;stroke-miterlimit:4;stroke-dasharray:none;stroke-opacity:1"
       d="m 233.96822,435.65229 71.5653,-194.31883 66.0414,23.93694 -70.70603,203.15708 z"
       inkscape:connector-curvature="0"
       sodipodi:nodetypes="ccccc"
       id="path20" />
    <path
       style="fill:none;stroke:#000000;stroke-width:4.42913389;stroke-linecap:butt;stroke-linejoin:miter;stroke-miterlimit:4;stroke-dasharray:none;stroke-opacity:1"
       d="M 379.18564,381.02697 334.74886,369.48814"
       id="path3772"
       inkscape:connector-curvature="0" />
    <path
       style="fill:none;stroke:#000000;stroke-width:4.42913389;stroke-linecap:butt;stroke-linejoin:miter;stroke-miterlimit:4;stroke-dasharray:none;stroke-opacity:1"
       d="m 371.57492,425.341 -70.95154,42.71822"
       id="path3774"
       inkscape:connector-curvature="0" />
    <path
       style="fill:none;stroke:#000000;stroke-width:4.42913389;stroke-linecap:butt;stroke-linejoin:miter;stroke-miterlimit:4;stroke-dasharray:none;stroke-opacity:1"
       d="m 405.12875,462.62211 -103.17794,6.67428"
       id="path3776"
       inkscape:connector-curvature="0"
       sodipodi:nodetypes="cc" />
    <path
       style="fill:none;stroke:#000000;stroke-width:4.42913389;stroke-linecap:butt;stroke-linejoin:miter;stroke-miterlimit:4;stroke-dasharray:none;stroke-opacity:1"
       d="M 408.6352,336.91995 371.32941,265.2704"
       id="path3778"
       inkscape:connector-curvature="0"
       sodipodi:nodetypes="cc" />
    <path
       style="fill:none;stroke:#000000;stroke-width:4.42913389;stroke-linecap:butt;stroke-linejoin:miter;stroke-miterlimit:4;stroke-dasharray:none;stroke-opacity:1"
       d="M 448.21524,336.67444 424.00301,288.1868"
       id="path3782"
       inkscape:connector-curvature="0"
       sodipodi:nodetypes="cc" />
    <path
       style="fill:none;stroke:#000000;stroke-width:4.42913389;stroke-linecap:butt;stroke-linejoin:miter;stroke-miterlimit:4;stroke-dasharray:none;stroke-opacity:1"
       d="M 463.51731,337.94049 457.45154,303.0487 373.44112,265.93501"
       id="path3784"
       inkscape:connector-curvature="0"
       sodipodi:nodetypes="ccc" />
    <path
       style="fill:none;stroke:#000000;stroke-width:4.42913389;stroke-linecap:butt;stroke-linejoin:miter;stroke-miterlimit:4;stroke-dasharray:none;stroke-opacity:1"
       d="m 680.16362,448.00695 c -28.72104,-72.68222 -106.07243,-97.0683 -122.90858,-98.95183 -48.14222,-9.15305 -97.68153,-13.18344 -148.60135,-12.15198 -37.89298,41.27668 -32.73336,62.68293 -36.45593,88.18865 64.06723,74.92759 89.48786,85.12213 117.70059,99.99343 31.60663,14.62138 93.1093,49.90535 161.10052,4.86079 25.21122,-17.80662 50.04472,-37.01998 29.16475,-81.93906 z"
       inkscape:connector-curvature="0"
       sodipodi:nodetypes="ccccccc"
       id="path3801" />
    <path
       style="fill:none;stroke:#000000;stroke-width:4.42913389;stroke-linecap:butt;stroke-linejoin:miter;stroke-miterlimit:4;stroke-dasharray:none;stroke-opacity:1"
       d="m 557.94943,348.70792 c -58.82846,70.91784 -55.38502,121.07839 -67.35668,176.3773"
       id="path3803"
       inkscape:connector-curvature="0"
       sodipodi:nodetypes="cc" />
    <path
       style="fill:none;stroke:#000000;stroke-width:4.42913389;stroke-linecap:butt;stroke-linejoin:miter;stroke-miterlimit:4;stroke-dasharray:none;stroke-opacity:1"
       d="m 680.16362,448.70135 c -11.82508,17.54 -21.84739,46.49758 -30.90074,81.59186"
       id="path3805"
       inkscape:connector-curvature="0"
       sodipodi:nodetypes="cc" />
  </g>
  <g
     inkscape:label="Bomb lines"
     id="g3821"
     inkscape:groupmode="layer"
     style="display:inline">
    <g
       id="g3852">
      <path
         style="fill:none;stroke:#000000;stroke-width:6.20078754;stroke-linecap:butt;stroke-linejoin:round;stroke-miterlimit:4;stroke-dasharray:none;stroke-opacity:1"
         d="m 233.96822,435.65229 71.5653,-194.31883 66.0414,23.93694 -70.70603,203.15708 z"
         inkscape:connector-curvature="0"
         id="path3002"
         sodipodi:nodetypes="ccccc" />
      <path
         style="fill:none;stroke:#000000;stroke-width:6.20078754;stroke-linecap:butt;stroke-linejoin:miter;stroke-miterlimit:4;stroke-dasharray:none;stroke-opacity:1"
         d="M 379.18564,381.02697 334.74886,369.48814"
         id="path3824"
         inkscape:connector-curvature="0" />
      <path
         style="fill:none;stroke:#000000;stroke-width:6.20078754;stroke-linecap:butt;stroke-linejoin:miter;stroke-miterlimit:4;stroke-dasharray:none;stroke-opacity:1"
         d="m 371.57492,425.341 -70.95154,42.71822"
         id="path3826"
         inkscape:connector-curvature="0" />
      <path
         style="fill:none;stroke:#000000;stroke-width:6.20078754;stroke-linecap:butt;stroke-linejoin:miter;stroke-miterlimit:4;stroke-dasharray:none;stroke-opacity:1"
         d="m 405.12875,462.62211 -104.28362,5.8141"
         id="path3828"
         inkscape:connector-curvature="0"
         sodipodi:nodetypes="cc" />
      <path
         style="fill:none;stroke:#000000;stroke-width:6.20078754;stroke-linecap:butt;stroke-linejoin:miter;stroke-miterlimit:4;stroke-dasharray:none;stroke-opacity:1"
         d="M 408.6352,336.91995 371.32941,265.2704"
         id="path3830"
         inkscape:connector-curvature="0"
         sodipodi:nodetypes="cc" />
      <path
         style="fill:none;stroke:#000000;stroke-width:6.20078754;stroke-linecap:butt;stroke-linejoin:miter;stroke-miterlimit:4;stroke-dasharray:none;stroke-opacity:1"
         d="M 448.21524,336.67444 424.00301,288.1868"
         id="path3832"
         inkscape:connector-curvature="0"
         sodipodi:nodetypes="cc" />
      <path
         style="fill:none;stroke:#000000;stroke-width:6.20078754;stroke-linecap:butt;stroke-linejoin:round;stroke-miterlimit:4;stroke-dasharray:none;stroke-opacity:1"
         d="M 463.51731,337.94049 457.45154,303.0487 370.85585,264.98894"
         id="path3834"
         inkscape:connector-curvature="0"
         sodipodi:nodetypes="ccc" />
      <path
         style="fill:none;stroke:#000000;stroke-width:6.20078754;stroke-linecap:butt;stroke-linejoin:miter;stroke-miterlimit:4;stroke-dasharray:none;stroke-opacity:1"
         d="m 508.24692,341.56057 c -32.58595,-3.79571 -65.78531,-5.34226 -99.59323,-4.65743 -37.89298,41.27668 -32.73336,62.68293 -36.45593,88.18865 64.06723,74.92759 89.48786,85.12213 117.70059,99.99343 31.60663,14.62138 93.1093,49.90535 161.10052,4.86079 25.21122,-17.80662 50.04472,-37.01998 29.16475,-81.93906 -28.72104,-72.68222 -106.07243,-97.0683 -122.90858,-98.95183 -7.61614,-1.44802 -15.26725,-2.76783 -22.95326,-3.95968"
         inkscape:connector-curvature="0"
         sodipodi:nodetypes="cccccccc"
         id="path3836" />
      <path
         style="fill:none;stroke:#000000;stroke-width:6.20078754;stroke-linecap:butt;stroke-linejoin:miter;stroke-miterlimit:4;stroke-dasharray:none;stroke-opacity:1"
         d="m 557.94943,348.70792 c -58.82846,70.91784 -55.38502,121.07839 -67.35668,176.3773"
         id="path3838"
         inkscape:connector-curvature="0"
         sodipodi:nodetypes="cc" />
      <path
         style="fill:none;stroke:#000000;stroke-width:6.20078754;stroke-linecap:butt;stroke-linejoin:miter;stroke-miterlimit:4;stroke-dasharray:none;stroke-opacity:1"
         d="m 680.16362,448.70135 c -11.82508,17.54 -21.84739,46.49758 -30.90074,81.59186"
         id="path3840"
         inkscape:connector-curvature="0"
         sodipodi:nodetypes="cc" />
    </g>
  </g>
  <g
     inkscape:groupmode="layer"
     id="layer6"
     inkscape:label="Raptor lines"
     style="display:inline">
    <path
       style="fill:#000000;fill-opacity:1;fill-rule:nonzero;stroke:none"
       clip-path="none"
       d="M 461.52148 191.44531 C 452.75377 191.61117 436.69416 190.21794 434.80664 201.11914 C 437.42541 210.87136 447.31982 215.04841 454.5293 221.49219 C 454.53924 221.53311 454.54419 221.56775 454.55469 221.60938 C 454.76069 221.75727 454.96887 221.92269 455.17773 222.0918 C 456.0624 222.92037 456.90956 223.78148 457.67969 224.70508 C 457.87958 224.96163 458.09836 225.17151 458.32227 225.36328 C 460.98992 228.82466 463.07036 233.5539 462.50781 237.94727 C 458.03229 258.77412 460.66075 280.14719 463.49023 301.00195 C 464.68404 314.84573 475.28113 325.52866 487.78711 330.30469 C 492.44331 333.4884 501.05023 335.82167 506.99219 336.35547 C 502.12609 345.68438 501.00065 356.85991 503.49219 367.18359 C 504.32562 372.87845 505.78907 382.33903 498.93359 384.70898 C 491.65365 385.09827 480.30373 385.30097 480.19727 395.125 C 484.04713 404.3644 496.16123 399.32111 503.46094 398.0332 C 516.79774 395.13423 525.95583 382.70162 527.00195 369.41406 C 527.35664 360.2024 532.07491 352.55991 537.89258 345.82812 C 539.60085 346.26169 541.61141 346.47857 543.42773 346.57617 C 563.21288 350.41821 582.4677 336.34294 601.95898 343.63086 C 624.59263 350.37265 642.39346 366.32346 660.05273 381.19336 C 670.12579 388.08699 675.80591 398.858 683.07617 408.13086 C 688.24599 415.16742 706.06433 419.56252 704.50195 406.07031 C 696.35286 379.57316 674.01385 360.98635 652.05078 345.6543 C 632.69275 329.72195 608.69189 321.63457 587.30664 309.06445 C 568.33565 299.37279 551.22686 285.54131 530.14844 280.5625 C 526.21339 278.97116 522.07439 277.6277 517.92969 276.25586 C 519.30533 270.64787 519.85857 264.71667 520.23438 259.28516 C 519.89286 249.88188 519.63487 238.2754 526.70312 231.26758 C 528.08253 234.96626 530.28105 237.19917 533.42578 232.98242 C 533.44352 232.98326 533.45675 232.98753 533.47461 232.98828 C 538.13304 230.10612 540.70613 222.70212 539.66992 217.39844 C 539.62004 210.87917 532.99578 204.89075 526.24805 205.08789 C 520.28238 202.09498 524.25923 218.11052 524.88477 221.75391 C 524.91174 222.69568 525.03833 224.01627 525.26367 225.46094 C 519.07444 227.96616 516.13928 233.6892 514.4668 240.19727 C 512.16035 251.29444 514.51761 262.9483 511.375 274.00586 C 504.04202 271.34061 497.02065 268.08336 491.45117 262.57031 C 485.27258 253.45495 492.00139 242.34894 497.84766 234.91406 C 504.14653 228.46066 507.81352 218.32557 501.58789 210.52148 C 492.27968 198.41599 476.64242 191.79297 461.52148 191.44531 z M 453.86719 197.96094 C 455.48009 197.984 456.93103 198.05487 457.96484 198.09375 C 471.91206 197.99432 486.54361 203.03636 495.61719 213.92969 C 500.62714 219.49564 496.6113 226.23747 492.37109 230.75977 C 484.52463 240.28332 477.93751 254.53232 485.44141 266.12305 C 491.84267 273.42426 500.52391 277.3905 509.56445 280.63281 C 506.3478 287.80934 498.8179 292.5429 490.91797 293.37109 C 480.03002 298.15886 498.66213 301.24337 502.95312 296.90234 C 509.40565 293.92754 513.34499 288.79116 515.82812 282.78516 C 519.95302 284.16378 524.06028 285.51948 527.97461 287.08398 C 545.48837 290.91568 559.83205 301.9533 575.34961 310.22656 C 593.92233 321.8359 614.47695 329.70791 633.25977 340.88672 C 657.2557 357.66061 683.97144 374.46043 695.99023 402.4375 C 699.98407 408.9822 697.40834 409.67052 691.73047 406.10938 C 682.5447 400.47767 680.39948 388.56317 671.61914 382.28125 C 653.24169 366.75879 635.50982 349.27557 612.72461 340.34961 C 598.96227 333.25454 582.95713 333.41908 568.39844 337.79102 C 560.3553 340.42965 551.96121 340.47585 543.66797 339.67578 C 544.04521 339.29709 544.41983 338.90678 544.79688 338.5332 C 563.61433 322.37556 539.61596 328.82171 531.69531 342.64062 C 523.24315 350.78016 520.87446 362.40609 519.17773 373.5 C 517.34014 384.49644 507.08798 392.16672 496.58398 393.93945 C 489.40061 395.2445 486.56418 394.31594 487.39844 394.04883 C 491.13087 389.55243 500.66026 392.92756 505.36523 387.02734 C 514.86061 377.03761 508.35228 364.56168 509.15625 352.73047 C 509.48274 346.55534 511.84601 341.2118 515.16406 336.37695 L 515.23438 336.83008 C 515.25958 336.61321 515.27211 336.40986 515.2832 336.20703 C 519.23874 330.4966 524.51728 325.49508 529.38281 320.70508 C 537.82501 309.53785 518.19981 319.82425 513.92188 326.89648 C 512.77436 328.03179 511.71728 329.23398 510.74023 330.48828 C 507.34163 329.64559 502.84281 329.95728 500.12109 328.63281 C 489.15428 325.95769 477.71486 319.82702 472.80859 308.90039 C 467.88768 293.92403 467.87604 277.78725 466.88477 262.17969 C 465.7984 249.31691 473.92105 238.57844 465.74414 226.80469 C 465.26963 224.6574 463.10966 221.95589 460.78906 220.00391 C 453.84458 212.46692 440.8489 204.33358 441.89258 201.27344 C 442.73565 198.26138 449.02849 197.89174 453.86719 197.96094 z M 525.41211 212.11523 C 525.39649 212.15143 525.35939 212.16935 525.26367 212.14258 C 525.3167 212.12863 525.3602 212.12759 525.41211 212.11523 z "
       id="path3433" />
  </g>
</svg>
