<?xml version="1.0" encoding="UTF-8" standalone="no"?>
<!-- Created with Inkscape (http://www.inkscape.org/) -->

<svg
   xmlns:dc="http://purl.org/dc/elements/1.1/"
   xmlns:cc="http://creativecommons.org/ns#"
   xmlns:rdf="http://www.w3.org/1999/02/22-rdf-syntax-ns#"
   xmlns:svg="http://www.w3.org/2000/svg"
   xmlns="http://www.w3.org/2000/svg"
   xmlns:sodipodi="http://sodipodi.sourceforge.net/DTD/sodipodi-0.dtd"
   xmlns:inkscape="http://www.inkscape.org/namespaces/inkscape"
   width="6in"
   height="5in"
   id="svg2985"
   version="1.1"
   inkscape:version="0.91 r13725"
   sodipodi:docname="vad2000.svg"
   style="display:inline">
  <title
     id="title3241">VAD 2000</title>
  <defs
     id="defs2987" />
  <sodipodi:namedview
     inkscape:document-units="in"
     pagecolor="#ffffff"
     bordercolor="#666666"
     borderopacity="1.0"
     inkscape:pageopacity="0"
     inkscape:pageshadow="2"
     inkscape:zoom="1.4142136"
     inkscape:cx="264.44906"
     inkscape:cy="238.33504"
     inkscape:current-layer="layer1"
     id="namedview2989"
     showgrid="false"
     showguides="true"
     inkscape:guide-bbox="true"
     inkscape:window-width="1366"
     inkscape:window-height="744"
     inkscape:window-x="0"
     inkscape:window-y="24"
     inkscape:window-maximized="1"
     fit-margin-top="0"
     fit-margin-left="0"
     fit-margin-right="0"
     fit-margin-bottom="0"
     units="in" />
  <metadata
     id="metadata2991">
    <rdf:RDF>
      <cc:Work
         rdf:about="">
        <dc:format>image/svg+xml</dc:format>
        <dc:type
           rdf:resource="http://purl.org/dc/dcmitype/StillImage" />
        <dc:title>VAD 2000</dc:title>
        <cc:license
           rdf:resource="http://creativecommons.org/licenses/by-sa/3.0/" />
        <dc:creator>
          <cc:Agent>
            <dc:title>Ryan Finnie</dc:title>
          </cc:Agent>
        </dc:creator>
      </cc:Work>
      <cc:License
         rdf:about="http://creativecommons.org/licenses/by-sa/3.0/">
        <cc:permits
           rdf:resource="http://creativecommons.org/ns#Reproduction" />
        <cc:permits
           rdf:resource="http://creativecommons.org/ns#Distribution" />
        <cc:requires
           rdf:resource="http://creativecommons.org/ns#Notice" />
        <cc:requires
           rdf:resource="http://creativecommons.org/ns#Attribution" />
        <cc:permits
           rdf:resource="http://creativecommons.org/ns#DerivativeWorks" />
        <cc:requires
           rdf:resource="http://creativecommons.org/ns#ShareAlike" />
      </cc:License>
    </rdf:RDF>
  </metadata>
  <g
     inkscape:groupmode="layer"
     id="layer1"
     inkscape:label="Regular"
     style="display:inline">
    <g
       inkscape:groupmode="layer"
       id="layer2"
       inkscape:label="Bomb fills"
       style="display:inline"
       transform="translate(-211.61809,-124.00455)">
      <g
         id="g3445">
        <path
           inkscape:connector-curvature="0"
           id="path3963"
           d="m 668.83087,498.34225 c 0,-0.13397 0.29221,-1.14953 0.64935,-2.2568 0.35713,-1.10727 2.23935,-7.39205 4.1827,-13.96619 4.5154,-15.27511 10.09695,-30.17008 15.41431,-41.13482 3.11586,-6.42508 4.34742,-8.37038 4.79402,-7.57235 0.33055,0.59065 1.39375,4.12508 2.36268,7.85429 4.17378,16.06399 1.2394,29.39718 -9.17637,41.69547 -4.73132,5.58644 -18.22669,16.97437 -18.22669,15.3804 z"
           style="fill:#e2e2e2;fill-opacity:1;stroke:#e2e2e2;stroke-width:4.30581951;stroke-linecap:butt;stroke-linejoin:round;stroke-miterlimit:4;stroke-dasharray:none;stroke-opacity:1" />
        <path
           inkscape:connector-curvature="0"
           id="path3965"
           d="m 584.11422,524.53308 c -0.9548,-0.13792 -4.54831,-0.60129 -7.98559,-1.02971 -13.42594,-1.67342 -30.87885,-6.96825 -47.91351,-14.53593 -16.0371,-7.1245 -19.79037,-9.01704 -19.79037,-9.979 0,-0.51927 0.63532,-4.02521 1.41182,-7.79096 0.7765,-3.76575 2.03285,-10.75282 2.79189,-15.52682 8.16132,-51.33117 16.06505,-77.34281 32.07128,-105.54861 9.85365,-17.36386 26.49208,-40.27513 29.24826,-40.27513 5.05828,0 22.27256,6.06603 35.51178,12.51376 34.70131,16.90015 61.05907,42.12776 76.41392,73.13745 l 4.41692,8.92015 -1.68532,2.66971 c -8.05231,12.75569 -17.37765,36.91776 -25.31002,65.57854 -2.68119,9.6875 -3.80864,12.75287 -5.03554,13.69085 -0.86946,0.66472 -5.64308,3.2228 -10.60803,5.68462 -12.70485,6.29957 -25.93397,10.32245 -40.15178,12.20989 -5.07052,0.67313 -19.47354,0.84631 -23.38571,0.28119 l 0,0 z"
           style="fill:#e2e2e2;fill-opacity:1;stroke:#e2e2e2;stroke-width:4.30581951;stroke-linecap:butt;stroke-linejoin:round;stroke-miterlimit:4;stroke-dasharray:none;stroke-opacity:1" />
        <path
           style="fill:#e2e2e2;fill-opacity:1;stroke:#e2e2e2;stroke-width:4.30581951;stroke-linecap:butt;stroke-linejoin:round;stroke-miterlimit:4;stroke-dasharray:none;stroke-opacity:1"
           d="m 212.4375,192.45703 -5.55469,6.74805 c -18.92582,22.99584 -24.82534,37.0044 -27.75976,65.92187 -0.94095,9.27264 -0.96866,11.2006 -0.17969,12.15039 15.32921,18.45386 46.52873,50.54547 60.57617,62.3086 14.32945,11.9993 22.97186,17.88814 40.27344,27.43359 5.34687,2.94991 9.92764,5.15505 10.17773,4.90039 0.42967,-0.43752 2.08508,-9.34479 7.89258,-42.47461 4.31369,-24.60807 8.57787,-40.64978 15.41406,-57.98242 8.04174,-20.38921 19.01056,-39.64785 33.83789,-59.40625 3.27843,-4.36872 5.72261,-8.02119 5.42969,-8.11719 -0.29292,-0.096 -3.70362,-0.73936 -7.57812,-1.42968 l -7.04492,-1.25586 -32.23829,-4.25 -8.08398,-0.83203 c -17.14062,-1.76103 -37.49426,-2.85618 -60.85938,-3.27735 l -24.30273,-0.4375 z"
           transform="translate(211.61809,124.00455)"
           id="path3967"
           inkscape:connector-curvature="0" />
      </g>
      <path
         style="fill:#e2e2e2;fill-opacity:1;stroke:#e2e2e2;stroke-width:4.30581951;stroke-linecap:butt;stroke-linejoin:round;stroke-miterlimit:4;stroke-dasharray:none;stroke-opacity:1"
         d="m 282.05074,425.01828 c -18.14761,-8.8986 -29.48343,-14.83419 -29.4379,-15.41407 0.054,-0.68822 68.10011,-186.1986 68.6655,-187.19908 0.22352,-0.39553 58.99372,21.23668 59.15019,21.77207 0.29797,1.01952 -67.46248,194.91945 -68.18763,195.12236 -0.37301,0.10437 -13.95859,-6.3222 -30.19016,-14.28128 z"
         id="path3969"
         inkscape:connector-curvature="0" />
      <path
         style="fill:#9a9a9a;fill-opacity:1;stroke:#9a9a9a;stroke-width:4.30581951;stroke-linecap:butt;stroke-linejoin:round;stroke-miterlimit:4;stroke-dasharray:none;stroke-opacity:1"
         d="m 393.43589,249.46257 c -0.19988,0.19988 6.30463,12.86459 25.15625,48.96875 l 5.875,11.28125 15.9375,0 15.9375,0 -10.53125,-21.09375 -10.5625,-21.125 -20.78125,-9.125 c -11.4363,-5.01942 -20.9079,-9.0296 -21.03125,-8.90625 z m -7.84375,2.125 c -0.15648,0.45986 -7.41902,21.28019 -16.125,46.28125 -8.70598,25.00105 -15.72864,45.58387 -15.59375,45.71875 0.13489,0.13489 8.49821,2.37051 18.5625,4.96875 10.06429,2.59825 18.3223,4.6701 18.375,4.625 0.0527,-0.045 1.83509,-3.45657 3.96875,-7.59375 4.47848,-8.68381 9.43351,-15.98418 17.53125,-25.875 l 5.75,-7 -16.09375,-30.96875 c -8.85007,-17.03996 -16.21852,-30.6161 -16.375,-30.15625 z m 60.46875,20.96875 c -0.11761,0.1113 4.03934,8.67791 9.21875,19.03125 l 9.40625,18.8125 4.15625,0 c 2.29015,0 4.15625,-0.06 4.15625,-0.15625 0,-1.26567 -4.90036,-27.90036 -5.1875,-28.1875 -0.60144,-0.60143 -21.50505,-9.7318 -21.75,-9.5 z m -94.25,78.09375 c -0.54444,0.0192 -28.8811,79.69675 -30.0625,84.53125 -0.1867,0.76399 58.65317,-34.10801 60.53125,-35.875 0.31339,-0.29485 1.01651,-5.03947 1.5625,-10.53125 1.05812,-10.64281 2.42966,-19.57704 3.9375,-25.3125 l 0.9375,-3.5 -18.09375,-4.6875 c -9.95206,-2.56346 -18.41579,-4.639 -18.8125,-4.625 z m 33.1875,55.59375 c -0.37069,0 -55.75908,33.25711 -56.625,34 -0.29988,0.25725 1.10648,0.35999 3.125,0.21875 4.70318,-0.32911 78.22431,-4.375 79.5,-4.375 0.52786,0 -5.02942,-6.72623 -12.34375,-14.9375 -7.31434,-8.21127 -13.47268,-14.90625 -13.65625,-14.90625 z"
         id="path3971"
         inkscape:connector-curvature="0" />
    </g>
    <g
       inkscape:label="Bomb lines"
       id="g3821"
       inkscape:groupmode="layer"
       style="display:inline"
       transform="translate(-211.61809,-124.00455)">
      <g
         id="g3852"
         transform="translate(13.748394,-23.568676)">
        <path
           style="fill:none;stroke:#000000;stroke-width:6.20078754;stroke-linecap:butt;stroke-linejoin:round;stroke-miterlimit:4;stroke-dasharray:none;stroke-opacity:1"
           d="m 233.96822,435.65229 71.5653,-194.31883 66.0414,23.93694 -70.70603,203.15708 z"
           inkscape:connector-curvature="0"
           id="path3002"
           sodipodi:nodetypes="ccccc" />
        <path
           style="fill:none;stroke:#000000;stroke-width:6.20078754;stroke-linecap:butt;stroke-linejoin:miter;stroke-miterlimit:4;stroke-dasharray:none;stroke-opacity:1"
           d="M 379.18564,381.02697 334.74886,369.48814"
           id="path3824"
           inkscape:connector-curvature="0" />
        <path
           style="fill:none;stroke:#000000;stroke-width:6.20078754;stroke-linecap:butt;stroke-linejoin:miter;stroke-miterlimit:4;stroke-dasharray:none;stroke-opacity:1"
           d="m 371.57492,425.341 -70.95154,42.71822"
           id="path3826"
           inkscape:connector-curvature="0" />
        <path
           style="fill:none;stroke:#000000;stroke-width:6.20078754;stroke-linecap:butt;stroke-linejoin:miter;stroke-miterlimit:4;stroke-dasharray:none;stroke-opacity:1"
           d="m 405.12875,462.62211 -104.28362,5.8141"
           id="path3828"
           inkscape:connector-curvature="0"
           sodipodi:nodetypes="cc" />
        <path
           style="fill:none;stroke:#000000;stroke-width:6.20078754;stroke-linecap:butt;stroke-linejoin:miter;stroke-miterlimit:4;stroke-dasharray:none;stroke-opacity:1"
           d="M 408.6352,336.91995 371.32941,265.2704"
           id="path3830"
           inkscape:connector-curvature="0"
           sodipodi:nodetypes="cc" />
        <path
           style="fill:none;stroke:#000000;stroke-width:6.20078754;stroke-linecap:butt;stroke-linejoin:miter;stroke-miterlimit:4;stroke-dasharray:none;stroke-opacity:1"
           d="M 448.21524,336.67444 424.00301,288.1868"
           id="path3832"
           inkscape:connector-curvature="0"
           sodipodi:nodetypes="cc" />
        <path
           style="fill:none;stroke:#000000;stroke-width:6.20078754;stroke-linecap:butt;stroke-linejoin:round;stroke-miterlimit:4;stroke-dasharray:none;stroke-opacity:1"
           d="M 463.51731,337.94049 457.45154,303.0487 370.85585,264.98894"
           id="path3834"
           inkscape:connector-curvature="0"
           sodipodi:nodetypes="ccc" />
        <path
           style="fill:none;stroke:#000000;stroke-width:6.20078754;stroke-linecap:butt;stroke-linejoin:miter;stroke-miterlimit:4;stroke-dasharray:none;stroke-opacity:1"
           d="m 408.65369,336.90314 c -37.89298,41.27668 -32.73336,62.68293 -36.45593,88.18865 64.06723,74.92759 89.48786,85.12213 117.70059,99.99343 31.60663,14.62138 93.1093,49.90535 161.10052,4.86079 25.21122,-17.80662 50.04472,-37.01998 29.16475,-81.93906 C 651.44258,375.32473 574.09119,350.93865 557.25504,349.05512 509.1366,339.78023 452.8959,336.11789 408.65369,336.90314 Z"
           inkscape:connector-curvature="0"
           sodipodi:nodetypes="ccccccc"
           id="path3836" />
        <path
           style="fill:none;stroke:#000000;stroke-width:6.20078754;stroke-linecap:butt;stroke-linejoin:miter;stroke-miterlimit:4;stroke-dasharray:none;stroke-opacity:1"
           d="m 557.94943,348.70792 c -58.82846,70.91784 -55.38502,121.07839 -67.35668,176.3773"
           id="path3838"
           inkscape:connector-curvature="0"
           sodipodi:nodetypes="cc" />
        <path
           style="fill:none;stroke:#000000;stroke-width:6.20078754;stroke-linecap:butt;stroke-linejoin:miter;stroke-miterlimit:4;stroke-dasharray:none;stroke-opacity:1"
           d="m 680.16362,448.70135 c -11.82508,17.54 -21.84739,46.49758 -30.90074,81.59186"
           id="path3840"
           inkscape:connector-curvature="0"
           sodipodi:nodetypes="cc" />
      </g>
    </g>
    <g
       inkscape:groupmode="layer"
       id="layer5"
       inkscape:label="Raptor fills"
       style="display:inline">
      <path
         style="opacity:1;fill:#90ab99;fill-opacity:1;stroke:#90ab99;stroke-width:7.19999981;stroke-miterlimit:4;stroke-dasharray:none;stroke-opacity:1"
         d="m 495.69091,260.33067 c -2.61057,-1.3703 -5.66799,-4.7345 -12.25076,-13.48001 -15.75758,-20.93469 -42.33141,-42.34262 -66.105,-53.25433 -11.0977,-5.09368 -16.3328,-6.25942 -27.89424,-6.21143 -8.57487,0.0356 -12.36251,0.61019 -21.5,3.26166 -3.01324,0.87436 -5.50217,1.13523 -12.66822,1.32777 l -8.91821,0.23963 3.24568,-3.32654 c 3.92181,-4.01952 5.30863,-6.53317 4.21037,-7.63143 -0.60147,-0.60147 -1.10646,-0.6301 -2.84689,-0.16145 -6.08755,1.6392 -16.07858,10.15301 -21.21587,18.07898 -5.11379,7.88972 -7.2921,14.00194 -8.50648,23.86877 -0.89558,7.27653 -2.57007,10.77909 -7.26797,15.20256 -3.92197,3.69287 -8.13012,6.03821 -13.12544,7.31527 -4.98967,1.27562 -10.18499,1.80422 -10.63152,1.08173 -0.49646,-0.8033 2.24726,-1.82758 7.50047,-2.80008 5.78467,-1.07088 8.034,-2.09239 10.40649,-4.726 4.64103,-5.15182 5.49343,-10.1156 4.0383,-23.51617 -0.77944,-7.17797 -0.82891,-9.05499 -0.31731,-12.03843 1.30195,-7.59238 4.75462,-14.01433 11.80676,-21.96051 2.0745,-2.3375 5.12587,-5.77453 6.78083,-7.63784 5.17606,-5.82771 3.73118,-7.51118 -3.4537,-4.024 -3.08339,1.49652 -4.80064,2.85065 -9.23951,7.28576 l -5.45221,5.44759 -4.79779,-0.80911 c -9.80655,-1.6538 -18.54804,-5.50085 -24.0284,-10.5747 -9.61125,-8.89832 -12.7914,-20.44333 -13.82457,-50.1877 -0.27563,-7.93551 -0.16199,-10.49344 0.7997,-18 2.5882,-20.202312 0.30384,-25.566709 -16.74451,-39.321416 -6.35283,-5.125497 -9.36558,-8.358723 -9.15673,-9.826837 0.40033,-2.814222 8.14107,-3.964868 19.36394,-2.878414 12.19571,1.180632 21.29804,4.686783 29.06239,11.194623 5.12057,4.291903 6.69873,6.64845 6.67999,9.974705 -0.0184,3.274468 -1.06244,5.32382 -5.66841,11.127167 -4.20173,5.294015 -8.1338,12.982544 -9.24589,18.078872 -2.79486,12.80782 2.5451,21.03354 18.44856,28.41839 2.48388,1.1534 5.36192,2.37076 6.39564,2.70525 l 1.87948,0.60817 -0.87948,1.53181 c -1.6836,2.93231 -5.51179,6.66206 -7.95564,7.75105 -1.33312,0.59405 -4.18579,1.58098 -6.33928,2.19319 -6.08779,1.73069 -7.92839,3.87644 -4.98109,5.80691 1.06205,0.69564 2.38779,0.88424 6.15708,0.87591 4.44229,-0.01 5.06444,-0.13877 8.27152,-1.7144 4.09024,-2.00952 7.67045,-5.48625 10.33423,-10.03552 1.02647,-1.75304 1.93811,-3.40274 2.02587,-3.66601 0.41643,-1.24928 25.80336,8.18274 34.21612,12.71234 2.53456,1.36466 10.52206,5.92757 17.75,10.13979 17.99189,10.48514 21.72911,12.50495 40.3917,21.83003 19.99462,9.99066 22.24441,11.25813 32.25,18.16878 28.44435,19.64592 39.37526,29.67318 50.23816,46.08502 5.42283,8.19289 7.12126,11.66692 6.91528,14.14475 -0.12892,1.5509 -0.35317,1.8672 -1.40344,1.97952 -0.6875,0.0735 -1.925,-0.22062 -2.75,-0.65367 z"
         id="path4677"
         inkscape:connector-curvature="0" />
    </g>
    <g
       inkscape:groupmode="layer"
       id="layer6"
       inkscape:label="Raptor lines"
       style="display:inline"
       transform="translate(-211.61809,-124.00455)">
      <path
         style="fill:#000000;fill-opacity:1;fill-rule:nonzero;stroke:none"
         clip-path="none"
         d="m 455.53782,169.73805 c -11.67242,5.97551 -6.82226,12.31325 0.68195,18.8119 4.20978,3.67192 9.17933,6.70711 12.70636,9.97317 4.08191,3.9737 7.93012,10.17495 7.33008,15.85547 -3.72552,28.45185 -1.22206,42.69992 1.60742,63.17968 3.17201,20.74859 22.13923,31.65436 42.87696,35.22852 -4.8661,9.32891 -5.99154,20.50444 -3.5,30.82812 2.3191,11.19305 0.22567,15.90196 -4.40775,17.40459 -4.65389,1.50928 -11.86347,-0.20226 -16.642,4.48901 -2.68838,3.65139 -3.06259,7.05578 0.59837,9.78134 5.25536,3.7949 14.44864,0.22824 20.42013,-0.82533 13.3368,-2.89897 22.49489,-15.33158 23.54101,-28.61914 0.35469,-9.21166 5.07296,-16.85415 10.89063,-23.58594 12.78358,2.87815 24.43021,0.72822 35.30654,-2.17947 10.51787,-2.1113 20.35981,-2.82992 28.75986,-0.0178 36.05408,13.96614 59.81091,36.9764 81.11719,64.5 5.16982,7.03656 22.98816,11.43166 21.42578,-2.06055 -1.04023,-6.60597 -4.57,-11.92288 -7.82699,-17.2986 -10.71587,-17.68667 -27.78058,-31.35918 -44.62418,-43.11741 -19.35803,-15.93235 -43.35889,-24.01973 -64.74414,-36.58985 -14.58501,-8.4096 -27.11142,-16.43338 -40.01572,-22.37173 -9.41132,-4.33094 -19.16729,-7.06422 -29.36123,-10.43686 1.37564,-5.60799 1.92888,-11.53919 2.30469,-16.9707 -0.34152,-9.40328 -0.59951,-21.00976 6.46874,-28.01758 1.37941,3.69868 4.26987,5.72448 6.83433,0.2773 10.04459,-3.13154 8.02982,-25.07256 -4.67959,-26.60517 -10.09244,-8.51435 -4.72778,15.25253 -3.70226,20.568 -6.18923,2.50522 -9.01635,8.18159 -10.68883,14.68966 -2.30645,11.09717 0.0508,22.75103 -3.0918,33.80859 -7.33298,-2.66525 -14.35435,-5.9225 -19.92383,-11.43555 -6.17859,-9.11536 0.55022,-20.22137 6.39649,-27.65625 6.29887,-6.4534 9.96586,-16.58849 3.74023,-24.39258 -9.30821,-12.10549 -26.66904,-18.99368 -40.41465,-19.02739 -7.20488,-0.0337 -13.44821,-0.4499 -19.38379,1.81251 z m 53.82776,20.62296 c 5.00995,5.56595 0.99411,12.30778 -3.2461,16.83008 -7.84646,9.52355 -14.43358,23.77255 -6.92968,35.36328 6.40126,7.30121 15.0825,11.26745 24.12304,14.50976 -2.27061,4.85969 -5.30077,8.78202 -11.0232,10.70372 -19.94406,4.11582 -7.66665,9.6181 2.4384,6.70643 7.81904,-2.63147 12.1469,-8.9673 14.84847,-15.2578 9.96804,2.53446 16.67216,5.3269 29.38424,10.51973 10.88773,5.30322 20.74419,11.84468 30.13725,16.92167 18.57272,11.60934 39.12734,19.48135 57.91016,30.66016 20.74398,14.50068 43.88879,29.02073 57.4459,50.76443 16.15103,22.5968 2.83686,20.89328 -5.3797,8.65014 -4.04887,-4.92577 -7.3553,-10.46322 -11.84147,-15.27745 -17.95074,-18.63175 -39.47181,-35.68165 -60.75989,-44.67423 -13.94647,-6.60406 -29.76748,-6.93053 -44.32617,-2.55859 -8.04314,2.63863 -16.43723,2.68483 -24.73047,1.88476 22.79208,-20.17369 -8.02816,-11.09385 -19.50054,13.6842 -3.85882,7.46309 -4.76224,15.0869 -4.9897,20.14002 -1.83759,10.99644 -12.08975,18.66672 -22.59375,20.43945 -12.25738,2.4931 -11.80846,-1.06921 -2.27111,-2.63292 3.94783,-0.63836 8.62776,-1.23864 11.05236,-4.27919 9.49538,-9.98973 2.98705,-22.46566 3.79102,-34.29687 0.77721,-7.69087 4.14508,-13.98302 8.48359,-19.52788 3.55921,-4.54888 6.91239,-8.10381 11.12916,-12.49751 6.73064,-7.60197 -1.30144,-5.00914 -7.98181,-0.43463 -4.55881,3.35332 -8.51201,8.25658 -10.047,10.21783 -45.56493,-4.87935 -41.89156,-36.3884 -43.85546,-68.30859 0.69346,-17.18855 7.27465,-29.33492 -6.09571,-42.17578 -7.02744,-8.62441 -32.89066,-21.3772 -8.53475,-22.06602 7.50689,0.15604 15.5211,0.46603 22.72103,2.74494 8.45685,2.67675 15.8369,7.72036 20.64189,13.24686 z"
         id="path3433"
         inkscape:connector-curvature="0"
         sodipodi:nodetypes="cccccccccccccccccccccccccccccccccccccccccccccccccccccccccccccccccc" />
    </g>
  </g>
  <g
     inkscape:groupmode="layer"
     id="layer3"
     inkscape:label="Dark"
     style="display:none">
    <g
       inkscape:groupmode="layer"
       id="layer7"
       inkscape:label="Dark test background"
       style="display:none">
      <rect
         style="opacity:1;fill:#000000;fill-opacity:1;stroke:#b0b0b0;stroke-opacity:1"
         id="rect3451"
         width="540"
         height="450"
         x="0"
         y="0" />
    </g>
    <g
       transform="translate(-211.61809,-124.00455)"
       style="display:inline"
       inkscape:label="Bomb fills (dark)"
       id="g3485"
       inkscape:groupmode="layer">
      <g
         id="g3487"
         style="fill:#a9a9a9;fill-opacity:1;stroke:#a9a9a9;stroke-opacity:1">
        <path
           style="fill:#a9a9a9;fill-opacity:1;stroke:#a9a9a9;stroke-width:4.30581951;stroke-linecap:butt;stroke-linejoin:round;stroke-miterlimit:4;stroke-dasharray:none;stroke-opacity:1"
           d="m 668.83087,498.34225 c 0,-0.13397 0.29221,-1.14953 0.64935,-2.2568 0.35713,-1.10727 2.23935,-7.39205 4.1827,-13.96619 4.5154,-15.27511 10.09695,-30.17008 15.41431,-41.13482 3.11586,-6.42508 4.34742,-8.37038 4.79402,-7.57235 0.33055,0.59065 1.39375,4.12508 2.36268,7.85429 4.17378,16.06399 1.2394,29.39718 -9.17637,41.69547 -4.73132,5.58644 -18.22669,16.97437 -18.22669,15.3804 z"
           id="path3489"
           inkscape:connector-curvature="0" />
        <path
           style="fill:#a9a9a9;fill-opacity:1;stroke:#a9a9a9;stroke-width:4.30581951;stroke-linecap:butt;stroke-linejoin:round;stroke-miterlimit:4;stroke-dasharray:none;stroke-opacity:1"
           d="m 584.11422,524.53308 c -0.9548,-0.13792 -4.54831,-0.60129 -7.98559,-1.02971 -13.42594,-1.67342 -30.87885,-6.96825 -47.91351,-14.53593 -16.0371,-7.1245 -19.79037,-9.01704 -19.79037,-9.979 0,-0.51927 0.63532,-4.02521 1.41182,-7.79096 0.7765,-3.76575 2.03285,-10.75282 2.79189,-15.52682 8.16132,-51.33117 16.06505,-77.34281 32.07128,-105.54861 9.85365,-17.36386 26.49208,-40.27513 29.24826,-40.27513 5.05828,0 22.27256,6.06603 35.51178,12.51376 34.70131,16.90015 61.05907,42.12776 76.41392,73.13745 l 4.41692,8.92015 -1.68532,2.66971 c -8.05231,12.75569 -17.37765,36.91776 -25.31002,65.57854 -2.68119,9.6875 -3.80864,12.75287 -5.03554,13.69085 -0.86946,0.66472 -5.64308,3.2228 -10.60803,5.68462 -12.70485,6.29957 -25.93397,10.32245 -40.15178,12.20989 -5.07052,0.67313 -19.47354,0.84631 -23.38571,0.28119 l 0,0 z"
           id="path3491"
           inkscape:connector-curvature="0" />
        <path
           style="fill:#a9a9a9;fill-opacity:1;stroke:#a9a9a9;stroke-width:4.30581951;stroke-linecap:butt;stroke-linejoin:round;stroke-miterlimit:4;stroke-dasharray:none;stroke-opacity:1"
           d="m 212.4375,192.45703 -5.55469,6.74805 c -18.92582,22.99584 -24.82534,37.0044 -27.75976,65.92187 -0.94095,9.27264 -0.96866,11.2006 -0.17969,12.15039 15.32921,18.45386 46.52873,50.54547 60.57617,62.3086 14.32945,11.9993 22.97186,17.88814 40.27344,27.43359 5.34687,2.94991 9.92764,5.15505 10.17773,4.90039 0.42967,-0.43752 2.08508,-9.34479 7.89258,-42.47461 4.31369,-24.60807 8.57787,-40.64978 15.41406,-57.98242 8.04174,-20.38921 19.01056,-39.64785 33.83789,-59.40625 3.27843,-4.36872 5.72261,-8.02119 5.42969,-8.11719 -0.29292,-0.096 -3.70362,-0.73936 -7.57812,-1.42968 l -7.04492,-1.25586 -32.23829,-4.25 -8.08398,-0.83203 c -17.14062,-1.76103 -37.49426,-2.85618 -60.85938,-3.27735 l -24.30273,-0.4375 z"
           transform="translate(211.61809,124.00455)"
           id="path3493"
           inkscape:connector-curvature="0" />
      </g>
      <path
         inkscape:connector-curvature="0"
         id="path3495"
         d="m 282.05074,425.01828 c -18.14761,-8.8986 -29.48343,-14.83419 -29.4379,-15.41407 0.054,-0.68822 68.10011,-186.1986 68.6655,-187.19908 0.22352,-0.39553 58.99372,21.23668 59.15019,21.77207 0.29797,1.01952 -67.46248,194.91945 -68.18763,195.12236 -0.37301,0.10437 -13.95859,-6.3222 -30.19016,-14.28128 z"
         style="fill:#a9a9a9;fill-opacity:1;stroke:#a9a9a9;stroke-width:4.30581951;stroke-linecap:butt;stroke-linejoin:round;stroke-miterlimit:4;stroke-dasharray:none;stroke-opacity:1" />
      <path
         inkscape:connector-curvature="0"
         id="path3497"
         d="m 393.43589,249.46257 c -0.19988,0.19988 6.30463,12.86459 25.15625,48.96875 l 5.875,11.28125 15.9375,0 15.9375,0 -10.53125,-21.09375 -10.5625,-21.125 -20.78125,-9.125 c -11.4363,-5.01942 -20.9079,-9.0296 -21.03125,-8.90625 z m -7.84375,2.125 c -0.15648,0.45986 -7.41902,21.28019 -16.125,46.28125 -8.70598,25.00105 -15.72864,45.58387 -15.59375,45.71875 0.13489,0.13489 8.49821,2.37051 18.5625,4.96875 10.06429,2.59825 18.3223,4.6701 18.375,4.625 0.0527,-0.045 1.83509,-3.45657 3.96875,-7.59375 4.47848,-8.68381 9.43351,-15.98418 17.53125,-25.875 l 5.75,-7 -16.09375,-30.96875 c -8.85007,-17.03996 -16.21852,-30.6161 -16.375,-30.15625 z m 60.46875,20.96875 c -0.11761,0.1113 4.03934,8.67791 9.21875,19.03125 l 9.40625,18.8125 4.15625,0 c 2.29015,0 4.15625,-0.06 4.15625,-0.15625 0,-1.26567 -4.90036,-27.90036 -5.1875,-28.1875 -0.60144,-0.60143 -21.50505,-9.7318 -21.75,-9.5 z m -94.25,78.09375 c -0.54444,0.0192 -28.8811,79.69675 -30.0625,84.53125 -0.1867,0.76399 58.65317,-34.10801 60.53125,-35.875 0.31339,-0.29485 1.01651,-5.03947 1.5625,-10.53125 1.05812,-10.64281 2.42966,-19.57704 3.9375,-25.3125 l 0.9375,-3.5 -18.09375,-4.6875 c -9.95206,-2.56346 -18.41579,-4.639 -18.8125,-4.625 z m 33.1875,55.59375 c -0.37069,0 -55.75908,33.25711 -56.625,34 -0.29988,0.25725 1.10648,0.35999 3.125,0.21875 4.70318,-0.32911 78.22431,-4.375 79.5,-4.375 0.52786,0 -5.02942,-6.72623 -12.34375,-14.9375 -7.31434,-8.21127 -13.47268,-14.90625 -13.65625,-14.90625 z"
         style="fill:#686868;fill-opacity:1;stroke:#686868;stroke-width:4.30581951;stroke-linecap:butt;stroke-linejoin:round;stroke-miterlimit:4;stroke-dasharray:none;stroke-opacity:1" />
    </g>
    <g
       transform="translate(-211.61809,-124.00455)"
       style="display:inline"
       inkscape:groupmode="layer"
       id="g3457"
       inkscape:label="Bomb lines (dark)">
      <g
         transform="translate(13.748394,-23.568676)"
         id="g3459"
         style="stroke:#ffffff">
        <path
           sodipodi:nodetypes="ccccc"
           id="path3461"
           inkscape:connector-curvature="0"
           d="m 233.96822,435.65229 71.5653,-194.31883 66.0414,23.93694 -70.70603,203.15708 z"
           style="fill:none;stroke:#ffffff;stroke-width:6.20078754;stroke-linecap:butt;stroke-linejoin:round;stroke-miterlimit:4;stroke-dasharray:none;stroke-opacity:1" />
        <path
           inkscape:connector-curvature="0"
           id="path3463"
           d="M 379.18564,381.02697 334.74886,369.48814"
           style="fill:none;stroke:#ffffff;stroke-width:6.20078754;stroke-linecap:butt;stroke-linejoin:miter;stroke-miterlimit:4;stroke-dasharray:none;stroke-opacity:1" />
        <path
           inkscape:connector-curvature="0"
           id="path3465"
           d="m 371.57492,425.341 -70.95154,42.71822"
           style="fill:none;stroke:#ffffff;stroke-width:6.20078754;stroke-linecap:butt;stroke-linejoin:miter;stroke-miterlimit:4;stroke-dasharray:none;stroke-opacity:1" />
        <path
           sodipodi:nodetypes="cc"
           inkscape:connector-curvature="0"
           id="path3467"
           d="m 405.12875,462.62211 -104.28362,5.8141"
           style="fill:none;stroke:#ffffff;stroke-width:6.20078754;stroke-linecap:butt;stroke-linejoin:miter;stroke-miterlimit:4;stroke-dasharray:none;stroke-opacity:1" />
        <path
           sodipodi:nodetypes="cc"
           inkscape:connector-curvature="0"
           id="path3469"
           d="M 408.6352,336.91995 371.32941,265.2704"
           style="fill:none;stroke:#ffffff;stroke-width:6.20078754;stroke-linecap:butt;stroke-linejoin:miter;stroke-miterlimit:4;stroke-dasharray:none;stroke-opacity:1" />
        <path
           sodipodi:nodetypes="cc"
           inkscape:connector-curvature="0"
           id="path3471"
           d="M 448.21524,336.67444 424.00301,288.1868"
           style="fill:none;stroke:#ffffff;stroke-width:6.20078754;stroke-linecap:butt;stroke-linejoin:miter;stroke-miterlimit:4;stroke-dasharray:none;stroke-opacity:1" />
        <path
           sodipodi:nodetypes="ccc"
           inkscape:connector-curvature="0"
           id="path3473"
           d="M 463.51731,337.94049 457.45154,303.0487 370.85585,264.98894"
           style="fill:none;stroke:#ffffff;stroke-width:6.20078754;stroke-linecap:butt;stroke-linejoin:round;stroke-miterlimit:4;stroke-dasharray:none;stroke-opacity:1" />
        <path
           id="path3475"
           sodipodi:nodetypes="ccccccc"
           inkscape:connector-curvature="0"
           d="m 408.65369,336.90314 c -37.89298,41.27668 -32.73336,62.68293 -36.45593,88.18865 64.06723,74.92759 89.48786,85.12213 117.70059,99.99343 31.60663,14.62138 93.1093,49.90535 161.10052,4.86079 25.21122,-17.80662 50.04472,-37.01998 29.16475,-81.93906 C 651.44258,375.32473 574.09119,350.93865 557.25504,349.05512 509.1366,339.78023 452.8959,336.11789 408.65369,336.90314 Z"
           style="fill:none;stroke:#ffffff;stroke-width:6.20078754;stroke-linecap:butt;stroke-linejoin:miter;stroke-miterlimit:4;stroke-dasharray:none;stroke-opacity:1" />
        <path
           sodipodi:nodetypes="cc"
           inkscape:connector-curvature="0"
           id="path3477"
           d="m 557.94943,348.70792 c -58.82846,70.91784 -55.38502,121.07839 -67.35668,176.3773"
           style="fill:none;stroke:#ffffff;stroke-width:6.20078754;stroke-linecap:butt;stroke-linejoin:miter;stroke-miterlimit:4;stroke-dasharray:none;stroke-opacity:1" />
        <path
           sodipodi:nodetypes="cc"
           inkscape:connector-curvature="0"
           id="path3479"
           d="m 680.16362,448.70135 c -11.82508,17.54 -21.84739,46.49758 -30.90074,81.59186"
           style="fill:none;stroke:#ffffff;stroke-width:6.20078754;stroke-linecap:butt;stroke-linejoin:miter;stroke-miterlimit:4;stroke-dasharray:none;stroke-opacity:1" />
      </g>
    </g>
    <g
       style="display:inline"
       inkscape:label="Raptor fills (dark)"
       id="g3372"
       inkscape:groupmode="layer">
      <path
         style="display:inline;opacity:1;fill:#5e7a67;fill-opacity:1;stroke:#5e7a67;stroke-width:7.19999981;stroke-miterlimit:4;stroke-dasharray:none;stroke-opacity:1"
         d="m 495.69091,260.33067 c -2.61057,-1.3703 -5.66799,-4.7345 -12.25076,-13.48001 -15.75758,-20.93469 -42.33141,-42.34262 -66.105,-53.25433 -11.0977,-5.09368 -16.3328,-6.25942 -27.89424,-6.21143 -8.57487,0.0356 -12.36251,0.61019 -21.5,3.26166 -3.01324,0.87436 -5.50217,1.13523 -12.66822,1.32777 l -8.91821,0.23963 3.24568,-3.32654 c 3.92181,-4.01952 5.30863,-6.53317 4.21037,-7.63143 -0.60147,-0.60147 -1.10646,-0.6301 -2.84689,-0.16145 -6.08755,1.6392 -16.07858,10.15301 -21.21587,18.07898 -5.11379,7.88972 -7.2921,14.00194 -8.50648,23.86877 -0.89558,7.27653 -2.57007,10.77909 -7.26797,15.20256 -3.92197,3.69287 -8.13012,6.03821 -13.12544,7.31527 -4.98967,1.27562 -10.18499,1.80422 -10.63152,1.08173 -0.49646,-0.8033 2.24726,-1.82758 7.50047,-2.80008 5.78467,-1.07088 8.034,-2.09239 10.40649,-4.726 4.64103,-5.15182 5.49343,-10.1156 4.0383,-23.51617 -0.77944,-7.17797 -0.82891,-9.05499 -0.31731,-12.03843 1.30195,-7.59238 4.75462,-14.01433 11.80676,-21.96051 2.0745,-2.3375 5.12587,-5.77453 6.78083,-7.63784 5.17606,-5.82771 3.73118,-7.51118 -3.4537,-4.024 -3.08339,1.49652 -4.80064,2.85065 -9.23951,7.28576 l -5.45221,5.44759 -4.79779,-0.80911 c -9.80655,-1.6538 -18.54804,-5.50085 -24.0284,-10.5747 -9.61125,-8.89832 -12.7914,-20.44333 -13.82457,-50.1877 -0.27563,-7.93551 -0.16199,-10.49344 0.7997,-18 2.5882,-20.202314 0.30384,-25.566711 -16.74451,-39.321418 -6.35283,-5.125497 -9.36558,-8.358723 -9.15673,-9.826837 0.40033,-2.814222 8.14107,-3.964868 19.36394,-2.878414 12.19571,1.180632 21.29804,4.686783 29.06239,11.194623 5.12057,4.291903 6.69873,6.64845 6.67999,9.974705 -0.0184,3.274468 -1.06244,5.32382 -5.66841,11.127167 -4.20173,5.294015 -8.1338,12.982544 -9.24589,18.078874 -2.79486,12.80782 2.5451,21.03354 18.44856,28.41839 2.48388,1.1534 5.36192,2.37076 6.39564,2.70525 l 1.87948,0.60817 -0.87948,1.53181 c -1.6836,2.93231 -5.51179,6.66206 -7.95564,7.75105 -1.33312,0.59405 -4.18579,1.58098 -6.33928,2.19319 -6.08779,1.73069 -7.92839,3.87644 -4.98109,5.80691 1.06205,0.69564 2.38779,0.88424 6.15708,0.87591 4.44229,-0.01 5.06444,-0.13877 8.27152,-1.7144 4.09024,-2.00952 7.67045,-5.48625 10.33423,-10.03552 1.02647,-1.75304 1.93811,-3.40274 2.02587,-3.66601 0.41643,-1.24928 25.80336,8.18274 34.21612,12.71234 2.53456,1.36466 10.52206,5.92757 17.75,10.13979 17.99189,10.48514 21.72911,12.50495 40.3917,21.83003 19.99462,9.99066 22.24441,11.25813 32.25,18.16878 28.44435,19.64592 39.37526,29.67318 50.23816,46.08502 5.42283,8.19289 7.12126,11.66692 6.91528,14.14475 -0.12892,1.5509 -0.35317,1.8672 -1.40344,1.97952 -0.6875,0.0735 -1.925,-0.22062 -2.75,-0.65367 z"
         id="path4677-5"
         inkscape:connector-curvature="0" />
    </g>
    <g
       transform="translate(-211.61809,-124.00455)"
       style="display:inline"
       inkscape:label="Raptor lines (dark)"
       id="g3453"
       inkscape:groupmode="layer">
      <path
         style="display:inline;fill:#ffffff;fill-opacity:1;fill-rule:nonzero;stroke:none"
         clip-path="none"
         d="m 455.53782,169.73805 c -11.67242,5.97551 -6.82226,12.31325 0.68195,18.8119 4.20978,3.67192 9.17933,6.70711 12.70636,9.97317 4.08191,3.9737 7.93012,10.17495 7.33008,15.85547 -3.72552,28.45185 -1.22206,42.69992 1.60742,63.17968 3.17201,20.74859 22.13923,31.65436 42.87696,35.22852 -4.8661,9.32891 -5.99154,20.50444 -3.5,30.82812 2.3191,11.19305 0.22567,15.90196 -4.40775,17.40459 -4.65389,1.50928 -11.86346,-0.20226 -16.64199,4.48901 -2.68839,3.65139 -3.06259,7.05578 0.59837,9.78134 5.25535,3.7949 14.44864,0.22824 20.42012,-0.82533 13.3368,-2.89897 22.49489,-15.33158 23.54102,-28.61914 0.35469,-9.21166 5.07295,-16.85415 10.89062,-23.58594 12.78358,2.87815 24.43021,0.72822 35.30654,-2.17947 10.51787,-2.1113 20.35981,-2.82992 28.75986,-0.0178 36.05408,13.96614 59.81091,36.9764 81.11719,64.5 5.16982,7.03656 22.98816,11.43166 21.42578,-2.06055 -1.04023,-6.60597 -4.57,-11.92288 -7.82699,-17.2986 -10.71587,-17.68667 -27.78058,-31.35918 -44.62418,-43.11741 -19.35803,-15.93235 -43.35889,-24.01973 -64.74414,-36.58985 -14.58501,-8.4096 -27.11142,-16.43338 -40.01572,-22.37173 -9.41132,-4.33094 -19.16728,-7.06422 -29.36122,-10.43686 1.37564,-5.60799 1.92888,-11.53919 2.30468,-16.9707 -0.34151,-9.40328 -0.5995,-21.00976 6.46874,-28.01758 1.37942,3.69868 4.26987,5.72448 6.83434,0.2773 10.04458,-3.13154 8.02981,-25.07256 -4.6796,-26.60517 -10.09244,-8.51435 -4.72777,15.25253 -3.70226,20.568 -6.18923,2.50522 -9.01635,8.18159 -10.68883,14.68966 -2.30645,11.09717 0.0508,22.75103 -3.0918,33.80859 -7.33298,-2.66525 -14.35435,-5.9225 -19.92383,-11.43555 -6.17858,-9.11536 0.55023,-20.22137 6.39649,-27.65625 6.29887,-6.4534 9.96586,-16.58849 3.74023,-24.39258 -9.30821,-12.10549 -26.66904,-18.99368 -40.41465,-19.02739 -7.20488,-0.0337 -13.44821,-0.4499 -19.38379,1.81251 z m 53.82776,20.62296 c 5.00996,5.56595 0.99411,12.30778 -3.2461,16.83008 -7.84645,9.52355 -14.43358,23.77255 -6.92968,35.36328 6.40127,7.30121 15.08251,11.26745 24.12304,14.50976 -2.27061,4.85969 -5.30077,8.78202 -11.0232,10.70372 -19.94406,4.11582 -7.66665,9.6181 2.4384,6.70643 7.81904,-2.63147 12.1469,-8.9673 14.84848,-15.2578 9.96803,2.53446 16.67215,5.3269 29.38423,10.51973 10.88773,5.30322 20.74419,11.84468 30.13725,16.92167 18.57272,11.60934 39.12734,19.48135 57.91016,30.66016 20.74398,14.50068 43.88879,29.02073 57.4459,50.76443 16.15103,22.5968 2.83686,20.89328 -5.3797,8.65014 -4.04887,-4.92577 -7.3553,-10.46322 -11.84147,-15.27745 -17.95074,-18.63175 -39.47181,-35.68165 -60.75989,-44.67423 -13.94647,-6.60406 -29.76748,-6.93053 -44.32617,-2.55859 -8.04314,2.63863 -16.43723,2.68483 -24.73047,1.88476 22.79208,-20.17369 -8.02816,-11.09385 -19.50053,13.6842 -3.85882,7.46309 -4.76224,15.0869 -4.9897,20.14002 -1.83759,10.99644 -12.08975,18.66672 -22.59375,20.43945 -12.25739,2.4931 -11.80846,-1.06921 -2.27111,-2.63292 3.94783,-0.63836 8.62776,-1.23864 11.05236,-4.27919 9.49538,-9.98973 2.98705,-22.46566 3.79102,-34.29687 0.77721,-7.69087 4.14508,-13.98302 8.48359,-19.52788 3.55921,-4.54888 6.91239,-8.10381 11.12916,-12.49751 6.73063,-7.60197 -1.30144,-5.00914 -7.98181,-0.43463 -4.55881,3.35332 -8.51201,8.25658 -10.047,10.21783 -45.56493,-4.87935 -41.89156,-36.3884 -43.85546,-68.30859 0.69346,-17.18855 7.27465,-29.33492 -6.09571,-42.17578 -7.02744,-8.62441 -32.89067,-21.3772 -8.53475,-22.06602 7.50689,0.15604 15.5211,0.46603 22.72103,2.74494 8.45685,2.67675 15.8369,7.72036 20.64189,13.24686 z"
         id="path3433-7"
         inkscape:connector-curvature="0"
         sodipodi:nodetypes="cccccccccccccccccccccccccccccccccccccccccccccccccccccccccccccccccc" />
    </g>
  </g>
</svg>
