<?xml version="1.0" encoding="UTF-8" standalone="no"?>
<!-- Created with Inkscape (http://www.inkscape.org/) -->

<svg
   xmlns:dc="http://purl.org/dc/elements/1.1/"
   xmlns:cc="http://creativecommons.org/ns#"
   xmlns:rdf="http://www.w3.org/1999/02/22-rdf-syntax-ns#"
   xmlns:svg="http://www.w3.org/2000/svg"
   xmlns="http://www.w3.org/2000/svg"
   xmlns:sodipodi="http://sodipodi.sourceforge.net/DTD/sodipodi-0.dtd"
   xmlns:inkscape="http://www.inkscape.org/namespaces/inkscape"
   width="6in"
   height="5in"
   id="svg2985"
   version="1.1"
   inkscape:version="0.91 r13725"
   sodipodi:docname="vad2000.svg"
   style="display:inline">
  <title
     id="title3241">VAD 2000</title>
  <defs
     id="defs2987" />
  <sodipodi:namedview
     inkscape:document-units="in"
     pagecolor="#ffffff"
     bordercolor="#666666"
     borderopacity="1.0"
     inkscape:pageopacity="0"
     inkscape:pageshadow="2"
     inkscape:zoom="1"
     inkscape:cx="247.73234"
     inkscape:cy="201.25169"
     inkscape:current-layer="layer6"
     id="namedview2989"
     showgrid="false"
     showguides="true"
     inkscape:guide-bbox="true"
     inkscape:window-width="1366"
     inkscape:window-height="744"
     inkscape:window-x="0"
     inkscape:window-y="24"
     inkscape:window-maximized="1"
     fit-margin-top="0"
     fit-margin-left="0"
     fit-margin-right="0"
     fit-margin-bottom="0"
     units="in" />
  <metadata
     id="metadata2991">
    <rdf:RDF>
      <cc:Work
         rdf:about="">
        <dc:format>image/svg+xml</dc:format>
        <dc:type
           rdf:resource="http://purl.org/dc/dcmitype/StillImage" />
        <dc:title>VAD 2000</dc:title>
        <cc:license
           rdf:resource="http://creativecommons.org/licenses/by-sa/3.0/" />
        <dc:creator>
          <cc:Agent>
            <dc:title>Ryan Finnie</dc:title>
          </cc:Agent>
        </dc:creator>
      </cc:Work>
      <cc:License
         rdf:about="http://creativecommons.org/licenses/by-sa/3.0/">
        <cc:permits
           rdf:resource="http://creativecommons.org/ns#Reproduction" />
        <cc:permits
           rdf:resource="http://creativecommons.org/ns#Distribution" />
        <cc:requires
           rdf:resource="http://creativecommons.org/ns#Notice" />
        <cc:requires
           rdf:resource="http://creativecommons.org/ns#Attribution" />
        <cc:permits
           rdf:resource="http://creativecommons.org/ns#DerivativeWorks" />
        <cc:requires
           rdf:resource="http://creativecommons.org/ns#ShareAlike" />
      </cc:License>
    </rdf:RDF>
  </metadata>
  <g
     inkscape:groupmode="layer"
     id="layer2"
     inkscape:label="Bomb fills"
     style="display:inline"
     transform="translate(-211.61809,-124.00455)">
    <g
       id="g3445">
      <path
         inkscape:connector-curvature="0"
         id="path3963"
         d="m 696.23393,441.26638 c 4.17378,16.06399 1.2394,29.39718 -9.17637,41.69547 -11.38244,11.65394 -25.77536,22.29723 -39.40585,29.08015 -12.70485,6.29957 -25.93397,10.32245 -40.15178,12.20989 -5.07052,0.67313 -19.47354,0.84631 -23.38571,0.28119 l 0,0 c -0.9548,-0.13792 -4.54831,-0.60129 -7.98559,-1.02971 -13.42594,-1.67342 -30.87885,-6.96825 -47.91351,-14.53593 -12.09404,-6.48152 -26.03467,-12.02607 -36.80406,-17.94336 -17.30158,-9.54545 -25.94399,-15.43429 -40.27344,-27.43359 -14.04744,-11.76313 -45.24696,-43.85474 -60.57617,-62.3086 -0.78897,-0.94979 -0.76126,-2.87775 0.17969,-12.15039 2.93442,-28.91747 8.83394,-42.92603 27.75976,-65.92187 l 5.55469,-6.74805 24.30273,0.4375 c 23.36512,0.42117 43.71876,1.51632 60.85938,3.27735 22.07006,2.18072 44.95988,5.84359 64.7303,9.67049 5.05828,0 22.27256,6.06603 35.51178,12.51376 34.70131,16.90015 61.88477,41.73242 76.41392,73.13745 4.04565,8.22955 8.21622,17.56876 10.36023,25.76825 z"
         style="fill:#e2e2e2;fill-opacity:1;stroke:#e2e2e2;stroke-width:4.30581951;stroke-linecap:butt;stroke-linejoin:round;stroke-miterlimit:4;stroke-dasharray:none;stroke-opacity:1"
         sodipodi:nodetypes="cccsccsccssscccccscc" />
    </g>
    <path
       style="fill:#e2e2e2;fill-opacity:1;stroke:#e2e2e2;stroke-width:4.30581951;stroke-linecap:butt;stroke-linejoin:round;stroke-miterlimit:4;stroke-dasharray:none;stroke-opacity:1"
       d="m 255.86284,413.10421 c 4.8774,-13.79822 59.92009,-175.16675 63.4155,-185.94908 10.39301,2.56878 49.9344,12.90718 61.65019,16.27207 -5.09844,14.33885 -63.50332,184.18659 -67.93763,197.87236 -18.19276,-8.72104 -43.07627,-20.47997 -57.12806,-28.19535 z"
       id="path3969"
       inkscape:connector-curvature="0"
       sodipodi:nodetypes="ccccc" />
    <path
       style="fill:#9a9a9a;fill-opacity:1;stroke:#9a9a9a;stroke-width:4.30581951;stroke-linecap:butt;stroke-linejoin:round;stroke-miterlimit:4;stroke-dasharray:none;stroke-opacity:1"
       d="m 413.14483,436.63046 c -8.12707,-10.45635 -19.39631,-22.5539 -29.78615,-33.86795 1.53609,-41.00895 12.67915,-62.04629 37.4786,-92.28738 18.17171,0.63585 37.07065,0.52353 53.08794,0.7258 -1.76777,-7.98319 -4.12004,-23.02383 -5.29106,-29.1446 -20.29548,-10.12262 -71.33714,-32.27904 -81.35754,-36.03647 -24.53138,70.27965 -47.15248,130.68683 -67.85477,194.66758 6.27565,0.37113 63.8661,-2.81903 93.72298,-4.05698 z"
       id="path3971"
       inkscape:connector-curvature="0"
       sodipodi:nodetypes="cccccccc" />
  </g>
  <g
     inkscape:label="Bomb lines"
     id="g3821"
     inkscape:groupmode="layer"
     style="display:inline;opacity:1"
     transform="translate(-211.61809,-124.00455)">
    <g
       id="g3852"
       transform="translate(13.748394,-23.568676)">
      <path
         style="fill:none;stroke:#000000;stroke-width:6.20078754;stroke-linecap:butt;stroke-linejoin:round;stroke-miterlimit:4;stroke-dasharray:none;stroke-opacity:1"
         d="m 237.96822,438.65229 66.0653,-191.31883 67.5414,17.93694 -70.70603,203.15708 z"
         inkscape:connector-curvature="0"
         id="path3002"
         sodipodi:nodetypes="ccccc" />
      <path
         style="fill:none;stroke:#000000;stroke-width:6.20078754;stroke-linecap:butt;stroke-linejoin:miter;stroke-miterlimit:4;stroke-dasharray:none;stroke-opacity:1"
         d="M 379.18564,381.02697 334.74886,369.48814"
         id="path3824"
         inkscape:connector-curvature="0" />
      <path
         style="fill:none;stroke:#000000;stroke-width:6.20078754;stroke-linecap:butt;stroke-linejoin:miter;stroke-miterlimit:4;stroke-dasharray:none;stroke-opacity:1"
         d="m 371.57492,425.341 -70.95154,42.71822"
         id="path3826"
         inkscape:connector-curvature="0" />
      <path
         style="fill:none;stroke:#000000;stroke-width:6.20078754;stroke-linecap:butt;stroke-linejoin:miter;stroke-miterlimit:4;stroke-dasharray:none;stroke-opacity:1"
         d="m 405.12875,462.62211 -104.28362,5.8141"
         id="path3828"
         inkscape:connector-curvature="0"
         sodipodi:nodetypes="cc" />
      <path
         style="fill:none;stroke:#000000;stroke-width:6.20078754;stroke-linecap:butt;stroke-linejoin:miter;stroke-miterlimit:4;stroke-dasharray:none;stroke-opacity:1"
         d="M 408.6352,336.91995 371.32941,265.2704"
         id="path3830"
         inkscape:connector-curvature="0"
         sodipodi:nodetypes="cc" />
      <path
         style="fill:none;stroke:#000000;stroke-width:6.20078754;stroke-linecap:butt;stroke-linejoin:miter;stroke-miterlimit:4;stroke-dasharray:none;stroke-opacity:1"
         d="M 448.21524,336.67444 424.00301,288.1868"
         id="path3832"
         inkscape:connector-curvature="0"
         sodipodi:nodetypes="cc" />
      <path
         style="fill:none;stroke:#000000;stroke-width:6.20078754;stroke-linecap:butt;stroke-linejoin:round;stroke-miterlimit:4;stroke-dasharray:none;stroke-opacity:1"
         d="M 463.51731,337.94049 457.45154,303.0487 370.85585,264.98894"
         id="path3834"
         inkscape:connector-curvature="0"
         sodipodi:nodetypes="ccc" />
      <path
         style="fill:none;stroke:#000000;stroke-width:6.20078754;stroke-linecap:butt;stroke-linejoin:miter;stroke-miterlimit:4;stroke-dasharray:none;stroke-opacity:1"
         d="m 408.65369,336.90314 c -37.89298,41.27668 -32.73336,62.68293 -36.45593,88.18865 64.06723,74.92759 89.09601,85.89054 117.70059,99.99343 31.23482,15.39967 93.48038,50.46052 161.10052,4.86079 25.59056,-17.25702 48.41499,-36.29779 29.16475,-81.93906 C 649.79248,375.99864 573.95165,351.9234 557.25504,349.05512 508.95834,340.75833 452.8959,336.11789 408.65369,336.90314 Z"
         inkscape:connector-curvature="0"
         sodipodi:nodetypes="ccssssc"
         id="path3836" />
      <path
         style="fill:none;stroke:#000000;stroke-width:6.20078754;stroke-linecap:butt;stroke-linejoin:miter;stroke-miterlimit:4;stroke-dasharray:none;stroke-opacity:1"
         d="m 557.94943,348.70792 c -58.82846,70.91784 -55.38502,121.07839 -67.35668,176.3773"
         id="path3838"
         inkscape:connector-curvature="0"
         sodipodi:nodetypes="cc" />
      <path
         style="fill:none;stroke:#000000;stroke-width:6.20078754;stroke-linecap:butt;stroke-linejoin:miter;stroke-miterlimit:4;stroke-dasharray:none;stroke-opacity:1"
         d="m 680.16362,448.70135 c -11.82508,17.54 -21.84739,46.49758 -30.90074,81.59186"
         id="path3840"
         inkscape:connector-curvature="0"
         sodipodi:nodetypes="cc" />
    </g>
  </g>
  <g
     inkscape:groupmode="layer"
     id="layer5"
     inkscape:label="Raptor fills"
     style="display:inline">
    <path
       style="opacity:1;fill:#90ab99;fill-opacity:1;stroke:#90ab99;stroke-width:7.19999981;stroke-miterlimit:4;stroke-dasharray:none;stroke-opacity:1"
       d="m 352.29921,148.63645 c 2.53456,1.36466 10.52206,5.92757 17.75,10.13979 17.99189,10.48514 21.72911,12.50495 40.3917,21.83003 19.99462,9.99066 22.59796,10.37425 32.60355,17.2849 28.44435,19.64592 39.52171,29.93206 50.38461,46.3439 5.42283,8.19289 7.50514,11.23126 7.29916,13.70909 -0.27898,2.54227 -2.32006,1.72902 -4.15344,0.79552 -2.61057,-1.3703 -6.55187,-3.14351 -13.13464,-11.88902 -15.75758,-20.93469 -42.33141,-42.34262 -66.105,-53.25433 -11.0977,-5.09368 -16.3328,-6.25942 -27.89424,-6.21143 -8.57487,0.0356 -12.36251,0.61019 -21.5,3.26166 -3.01324,0.87436 -5.50217,1.13523 -12.66822,1.32777 l -8.91821,0.23963 c -13.31733,0.86471 -10.21244,-2.44295 -16.60671,6.95956 -5.11379,7.88972 -7.2921,14.00194 -8.50648,23.86877 -0.89558,7.27653 -2.57007,10.77909 -7.26797,15.20256 -3.92197,3.69287 -8.13012,6.03821 -13.12544,7.31527 -4.98967,1.27562 -10.18499,1.80422 -10.63152,1.08173 -0.49646,-0.8033 2.24726,-1.82758 7.50047,-2.80008 5.78467,-1.07088 8.034,-2.09239 10.40649,-4.726 4.64103,-5.15182 5.49343,-10.1156 4.0383,-23.51617 -0.77944,-7.17797 -0.82891,-9.05499 -0.31731,-12.03843 -0.50895,-7.06494 5.44784,-12.49418 5.58098,-16.25366 0.0937,-2.64574 -3.85678,-4.46451 -9.9366,-5.44445 -9.80655,-1.6538 -18.54804,-5.50085 -24.0284,-10.5747 -9.61125,-8.89832 -12.7914,-20.44333 -13.82457,-50.1877 -0.27563,-7.93551 -0.16199,-10.49344 0.7997,-18 2.5882,-20.202312 0.30384,-25.566709 -16.74451,-39.321416 -6.35283,-5.125497 -9.36558,-8.358723 -9.15673,-9.826837 0.40033,-2.814222 8.14107,-3.964868 19.36394,-2.878414 12.19571,1.180632 21.29804,4.686783 29.06239,11.194623 5.12057,4.291903 6.69873,6.64845 6.67999,9.974705 -0.0184,3.274468 -1.06244,5.32382 -5.66841,11.127167 -4.20173,5.294015 -8.1338,12.982544 -9.24589,18.078872 -2.79486,12.80782 2.5451,21.03354 18.44856,28.41839 15.88993,7.35474 33.24745,10.48955 49.12445,18.7687 z"
       id="path4677"
       inkscape:connector-curvature="0"
       sodipodi:nodetypes="cssssccsssssccssscssscccssssssscsscc" />
  </g>
  <g
     inkscape:groupmode="layer"
     id="layer6"
     inkscape:label="Raptor lines"
     style="display:inline;opacity:1"
     transform="translate(-211.61809,-124.00455)">
    <g
       id="g4185">
      <g
         id="g4225">
        <path
           style="display:inline;opacity:1;fill:none;fill-opacity:1;fill-rule:nonzero;stroke:#000000;stroke-width:6.21000004;stroke-linecap:round;stroke-miterlimit:4;stroke-dasharray:none;stroke-opacity:1"
           clip-path="none"
           d="m 339.27289,194.50489 c 12.78358,2.87815 23.84582,0.76687 34.80654,-1.80447 10.44413,-2.45015 22.72224,-3.27078 31.00986,-0.1428 36.17381,13.65303 58.07327,30.6661 79.17785,58.34467 3.65683,4.79592 6.37208,7.93799 9.36631,9.24588 7.75798,3.38872 12.71511,1.16441 8.91291,-6.67175 -10.50062,-21.64132 -33.82087,-40.15062 -50.49027,-52.89533 -19.91706,-15.22773 -42.87899,-23.65464 -64.30664,-36.15235 -14.54292,-8.48218 -26.42511,-16.25597 -39.39072,-22.05923 -11.74789,-5.25822 -22.07842,-8.14373 -32.95109,-11.93681 -5.99269,-2.09063 -12.57088,-4.2735 -17.10602,-7.19867 -4.04836,-2.6112 -9.58521,-8.88709 -10.34312,-13.37523 -1.38765,-8.21728 3.85541,-18.493561 8.89444,-24.392854 5.54068,-6.48658 9.97885,-14.263798 3.49023,-21.51758 -6.03435,-6.745944 -12.0583,-10.85723 -21.25998,-13.81585 -7.96636,-2.561427 -15.69585,-2.859059 -23.21254,-2.821142 -15.87015,0.08006 -19.32952,6.245079 -9.01897,15.234052 4.21064,3.670935 8.84888,6.65965 12.33136,9.97317 4.12704,3.9268 9.67323,11.93867 8.95508,17.60547 -3.6076,28.467044 -1.49569,42.221004 1.48242,62.679684 2.72915,18.74837 17.3472,27.81173 35.41885,32.02743 1.94938,0.45475 7.06395,1.35309 9.08311,1.70109"
           id="path3433-6"
           inkscape:connector-curvature="0"
           sodipodi:nodetypes="cssssssssssssssssssssc"
           transform="translate(211.61809,124.00455)" />
        <path
           sodipodi:nodetypes="sssssssssssssssssss"
           inkscape:connector-curvature="0"
           id="path4217"
           d="m 517.24059,343.61491 c 2.49408,11.15536 0.22567,15.90195 -4.40775,17.40459 -4.65389,1.50927 -12.17604,-0.50074 -16.642,4.48901 -3.024,3.37867 -3.08575,7.08716 0.59837,9.78134 5.23243,3.82645 14.4796,0.39074 20.42013,-0.82533 13.37095,-2.73713 22.19407,-15.35869 23.54101,-28.61914 0.91649,-9.0227 3.84769,-17.92302 13.52832,-26.53711 20.90465,-18.60154 8.469,-17.53439 -4.29082,-5.5593 -4.39277,4.12262 -8.76237,9.85433 -12.07203,16.04233 -3.96249,7.40857 -4.34419,15.12314 -4.9897,20.14002 -1.42277,11.05776 -12.12351,18.47717 -22.59375,20.43945 -12.2943,2.30414 -11.80946,-1.07535 -2.27111,-2.63292 3.94683,-0.6445 8.42745,-1.40978 11.05236,-4.27919 9.30279,-10.16931 2.83368,-22.47708 3.79102,-34.29687 0.62405,-7.70481 4.14508,-13.98302 8.48359,-19.52788 3.55921,-4.54888 7.02404,-7.99931 11.12916,-12.49751 6.84437,-7.49974 -1.36564,-5.10151 -7.98181,-0.43463 -4.62456,3.26205 -8.88408,8.01744 -11.92099,13.15143 -7.12407,12.04348 -7.6912,23.3975 -5.374,33.76171 z"
           clip-path="none"
           style="display:inline;opacity:1;fill:#000000;fill-opacity:1;fill-rule:nonzero;stroke:none" />
      </g>
      <path
         style="display:inline;opacity:1;fill:#000000;fill-opacity:1;fill-rule:nonzero;stroke:none"
         clip-path="none"
         d="m 538.779,202.00152 c -5.65013,2.40755 -9.08252,8.07293 -10.56383,14.62716 -2.49863,11.05548 0.5588,22.90391 -3.99706,37.12202 -2.67566,8.35027 -6.05237,12.63492 -11.92847,14.01715 -19.82326,4.66302 -7.60831,9.81344 2.4384,6.70643 7.88168,-2.43746 12.63582,-8.78946 15.89926,-18.52245 2.92421,-8.72126 3.3429,-14.79088 3.35548,-20.23536 0.0217,-9.40945 -0.39715,-20.49338 6.46874,-28.14258 7.31576,-8.15039 6.41792,-9.01976 -1.67252,-5.57237 z"
         id="path4181"
         inkscape:connector-curvature="0"
         sodipodi:nodetypes="sssssssss" />
      <path
         transform="translate(211.61809,124.00455)"
         sodipodi:nodetypes="ccsc"
         inkscape:connector-curvature="0"
         id="path4213-3"
         d="m 336.03272,85.914492 c 13.07683,-1.012508 9.91683,-34.827183 -5.61134,-31.849758 -12.46418,-10.515222 -6.15121,17.821916 -5.40505,22.093582 2.93587,16.807363 7.84928,16.483443 11.01639,9.756176 z"
         clip-path="none"
         style="display:inline;opacity:1;fill:#000000;fill-opacity:1;fill-rule:nonzero;stroke:none" />
    </g>
  </g>
</svg>
