<?xml version="1.0" encoding="UTF-8" standalone="no"?>
<svg
   xmlns:dc="http://purl.org/dc/elements/1.1/"
   xmlns:cc="http://creativecommons.org/ns#"
   xmlns:rdf="http://www.w3.org/1999/02/22-rdf-syntax-ns#"
   xmlns:svg="http://www.w3.org/2000/svg"
   xmlns="http://www.w3.org/2000/svg"
   width="6in"
   version="1.1"
   style="display:inline"
   id="svg2985"
   height="5in">
  <title
     id="title3241">VAD 2000</title>
  <defs
     id="defs2987" />
  <metadata
     id="metadata2991">
    <rdf:RDF>
      <cc:Work
         rdf:about="">
        <dc:format>image/svg+xml</dc:format>
        <dc:type
           rdf:resource="http://purl.org/dc/dcmitype/StillImage" />
        <dc:title>VAD 2000</dc:title>
        <cc:license
           rdf:resource="http://creativecommons.org/licenses/by-sa/3.0/" />
        <dc:creator>
          <cc:Agent>
            <dc:title>Ryan Finnie</dc:title>
          </cc:Agent>
        </dc:creator>
      </cc:Work>
      <cc:License
         rdf:about="http://creativecommons.org/licenses/by-sa/3.0/">
        <cc:permits
           rdf:resource="http://creativecommons.org/ns#Reproduction" />
        <cc:permits
           rdf:resource="http://creativecommons.org/ns#Distribution" />
        <cc:requires
           rdf:resource="http://creativecommons.org/ns#Notice" />
        <cc:requires
           rdf:resource="http://creativecommons.org/ns#Attribution" />
        <cc:permits
           rdf:resource="http://creativecommons.org/ns#DerivativeWorks" />
        <cc:requires
           rdf:resource="http://creativecommons.org/ns#ShareAlike" />
      </cc:License>
    </rdf:RDF>
  </metadata>
  <g
     style="display:none"
     id="layer1">
    <g
       transform="translate(-211.61809,-124.00455)"
       style="display:inline"
       id="layer2">
      <g
         id="g3445">
        <path
           style="fill:#e2e2e2;fill-opacity:1;stroke:#e2e2e2;stroke-width:4.30581951;stroke-linecap:butt;stroke-linejoin:round;stroke-miterlimit:4;stroke-dasharray:none;stroke-opacity:1"
           id="path3963"
           d="m 668.83087,498.34225 c 0,-0.13397 0.29221,-1.14953 0.64935,-2.2568 0.35713,-1.10727 2.23935,-7.39205 4.1827,-13.96619 4.5154,-15.27511 10.09695,-30.17008 15.41431,-41.13482 3.11586,-6.42508 4.34742,-8.37038 4.79402,-7.57235 0.33055,0.59065 1.39375,4.12508 2.36268,7.85429 4.17378,16.06399 1.2394,29.39718 -9.17637,41.69547 -4.73132,5.58644 -18.22669,16.97437 -18.22669,15.3804 z" />
        <path
           style="fill:#e2e2e2;fill-opacity:1;stroke:#e2e2e2;stroke-width:4.30581951;stroke-linecap:butt;stroke-linejoin:round;stroke-miterlimit:4;stroke-dasharray:none;stroke-opacity:1"
           id="path3965"
           d="m 584.11422,524.53308 c -0.9548,-0.13792 -4.54831,-0.60129 -7.98559,-1.02971 -13.42594,-1.67342 -30.87885,-6.96825 -47.91351,-14.53593 -16.0371,-7.1245 -19.79037,-9.01704 -19.79037,-9.979 0,-0.51927 0.63532,-4.02521 1.41182,-7.79096 0.7765,-3.76575 2.03285,-10.75282 2.79189,-15.52682 8.16132,-51.33117 16.06505,-77.34281 32.07128,-105.54861 9.85365,-17.36386 26.49208,-40.27513 29.24826,-40.27513 5.05828,0 22.27256,6.06603 35.51178,12.51376 34.70131,16.90015 61.05907,42.12776 76.41392,73.13745 l 4.41692,8.92015 -1.68532,2.66971 c -8.05231,12.75569 -17.37765,36.91776 -25.31002,65.57854 -2.68119,9.6875 -3.80864,12.75287 -5.03554,13.69085 -0.86946,0.66472 -5.64308,3.2228 -10.60803,5.68462 -12.70485,6.29957 -25.93397,10.32245 -40.15178,12.20989 -5.07052,0.67313 -19.47354,0.84631 -23.38571,0.28119 l 0,0 z" />
        <path
           transform="translate(211.61809,124.00455)"
           style="fill:#e2e2e2;fill-opacity:1;stroke:#e2e2e2;stroke-width:4.30581951;stroke-linecap:butt;stroke-linejoin:round;stroke-miterlimit:4;stroke-dasharray:none;stroke-opacity:1"
           id="path3967"
           d="m 212.4375,192.45703 -5.55469,6.74805 c -18.92582,22.99584 -24.82534,37.0044 -27.75976,65.92187 -0.94095,9.27264 -0.96866,11.2006 -0.17969,12.15039 15.32921,18.45386 46.52873,50.54547 60.57617,62.3086 14.32945,11.9993 22.97186,17.88814 40.27344,27.43359 5.34687,2.94991 9.92764,5.15505 10.17773,4.90039 0.42967,-0.43752 2.08508,-9.34479 7.89258,-42.47461 4.31369,-24.60807 8.57787,-40.64978 15.41406,-57.98242 8.04174,-20.38921 19.01056,-39.64785 33.83789,-59.40625 3.27843,-4.36872 5.72261,-8.02119 5.42969,-8.11719 -0.29292,-0.096 -3.70362,-0.73936 -7.57812,-1.42968 l -7.04492,-1.25586 -32.23829,-4.25 -8.08398,-0.83203 c -17.14062,-1.76103 -37.49426,-2.85618 -60.85938,-3.27735 l -24.30273,-0.4375 z" />
      </g>
      <path
         style="fill:#e2e2e2;fill-opacity:1;stroke:#e2e2e2;stroke-width:4.30581951;stroke-linecap:butt;stroke-linejoin:round;stroke-miterlimit:4;stroke-dasharray:none;stroke-opacity:1"
         id="path3969"
         d="m 282.05074,425.01828 c -18.14761,-8.8986 -29.48343,-14.83419 -29.4379,-15.41407 0.054,-0.68822 68.10011,-186.1986 68.6655,-187.19908 0.22352,-0.39553 58.99372,21.23668 59.15019,21.77207 0.29797,1.01952 -67.46248,194.91945 -68.18763,195.12236 -0.37301,0.10437 -13.95859,-6.3222 -30.19016,-14.28128 z" />
      <path
         style="fill:#9a9a9a;fill-opacity:1;stroke:#9a9a9a;stroke-width:4.30581951;stroke-linecap:butt;stroke-linejoin:round;stroke-miterlimit:4;stroke-dasharray:none;stroke-opacity:1"
         id="path3971"
         d="m 393.43589,249.46257 c -0.19988,0.19988 6.30463,12.86459 25.15625,48.96875 l 5.875,11.28125 15.9375,0 15.9375,0 -10.53125,-21.09375 -10.5625,-21.125 -20.78125,-9.125 c -11.4363,-5.01942 -20.9079,-9.0296 -21.03125,-8.90625 z m -7.84375,2.125 c -0.15648,0.45986 -7.41902,21.28019 -16.125,46.28125 -8.70598,25.00105 -15.72864,45.58387 -15.59375,45.71875 0.13489,0.13489 8.49821,2.37051 18.5625,4.96875 10.06429,2.59825 18.3223,4.6701 18.375,4.625 0.0527,-0.045 1.83509,-3.45657 3.96875,-7.59375 4.47848,-8.68381 9.43351,-15.98418 17.53125,-25.875 l 5.75,-7 -16.09375,-30.96875 c -8.85007,-17.03996 -16.21852,-30.6161 -16.375,-30.15625 z m 60.46875,20.96875 c -0.11761,0.1113 4.03934,8.67791 9.21875,19.03125 l 9.40625,18.8125 4.15625,0 c 2.29015,0 4.15625,-0.06 4.15625,-0.15625 0,-1.26567 -4.90036,-27.90036 -5.1875,-28.1875 -0.60144,-0.60143 -21.50505,-9.7318 -21.75,-9.5 z m -94.25,78.09375 c -0.54444,0.0192 -28.8811,79.69675 -30.0625,84.53125 -0.1867,0.76399 58.65317,-34.10801 60.53125,-35.875 0.31339,-0.29485 1.01651,-5.03947 1.5625,-10.53125 1.05812,-10.64281 2.42966,-19.57704 3.9375,-25.3125 l 0.9375,-3.5 -18.09375,-4.6875 c -9.95206,-2.56346 -18.41579,-4.639 -18.8125,-4.625 z m 33.1875,55.59375 c -0.37069,0 -55.75908,33.25711 -56.625,34 -0.29988,0.25725 1.10648,0.35999 3.125,0.21875 4.70318,-0.32911 78.22431,-4.375 79.5,-4.375 0.52786,0 -5.02942,-6.72623 -12.34375,-14.9375 -7.31434,-8.21127 -13.47268,-14.90625 -13.65625,-14.90625 z" />
    </g>
    <g
       transform="translate(-211.61809,-124.00455)"
       style="display:inline"
       id="g3821">
      <g
         transform="translate(13.748394,-23.568676)"
         id="g3852">
        <path
           style="fill:none;stroke:#000000;stroke-width:6.20078754;stroke-linecap:butt;stroke-linejoin:round;stroke-miterlimit:4;stroke-dasharray:none;stroke-opacity:1"
           id="path3002"
           d="m 233.96822,435.65229 71.5653,-194.31883 66.0414,23.93694 -70.70603,203.15708 z" />
        <path
           style="fill:none;stroke:#000000;stroke-width:6.20078754;stroke-linecap:butt;stroke-linejoin:miter;stroke-miterlimit:4;stroke-dasharray:none;stroke-opacity:1"
           id="path3824"
           d="M 379.18564,381.02697 334.74886,369.48814" />
        <path
           style="fill:none;stroke:#000000;stroke-width:6.20078754;stroke-linecap:butt;stroke-linejoin:miter;stroke-miterlimit:4;stroke-dasharray:none;stroke-opacity:1"
           id="path3826"
           d="m 371.57492,425.341 -70.95154,42.71822" />
        <path
           style="fill:none;stroke:#000000;stroke-width:6.20078754;stroke-linecap:butt;stroke-linejoin:miter;stroke-miterlimit:4;stroke-dasharray:none;stroke-opacity:1"
           id="path3828"
           d="m 405.12875,462.62211 -104.28362,5.8141" />
        <path
           style="fill:none;stroke:#000000;stroke-width:6.20078754;stroke-linecap:butt;stroke-linejoin:miter;stroke-miterlimit:4;stroke-dasharray:none;stroke-opacity:1"
           id="path3830"
           d="M 408.6352,336.91995 371.32941,265.2704" />
        <path
           style="fill:none;stroke:#000000;stroke-width:6.20078754;stroke-linecap:butt;stroke-linejoin:miter;stroke-miterlimit:4;stroke-dasharray:none;stroke-opacity:1"
           id="path3832"
           d="M 448.21524,336.67444 424.00301,288.1868" />
        <path
           style="fill:none;stroke:#000000;stroke-width:6.20078754;stroke-linecap:butt;stroke-linejoin:round;stroke-miterlimit:4;stroke-dasharray:none;stroke-opacity:1"
           id="path3834"
           d="M 463.51731,337.94049 457.45154,303.0487 370.85585,264.98894" />
        <path
           style="fill:none;stroke:#000000;stroke-width:6.20078754;stroke-linecap:butt;stroke-linejoin:miter;stroke-miterlimit:4;stroke-dasharray:none;stroke-opacity:1"
           id="path3836"
           d="m 508.24692,341.56057 c -32.58595,-3.79571 -65.78531,-5.34226 -99.59323,-4.65743 -37.89298,41.27668 -32.73336,62.68293 -36.45593,88.18865 64.06723,74.92759 89.48786,85.12213 117.70059,99.99343 31.60663,14.62138 93.1093,49.90535 161.10052,4.86079 25.21122,-17.80662 50.04472,-37.01998 29.16475,-81.93906 -28.72104,-72.68222 -106.07243,-97.0683 -122.90858,-98.95183 -7.61614,-1.44802 -15.26725,-2.76783 -22.95326,-3.95968 z" />
        <path
           style="fill:none;stroke:#000000;stroke-width:6.20078754;stroke-linecap:butt;stroke-linejoin:miter;stroke-miterlimit:4;stroke-dasharray:none;stroke-opacity:1"
           id="path3838"
           d="m 557.94943,348.70792 c -58.82846,70.91784 -55.38502,121.07839 -67.35668,176.3773" />
        <path
           style="fill:none;stroke:#000000;stroke-width:6.20078754;stroke-linecap:butt;stroke-linejoin:miter;stroke-miterlimit:4;stroke-dasharray:none;stroke-opacity:1"
           id="path3840"
           d="m 680.16362,448.70135 c -11.82508,17.54 -21.84739,46.49758 -30.90074,81.59186" />
      </g>
    </g>
    <g
       style="display:inline"
       id="layer5">
      <path
         style="display:inline;fill:#90ab99;fill-opacity:1;stroke:#90ab99;stroke-width:4.30581951;stroke-linecap:butt;stroke-linejoin:round;stroke-miterlimit:4;stroke-dasharray:none;stroke-opacity:1"
         id="path3961"
         d="m 258.46875,51.347656 c -9.83122,-0.0079 -11.7776,0.164909 -12.74414,1.128906 -0.71551,0.713592 -0.97342,1.666158 -0.69141,2.554688 0.2473,0.77919 4.31033,4.720516 9.0293,8.759766 10.45908,8.95256 12.05507,10.733048 14.94922,16.673828 3.03223,6.22421 3.35266,10.857691 1.5039,21.703126 -1.31571,7.71847 -1.38023,9.53744 -0.74218,20.48437 1.21521,20.8492 3.35687,33.75795 6.70703,40.42188 2.08189,4.14115 6.95919,8.97188 12.25391,12.13476 5.06105,3.02332 14.43433,6.16587 20.01562,6.71094 5.94822,8.00383 3.19333,21.88408 3.10938,24.26953 -0.0495,2.67343 0.18337,8.9408 0.51562,13.92774 0.73338,11.00757 -0.15855,14.67726 -4.71094,19.39843 -2.41483,2.50437 -3.53586,3.10322 -7.03906,3.76368 -6.01486,1.13397 -9.25545,2.08567 -9.73242,2.85742 -1.13861,1.8423 10.98739,-0.43395 16.07422,-3.01758 4.97998,-2.52936 9.6603,-6.97815 11.67578,-11.09766 0.97722,-1.99736 2.38256,-6.75307 3.12304,-10.5664 2.63872,-13.58822 4.49161,-17.89322 11.36524,-26.41992 l 13.46094,-3.08008 7.58789,0 c 6.27746,0 9.08347,-0.38546 16.25,-2.22852 7.94431,-2.04308 9.58427,-2.22926 19.77343,-2.25586 12.6875,-0.0331 14.62278,0.38984 26.90626,5.88868 12.58134,5.6322 22.44016,11.99607 35.9375,23.19726 19.25736,15.98133 25.06962,21.39755 28.60156,26.6543 6.51231,9.69255 8.75648,12.4047 12.08789,14.61133 3.28308,2.17462 5.83398,2.82077 5.83398,1.47656 0,-1.51291 -7.00088,-14.48924 -10.48437,-19.43164 -5.16393,-7.32662 -18.90976,-20.8056 -28.74805,-28.19141 -21.45238,-16.10475 -26.80832,-19.40228 -52.08008,-32.06055 -9.16607,-4.59116 -26.68222,-14.08383 -38.92383,-21.09375 -22.13776,-12.67676 -26.63612,-14.79261 -41.9746,-19.74218 -4.39207,-1.41727 -8.29777,-2.68191 -8.67969,-2.81055 l -7.24805,-2.52344 -5.41797,-2.21875 c -2.98014,-1.21989 -7.15266,-3.32625 -9.27148,-4.68164 -9.37941,-5.99993 -12.41624,-10.64587 -12.42774,-19.00781 -0.0115,-8.338945 2.87408,-15.550863 9.73047,-24.320313 7.56392,-9.67441 7.48533,-13.245993 -0.44531,-20.314453 -4.70926,-4.19729 -11.21065,-7.721015 -18.31836,-9.927735 -4.56858,-1.41839 -6.63373,-1.618953 -16.8125,-1.626953 z" />
    </g>
    <g
       transform="translate(-211.61809,-124.00455)"
       style="display:inline"
       id="layer6">
      <path
         style="fill:#000000;fill-opacity:1;fill-rule:nonzero;stroke:none"
         id="path3433"
         d="m 475.26987,167.87663 c -8.76771,0.16586 -24.82732,-1.22737 -26.71484,9.67383 2.61877,9.75222 12.51318,13.92927 19.72266,20.37305 0.01,0.0409 0.0149,0.0756 0.0254,0.11719 0.206,0.14789 0.41418,0.31331 0.62304,0.48242 0.88467,0.82857 1.73183,1.68968 2.50196,2.61328 0.19989,0.25655 0.41867,0.46643 0.64258,0.6582 2.66765,3.46138 4.74809,8.19062 4.18554,12.58399 -4.47552,20.82685 -1.84706,42.19992 0.98242,63.05468 1.19381,13.84378 11.7909,24.52671 24.29688,29.30274 4.6562,3.18371 13.26312,5.51698 19.20508,6.05078 -4.8661,9.32891 -5.99154,20.50444 -3.5,30.82812 0.83343,5.69486 2.29688,15.15544 -4.5586,17.52539 -7.27994,0.38929 -18.62986,0.59199 -18.73632,10.41602 3.84986,9.2394 15.96396,4.19611 23.26367,2.9082 13.3368,-2.89897 22.49489,-15.33158 23.54101,-28.61914 0.35469,-9.21166 5.07296,-16.85415 10.89063,-23.58594 1.70827,0.43357 3.71883,0.65045 5.53515,0.74805 19.78515,3.84204 39.03997,-10.23323 58.53125,-2.94531 22.63365,6.74179 40.43448,22.6926 58.09375,37.5625 10.07306,6.89363 15.75318,17.66464 23.02344,26.9375 5.16982,7.03656 22.98816,11.43166 21.42578,-2.06055 -8.14909,-26.49715 -30.4881,-45.08396 -52.45117,-60.41601 -19.35803,-15.93235 -43.35889,-24.01973 -64.74414,-36.58985 -18.97099,-9.69166 -36.07978,-23.52314 -57.1582,-28.50195 -3.93505,-1.59134 -8.07405,-2.9348 -12.21875,-4.30664 1.37564,-5.60799 1.92888,-11.53919 2.30469,-16.9707 -0.34152,-9.40328 -0.59951,-21.00976 6.46874,-28.01758 1.37941,3.69868 3.57793,5.93159 6.72266,1.71484 0.0177,8.4e-4 0.031,0.005 0.0488,0.006 4.65843,-2.88216 7.23152,-10.28616 6.19531,-15.58984 -0.0499,-6.51927 -6.67414,-12.50769 -13.42187,-12.31055 -5.96567,-2.99291 -1.98882,13.02263 -1.36328,16.66602 0.027,0.94177 0.15356,2.26236 0.3789,3.70703 -6.18923,2.50522 -9.12439,8.22826 -10.79687,14.73633 -2.30645,11.09717 0.0508,22.75103 -3.0918,33.80859 -7.33298,-2.66525 -14.35435,-5.9225 -19.92383,-11.43555 -6.17859,-9.11536 0.55022,-20.22137 6.39649,-27.65625 6.29887,-6.4534 9.96586,-16.58849 3.74023,-24.39258 -9.30821,-12.10549 -24.94547,-18.72851 -40.06641,-19.07617 z m -7.65429,6.51563 c 1.6129,0.0231 3.06384,0.0939 4.09765,0.13281 13.94722,-0.0994 28.57877,4.94261 37.65235,15.83594 5.00995,5.56595 0.99411,12.30778 -3.2461,16.83008 -7.84646,9.52355 -14.43358,23.77255 -6.92968,35.36328 6.40126,7.30121 15.0825,11.26745 24.12304,14.50976 -3.21665,7.17653 -10.74655,11.91009 -18.64648,12.73828 -10.88795,4.78777 7.74416,7.87228 12.03515,3.53125 6.45253,-2.9748 10.39187,-8.11118 12.875,-14.11718 4.1249,1.37862 8.23216,2.73432 12.14649,4.29882 17.51376,3.8317 31.85744,14.86932 47.375,23.14258 18.57272,11.60934 39.12734,19.48135 57.91016,30.66016 23.99593,16.77389 50.71167,33.57371 62.73046,61.55078 3.99384,6.5447 1.41811,7.23302 -4.25976,3.67188 -9.18577,-5.63171 -11.33099,-17.54621 -20.11133,-23.82813 -18.37745,-15.52246 -36.10932,-33.00568 -58.89453,-41.93164 -13.76234,-7.09507 -29.76748,-6.93053 -44.32617,-2.55859 -8.04314,2.63863 -16.43723,2.68483 -24.73047,1.88476 0.37724,-0.37869 0.75186,-0.769 1.12891,-1.14258 18.81745,-16.15764 -5.18092,-9.71149 -13.10157,4.10742 -8.45216,8.13954 -10.82085,19.76547 -12.51758,30.85938 -1.83759,10.99644 -12.08975,18.66672 -22.59375,20.43945 -7.18337,1.30505 -10.0198,0.37649 -9.18554,0.10938 3.73243,-4.4964 13.26182,-1.12127 17.96679,-7.02149 9.49538,-9.98973 2.98705,-22.46566 3.79102,-34.29687 0.32649,-6.17513 2.68976,-11.51867 6.00781,-16.35352 l 0.0703,0.45313 c 0.0252,-0.21687 0.0377,-0.42022 0.0488,-0.62305 3.95554,-5.71043 9.23408,-10.71195 14.09961,-15.50195 8.4422,-11.16723 -11.183,-0.88083 -15.46093,6.1914 -1.14752,1.13531 -2.2046,2.3375 -3.18165,3.5918 -3.3986,-0.84269 -7.89742,-0.531 -10.61914,-1.85547 -10.96681,-2.67512 -22.40623,-8.80579 -27.3125,-19.73242 -4.92091,-14.97636 -4.93255,-31.11314 -5.92382,-46.7207 -1.08637,-12.86278 7.03628,-23.60125 -1.14063,-35.375 -0.47451,-2.14729 -2.63448,-4.8488 -4.95508,-6.80078 -6.94448,-7.53699 -19.94016,-15.67033 -18.89648,-18.73047 0.84307,-3.01206 7.13591,-3.3817 11.97461,-3.3125 z m 71.54492,14.15429 c -0.0156,0.0362 -0.0527,0.0541 -0.14844,0.0274 0.053,-0.014 0.0965,-0.015 0.14844,-0.0274 z"
         clip-path="none" />
    </g>
  </g>
  <g
     style="display:inline"
     id="layer3">
    <g
       style="display:none"
       id="layer7">
      <rect
         y="0"
         x="0"
         width="540"
         style="opacity:1;fill:#000000;fill-opacity:1;stroke:#b0b0b0;stroke-opacity:1"
         id="rect3451"
         height="450" />
    </g>
    <g
       transform="translate(-211.61809,-124.00455)"
       style="display:inline"
       id="g3485">
      <g
         style="fill:#a9a9a9;fill-opacity:1;stroke:#a9a9a9;stroke-opacity:1"
         id="g3487">
        <path
           style="fill:#a9a9a9;fill-opacity:1;stroke:#a9a9a9;stroke-width:4.30581951;stroke-linecap:butt;stroke-linejoin:round;stroke-miterlimit:4;stroke-dasharray:none;stroke-opacity:1"
           id="path3489"
           d="m 668.83087,498.34225 c 0,-0.13397 0.29221,-1.14953 0.64935,-2.2568 0.35713,-1.10727 2.23935,-7.39205 4.1827,-13.96619 4.5154,-15.27511 10.09695,-30.17008 15.41431,-41.13482 3.11586,-6.42508 4.34742,-8.37038 4.79402,-7.57235 0.33055,0.59065 1.39375,4.12508 2.36268,7.85429 4.17378,16.06399 1.2394,29.39718 -9.17637,41.69547 -4.73132,5.58644 -18.22669,16.97437 -18.22669,15.3804 z" />
        <path
           style="fill:#a9a9a9;fill-opacity:1;stroke:#a9a9a9;stroke-width:4.30581951;stroke-linecap:butt;stroke-linejoin:round;stroke-miterlimit:4;stroke-dasharray:none;stroke-opacity:1"
           id="path3491"
           d="m 584.11422,524.53308 c -0.9548,-0.13792 -4.54831,-0.60129 -7.98559,-1.02971 -13.42594,-1.67342 -30.87885,-6.96825 -47.91351,-14.53593 -16.0371,-7.1245 -19.79037,-9.01704 -19.79037,-9.979 0,-0.51927 0.63532,-4.02521 1.41182,-7.79096 0.7765,-3.76575 2.03285,-10.75282 2.79189,-15.52682 8.16132,-51.33117 16.06505,-77.34281 32.07128,-105.54861 9.85365,-17.36386 26.49208,-40.27513 29.24826,-40.27513 5.05828,0 22.27256,6.06603 35.51178,12.51376 34.70131,16.90015 61.05907,42.12776 76.41392,73.13745 l 4.41692,8.92015 -1.68532,2.66971 c -8.05231,12.75569 -17.37765,36.91776 -25.31002,65.57854 -2.68119,9.6875 -3.80864,12.75287 -5.03554,13.69085 -0.86946,0.66472 -5.64308,3.2228 -10.60803,5.68462 -12.70485,6.29957 -25.93397,10.32245 -40.15178,12.20989 -5.07052,0.67313 -19.47354,0.84631 -23.38571,0.28119 l 0,0 z" />
        <path
           transform="translate(211.61809,124.00455)"
           style="fill:#a9a9a9;fill-opacity:1;stroke:#a9a9a9;stroke-width:4.30581951;stroke-linecap:butt;stroke-linejoin:round;stroke-miterlimit:4;stroke-dasharray:none;stroke-opacity:1"
           id="path3493"
           d="m 212.4375,192.45703 -5.55469,6.74805 c -18.92582,22.99584 -24.82534,37.0044 -27.75976,65.92187 -0.94095,9.27264 -0.96866,11.2006 -0.17969,12.15039 15.32921,18.45386 46.52873,50.54547 60.57617,62.3086 14.32945,11.9993 22.97186,17.88814 40.27344,27.43359 5.34687,2.94991 9.92764,5.15505 10.17773,4.90039 0.42967,-0.43752 2.08508,-9.34479 7.89258,-42.47461 4.31369,-24.60807 8.57787,-40.64978 15.41406,-57.98242 8.04174,-20.38921 19.01056,-39.64785 33.83789,-59.40625 3.27843,-4.36872 5.72261,-8.02119 5.42969,-8.11719 -0.29292,-0.096 -3.70362,-0.73936 -7.57812,-1.42968 l -7.04492,-1.25586 -32.23829,-4.25 -8.08398,-0.83203 c -17.14062,-1.76103 -37.49426,-2.85618 -60.85938,-3.27735 l -24.30273,-0.4375 z" />
      </g>
      <path
         style="fill:#a9a9a9;fill-opacity:1;stroke:#a9a9a9;stroke-width:4.30581951;stroke-linecap:butt;stroke-linejoin:round;stroke-miterlimit:4;stroke-dasharray:none;stroke-opacity:1"
         id="path3495"
         d="m 282.05074,425.01828 c -18.14761,-8.8986 -29.48343,-14.83419 -29.4379,-15.41407 0.054,-0.68822 68.10011,-186.1986 68.6655,-187.19908 0.22352,-0.39553 58.99372,21.23668 59.15019,21.77207 0.29797,1.01952 -67.46248,194.91945 -68.18763,195.12236 -0.37301,0.10437 -13.95859,-6.3222 -30.19016,-14.28128 z" />
      <path
         style="fill:#686868;fill-opacity:1;stroke:#686868;stroke-width:4.30581951;stroke-linecap:butt;stroke-linejoin:round;stroke-miterlimit:4;stroke-dasharray:none;stroke-opacity:1"
         id="path3497"
         d="m 393.43589,249.46257 c -0.19988,0.19988 6.30463,12.86459 25.15625,48.96875 l 5.875,11.28125 15.9375,0 15.9375,0 -10.53125,-21.09375 -10.5625,-21.125 -20.78125,-9.125 c -11.4363,-5.01942 -20.9079,-9.0296 -21.03125,-8.90625 z m -7.84375,2.125 c -0.15648,0.45986 -7.41902,21.28019 -16.125,46.28125 -8.70598,25.00105 -15.72864,45.58387 -15.59375,45.71875 0.13489,0.13489 8.49821,2.37051 18.5625,4.96875 10.06429,2.59825 18.3223,4.6701 18.375,4.625 0.0527,-0.045 1.83509,-3.45657 3.96875,-7.59375 4.47848,-8.68381 9.43351,-15.98418 17.53125,-25.875 l 5.75,-7 -16.09375,-30.96875 c -8.85007,-17.03996 -16.21852,-30.6161 -16.375,-30.15625 z m 60.46875,20.96875 c -0.11761,0.1113 4.03934,8.67791 9.21875,19.03125 l 9.40625,18.8125 4.15625,0 c 2.29015,0 4.15625,-0.06 4.15625,-0.15625 0,-1.26567 -4.90036,-27.90036 -5.1875,-28.1875 -0.60144,-0.60143 -21.50505,-9.7318 -21.75,-9.5 z m -94.25,78.09375 c -0.54444,0.0192 -28.8811,79.69675 -30.0625,84.53125 -0.1867,0.76399 58.65317,-34.10801 60.53125,-35.875 0.31339,-0.29485 1.01651,-5.03947 1.5625,-10.53125 1.05812,-10.64281 2.42966,-19.57704 3.9375,-25.3125 l 0.9375,-3.5 -18.09375,-4.6875 c -9.95206,-2.56346 -18.41579,-4.639 -18.8125,-4.625 z m 33.1875,55.59375 c -0.37069,0 -55.75908,33.25711 -56.625,34 -0.29988,0.25725 1.10648,0.35999 3.125,0.21875 4.70318,-0.32911 78.22431,-4.375 79.5,-4.375 0.52786,0 -5.02942,-6.72623 -12.34375,-14.9375 -7.31434,-8.21127 -13.47268,-14.90625 -13.65625,-14.90625 z" />
    </g>
    <g
       transform="translate(-211.61809,-124.00455)"
       style="display:inline"
       id="g3457">
      <g
         transform="translate(13.748394,-23.568676)"
         style="stroke:#ffffff"
         id="g3459">
        <path
           style="fill:none;stroke:#ffffff;stroke-width:6.20078754;stroke-linecap:butt;stroke-linejoin:round;stroke-miterlimit:4;stroke-dasharray:none;stroke-opacity:1"
           id="path3461"
           d="m 233.96822,435.65229 71.5653,-194.31883 66.0414,23.93694 -70.70603,203.15708 z" />
        <path
           style="fill:none;stroke:#ffffff;stroke-width:6.20078754;stroke-linecap:butt;stroke-linejoin:miter;stroke-miterlimit:4;stroke-dasharray:none;stroke-opacity:1"
           id="path3463"
           d="M 379.18564,381.02697 334.74886,369.48814" />
        <path
           style="fill:none;stroke:#ffffff;stroke-width:6.20078754;stroke-linecap:butt;stroke-linejoin:miter;stroke-miterlimit:4;stroke-dasharray:none;stroke-opacity:1"
           id="path3465"
           d="m 371.57492,425.341 -70.95154,42.71822" />
        <path
           style="fill:none;stroke:#ffffff;stroke-width:6.20078754;stroke-linecap:butt;stroke-linejoin:miter;stroke-miterlimit:4;stroke-dasharray:none;stroke-opacity:1"
           id="path3467"
           d="m 405.12875,462.62211 -104.28362,5.8141" />
        <path
           style="fill:none;stroke:#ffffff;stroke-width:6.20078754;stroke-linecap:butt;stroke-linejoin:miter;stroke-miterlimit:4;stroke-dasharray:none;stroke-opacity:1"
           id="path3469"
           d="M 408.6352,336.91995 371.32941,265.2704" />
        <path
           style="fill:none;stroke:#ffffff;stroke-width:6.20078754;stroke-linecap:butt;stroke-linejoin:miter;stroke-miterlimit:4;stroke-dasharray:none;stroke-opacity:1"
           id="path3471"
           d="M 448.21524,336.67444 424.00301,288.1868" />
        <path
           style="fill:none;stroke:#ffffff;stroke-width:6.20078754;stroke-linecap:butt;stroke-linejoin:round;stroke-miterlimit:4;stroke-dasharray:none;stroke-opacity:1"
           id="path3473"
           d="M 463.51731,337.94049 457.45154,303.0487 370.85585,264.98894" />
        <path
           style="fill:none;stroke:#ffffff;stroke-width:6.20078754;stroke-linecap:butt;stroke-linejoin:miter;stroke-miterlimit:4;stroke-dasharray:none;stroke-opacity:1"
           id="path3475"
           d="m 508.24692,341.56057 c -32.58595,-3.79571 -65.78531,-5.34226 -99.59323,-4.65743 -37.89298,41.27668 -32.73336,62.68293 -36.45593,88.18865 64.06723,74.92759 89.48786,85.12213 117.70059,99.99343 31.60663,14.62138 93.1093,49.90535 161.10052,4.86079 25.21122,-17.80662 50.04472,-37.01998 29.16475,-81.93906 -28.72104,-72.68222 -106.07243,-97.0683 -122.90858,-98.95183 -7.61614,-1.44802 -15.26725,-2.76783 -22.95326,-3.95968 z" />
        <path
           style="fill:none;stroke:#ffffff;stroke-width:6.20078754;stroke-linecap:butt;stroke-linejoin:miter;stroke-miterlimit:4;stroke-dasharray:none;stroke-opacity:1"
           id="path3477"
           d="m 557.94943,348.70792 c -58.82846,70.91784 -55.38502,121.07839 -67.35668,176.3773" />
        <path
           style="fill:none;stroke:#ffffff;stroke-width:6.20078754;stroke-linecap:butt;stroke-linejoin:miter;stroke-miterlimit:4;stroke-dasharray:none;stroke-opacity:1"
           id="path3479"
           d="m 680.16362,448.70135 c -11.82508,17.54 -21.84739,46.49758 -30.90074,81.59186" />
      </g>
    </g>
    <g
       style="display:inline"
       id="g3372">
      <path
         style="display:inline;fill:#5e7a67;fill-opacity:1;stroke:#5e7a67;stroke-width:4.30581951;stroke-linecap:butt;stroke-linejoin:round;stroke-miterlimit:4;stroke-dasharray:none;stroke-opacity:1"
         id="path3374"
         d="m 258.46875,51.347656 c -9.83122,-0.0079 -11.7776,0.164909 -12.74414,1.128906 -0.71551,0.713592 -0.97342,1.666158 -0.69141,2.554688 0.2473,0.77919 4.31033,4.720516 9.0293,8.759766 10.45908,8.95256 12.05507,10.733048 14.94922,16.673828 3.03223,6.22421 3.35266,10.857691 1.5039,21.703126 -1.31571,7.71847 -1.38023,9.53744 -0.74218,20.48437 1.21521,20.8492 3.35687,33.75795 6.70703,40.42188 2.08189,4.14115 6.95919,8.97188 12.25391,12.13476 5.06105,3.02332 14.43433,6.16587 20.01562,6.71094 5.94822,8.00383 3.19333,21.88408 3.10938,24.26953 -0.0495,2.67343 0.18337,8.9408 0.51562,13.92774 0.73338,11.00757 -0.15855,14.67726 -4.71094,19.39843 -2.41483,2.50437 -3.53586,3.10322 -7.03906,3.76368 -6.01486,1.13397 -9.25545,2.08567 -9.73242,2.85742 -1.13861,1.8423 10.98739,-0.43395 16.07422,-3.01758 4.97998,-2.52936 9.6603,-6.97815 11.67578,-11.09766 0.97722,-1.99736 2.38256,-6.75307 3.12304,-10.5664 2.63872,-13.58822 4.49161,-17.89322 11.36524,-26.41992 l 13.46094,-3.08008 7.58789,0 c 6.27746,0 9.08347,-0.38546 16.25,-2.22852 7.94431,-2.04308 9.58427,-2.22926 19.77343,-2.25586 12.6875,-0.0331 14.62278,0.38984 26.90626,5.88868 12.58134,5.6322 22.44016,11.99607 35.9375,23.19726 19.25736,15.98133 25.06962,21.39755 28.60156,26.6543 6.51231,9.69255 8.75648,12.4047 12.08789,14.61133 3.28308,2.17462 5.83398,2.82077 5.83398,1.47656 0,-1.51291 -7.00088,-14.48924 -10.48437,-19.43164 -5.16393,-7.32662 -18.90976,-20.8056 -28.74805,-28.19141 -21.45238,-16.10475 -26.80832,-19.40228 -52.08008,-32.06055 -9.16607,-4.59116 -26.68222,-14.08383 -38.92383,-21.09375 -22.13776,-12.67676 -26.63612,-14.79261 -41.9746,-19.74218 -4.39207,-1.41727 -8.29777,-2.68191 -8.67969,-2.81055 l -7.24805,-2.52344 -5.41797,-2.21875 c -2.98014,-1.21989 -7.15266,-3.32625 -9.27148,-4.68164 -9.37941,-5.99993 -12.41624,-10.64587 -12.42774,-19.00781 -0.0115,-8.338945 2.87408,-15.550863 9.73047,-24.320313 7.56392,-9.67441 7.48533,-13.245993 -0.44531,-20.314453 -4.70926,-4.19729 -11.21065,-7.721015 -18.31836,-9.927735 -4.56858,-1.41839 -6.63373,-1.618953 -16.8125,-1.626953 z" />
    </g>
    <g
       transform="translate(-211.61809,-124.00455)"
       style="display:inline"
       id="g3453">
      <path
         style="fill:#ffffff;fill-opacity:1;fill-rule:nonzero;stroke:none"
         id="path3455"
         d="m 475.26987,167.87663 c -8.76771,0.16586 -24.82732,-1.22737 -26.71484,9.67383 2.61877,9.75222 12.51318,13.92927 19.72266,20.37305 0.01,0.0409 0.0149,0.0756 0.0254,0.11719 0.206,0.14789 0.41418,0.31331 0.62304,0.48242 0.88467,0.82857 1.73183,1.68968 2.50196,2.61328 0.19989,0.25655 0.41867,0.46643 0.64258,0.6582 2.66765,3.46138 4.74809,8.19062 4.18554,12.58399 -4.47552,20.82685 -1.84706,42.19992 0.98242,63.05468 1.19381,13.84378 11.7909,24.52671 24.29688,29.30274 4.6562,3.18371 13.26312,5.51698 19.20508,6.05078 -4.8661,9.32891 -5.99154,20.50444 -3.5,30.82812 0.83343,5.69486 2.29688,15.15544 -4.5586,17.52539 -7.27994,0.38929 -18.62986,0.59199 -18.73632,10.41602 3.84986,9.2394 15.96396,4.19611 23.26367,2.9082 13.3368,-2.89897 22.49489,-15.33158 23.54101,-28.61914 0.35469,-9.21166 5.07296,-16.85415 10.89063,-23.58594 1.70827,0.43357 3.71883,0.65045 5.53515,0.74805 19.78515,3.84204 39.03997,-10.23323 58.53125,-2.94531 22.63365,6.74179 40.43448,22.6926 58.09375,37.5625 10.07306,6.89363 15.75318,17.66464 23.02344,26.9375 5.16982,7.03656 22.98816,11.43166 21.42578,-2.06055 -8.14909,-26.49715 -30.4881,-45.08396 -52.45117,-60.41601 -19.35803,-15.93235 -43.35889,-24.01973 -64.74414,-36.58985 -18.97099,-9.69166 -36.07978,-23.52314 -57.1582,-28.50195 -3.93505,-1.59134 -8.07405,-2.9348 -12.21875,-4.30664 1.37564,-5.60799 1.92888,-11.53919 2.30469,-16.9707 -0.34152,-9.40328 -0.59951,-21.00976 6.46874,-28.01758 1.37941,3.69868 3.57793,5.93159 6.72266,1.71484 0.0177,8.4e-4 0.031,0.005 0.0488,0.006 4.65843,-2.88216 7.23152,-10.28616 6.19531,-15.58984 -0.0499,-6.51927 -6.67414,-12.50769 -13.42187,-12.31055 -5.96567,-2.99291 -1.98882,13.02263 -1.36328,16.66602 0.027,0.94177 0.15356,2.26236 0.3789,3.70703 -6.18923,2.50522 -9.12439,8.22826 -10.79687,14.73633 -2.30645,11.09717 0.0508,22.75103 -3.0918,33.80859 -7.33298,-2.66525 -14.35435,-5.9225 -19.92383,-11.43555 -6.17859,-9.11536 0.55022,-20.22137 6.39649,-27.65625 6.29887,-6.4534 9.96586,-16.58849 3.74023,-24.39258 -9.30821,-12.10549 -24.94547,-18.72851 -40.06641,-19.07617 z m -7.65429,6.51563 c 1.6129,0.0231 3.06384,0.0939 4.09765,0.13281 13.94722,-0.0994 28.57877,4.94261 37.65235,15.83594 5.00995,5.56595 0.99411,12.30778 -3.2461,16.83008 -7.84646,9.52355 -14.43358,23.77255 -6.92968,35.36328 6.40126,7.30121 15.0825,11.26745 24.12304,14.50976 -3.21665,7.17653 -10.74655,11.91009 -18.64648,12.73828 -10.88795,4.78777 7.74416,7.87228 12.03515,3.53125 6.45253,-2.9748 10.39187,-8.11118 12.875,-14.11718 4.1249,1.37862 8.23216,2.73432 12.14649,4.29882 17.51376,3.8317 31.85744,14.86932 47.375,23.14258 18.57272,11.60934 39.12734,19.48135 57.91016,30.66016 23.99593,16.77389 50.71167,33.57371 62.73046,61.55078 3.99384,6.5447 1.41811,7.23302 -4.25976,3.67188 -9.18577,-5.63171 -11.33099,-17.54621 -20.11133,-23.82813 -18.37745,-15.52246 -36.10932,-33.00568 -58.89453,-41.93164 -13.76234,-7.09507 -29.76748,-6.93053 -44.32617,-2.55859 -8.04314,2.63863 -16.43723,2.68483 -24.73047,1.88476 0.37724,-0.37869 0.75186,-0.769 1.12891,-1.14258 18.81745,-16.15764 -5.18092,-9.71149 -13.10157,4.10742 -8.45216,8.13954 -10.82085,19.76547 -12.51758,30.85938 -1.83759,10.99644 -12.08975,18.66672 -22.59375,20.43945 -7.18337,1.30505 -10.0198,0.37649 -9.18554,0.10938 3.73243,-4.4964 13.26182,-1.12127 17.96679,-7.02149 9.49538,-9.98973 2.98705,-22.46566 3.79102,-34.29687 0.32649,-6.17513 2.68976,-11.51867 6.00781,-16.35352 l 0.0703,0.45313 c 0.0252,-0.21687 0.0377,-0.42022 0.0488,-0.62305 3.95554,-5.71043 9.23408,-10.71195 14.09961,-15.50195 8.4422,-11.16723 -11.183,-0.88083 -15.46093,6.1914 -1.14752,1.13531 -2.2046,2.3375 -3.18165,3.5918 -3.3986,-0.84269 -7.89742,-0.531 -10.61914,-1.85547 -10.96681,-2.67512 -22.40623,-8.80579 -27.3125,-19.73242 -4.92091,-14.97636 -4.93255,-31.11314 -5.92382,-46.7207 -1.08637,-12.86278 7.03628,-23.60125 -1.14063,-35.375 -0.47451,-2.14729 -2.63448,-4.8488 -4.95508,-6.80078 -6.94448,-7.53699 -19.94016,-15.67033 -18.89648,-18.73047 0.84307,-3.01206 7.13591,-3.3817 11.97461,-3.3125 z m 71.54492,14.15429 c -0.0156,0.0362 -0.0527,0.0541 -0.14844,0.0274 0.053,-0.014 0.0965,-0.015 0.14844,-0.0274 z"
         clip-path="none" />
    </g>
  </g>
</svg>
