<?xml version="1.0" encoding="UTF-8" standalone="no"?>
<!-- Created with Inkscape (http://www.inkscape.org/) -->

<svg
   xmlns:dc="http://purl.org/dc/elements/1.1/"
   xmlns:cc="http://creativecommons.org/ns#"
   xmlns:rdf="http://www.w3.org/1999/02/22-rdf-syntax-ns#"
   xmlns:svg="http://www.w3.org/2000/svg"
   xmlns="http://www.w3.org/2000/svg"
   xmlns:sodipodi="http://sodipodi.sourceforge.net/DTD/sodipodi-0.dtd"
   xmlns:inkscape="http://www.inkscape.org/namespaces/inkscape"
   width="6in"
   height="5in"
   id="svg2985"
   version="1.1"
   inkscape:version="0.91 r13725"
   sodipodi:docname="vad2000.svg"
   style="display:inline">
  <title
     id="title3241">VAD 2000</title>
  <defs
     id="defs2987" />
  <sodipodi:namedview
     inkscape:document-units="in"
     pagecolor="#ffffff"
     bordercolor="#666666"
     borderopacity="1.0"
     inkscape:pageopacity="0"
     inkscape:pageshadow="2"
     inkscape:zoom="1"
     inkscape:cx="260.44831"
     inkscape:cy="235.09496"
     inkscape:current-layer="layer1"
     id="namedview2989"
     showgrid="false"
     showguides="true"
     inkscape:guide-bbox="true"
     inkscape:window-width="1366"
     inkscape:window-height="744"
     inkscape:window-x="0"
     inkscape:window-y="24"
     inkscape:window-maximized="1"
     fit-margin-top="0"
     fit-margin-left="0"
     fit-margin-right="0"
     fit-margin-bottom="0"
     units="in" />
  <metadata
     id="metadata2991">
    <rdf:RDF>
      <cc:Work
         rdf:about="">
        <dc:format>image/svg+xml</dc:format>
        <dc:type
           rdf:resource="http://purl.org/dc/dcmitype/StillImage" />
        <dc:title>VAD 2000</dc:title>
        <cc:license
           rdf:resource="http://creativecommons.org/licenses/by-sa/3.0/" />
        <dc:creator>
          <cc:Agent>
            <dc:title>Ryan Finnie</dc:title>
          </cc:Agent>
        </dc:creator>
      </cc:Work>
      <cc:License
         rdf:about="http://creativecommons.org/licenses/by-sa/3.0/">
        <cc:permits
           rdf:resource="http://creativecommons.org/ns#Reproduction" />
        <cc:permits
           rdf:resource="http://creativecommons.org/ns#Distribution" />
        <cc:requires
           rdf:resource="http://creativecommons.org/ns#Notice" />
        <cc:requires
           rdf:resource="http://creativecommons.org/ns#Attribution" />
        <cc:permits
           rdf:resource="http://creativecommons.org/ns#DerivativeWorks" />
        <cc:requires
           rdf:resource="http://creativecommons.org/ns#ShareAlike" />
      </cc:License>
    </rdf:RDF>
  </metadata>
  <g
     inkscape:groupmode="layer"
     id="layer1"
     inkscape:label="Regular"
     style="display:inline">
    <g
       inkscape:groupmode="layer"
       id="layer2"
       inkscape:label="Bomb fills"
       style="display:inline"
       transform="translate(-211.61809,-124.00455)">
      <g
         id="g3445">
        <path
           inkscape:connector-curvature="0"
           id="path3963"
           d="m 668.83087,498.34225 c 0,-0.13397 0.29221,-1.14953 0.64935,-2.2568 0.35713,-1.10727 2.23935,-7.39205 4.1827,-13.96619 4.5154,-15.27511 10.09695,-30.17008 15.41431,-41.13482 3.11586,-6.42508 4.34742,-8.37038 4.79402,-7.57235 0.33055,0.59065 1.39375,4.12508 2.36268,7.85429 4.17378,16.06399 1.2394,29.39718 -9.17637,41.69547 -4.73132,5.58644 -18.22669,16.97437 -18.22669,15.3804 z"
           style="fill:#e2e2e2;fill-opacity:1;stroke:#e2e2e2;stroke-width:4.30581951;stroke-linecap:butt;stroke-linejoin:round;stroke-miterlimit:4;stroke-dasharray:none;stroke-opacity:1" />
        <path
           inkscape:connector-curvature="0"
           id="path3965"
           d="m 584.11422,524.53308 c -0.9548,-0.13792 -4.54831,-0.60129 -7.98559,-1.02971 -13.42594,-1.67342 -30.87885,-6.96825 -47.91351,-14.53593 -16.0371,-7.1245 -19.79037,-9.01704 -19.79037,-9.979 0,-0.51927 0.63532,-4.02521 1.41182,-7.79096 0.7765,-3.76575 2.03285,-10.75282 2.79189,-15.52682 8.16132,-51.33117 16.06505,-77.34281 32.07128,-105.54861 9.85365,-17.36386 26.49208,-40.27513 29.24826,-40.27513 5.05828,0 22.27256,6.06603 35.51178,12.51376 34.70131,16.90015 61.05907,42.12776 76.41392,73.13745 l 4.41692,8.92015 -1.68532,2.66971 c -8.05231,12.75569 -17.37765,36.91776 -25.31002,65.57854 -2.68119,9.6875 -3.80864,12.75287 -5.03554,13.69085 -0.86946,0.66472 -5.64308,3.2228 -10.60803,5.68462 -12.70485,6.29957 -25.93397,10.32245 -40.15178,12.20989 -5.07052,0.67313 -19.47354,0.84631 -23.38571,0.28119 l 0,0 z"
           style="fill:#e2e2e2;fill-opacity:1;stroke:#e2e2e2;stroke-width:4.30581951;stroke-linecap:butt;stroke-linejoin:round;stroke-miterlimit:4;stroke-dasharray:none;stroke-opacity:1" />
        <path
           style="fill:#e2e2e2;fill-opacity:1;stroke:#e2e2e2;stroke-width:4.30581951;stroke-linecap:butt;stroke-linejoin:round;stroke-miterlimit:4;stroke-dasharray:none;stroke-opacity:1"
           d="m 212.4375,192.45703 -5.55469,6.74805 c -18.92582,22.99584 -24.82534,37.0044 -27.75976,65.92187 -0.94095,9.27264 -0.96866,11.2006 -0.17969,12.15039 15.32921,18.45386 46.52873,50.54547 60.57617,62.3086 14.32945,11.9993 22.97186,17.88814 40.27344,27.43359 5.34687,2.94991 9.92764,5.15505 10.17773,4.90039 0.42967,-0.43752 2.08508,-9.34479 7.89258,-42.47461 4.31369,-24.60807 8.57787,-40.64978 15.41406,-57.98242 8.04174,-20.38921 19.01056,-39.64785 33.83789,-59.40625 3.27843,-4.36872 5.72261,-8.02119 5.42969,-8.11719 -0.29292,-0.096 -3.70362,-0.73936 -7.57812,-1.42968 l -7.04492,-1.25586 -32.23829,-4.25 -8.08398,-0.83203 c -17.14062,-1.76103 -37.49426,-2.85618 -60.85938,-3.27735 l -24.30273,-0.4375 z"
           transform="translate(211.61809,124.00455)"
           id="path3967"
           inkscape:connector-curvature="0" />
      </g>
      <path
         style="fill:#e2e2e2;fill-opacity:1;stroke:#e2e2e2;stroke-width:4.30581951;stroke-linecap:butt;stroke-linejoin:round;stroke-miterlimit:4;stroke-dasharray:none;stroke-opacity:1"
         d="m 282.05074,425.01828 c -18.14761,-8.8986 -29.48343,-14.83419 -29.4379,-15.41407 0.054,-0.68822 68.10011,-186.1986 68.6655,-187.19908 0.22352,-0.39553 58.99372,21.23668 59.15019,21.77207 0.29797,1.01952 -67.46248,194.91945 -68.18763,195.12236 -0.37301,0.10437 -13.95859,-6.3222 -30.19016,-14.28128 z"
         id="path3969"
         inkscape:connector-curvature="0" />
      <path
         style="fill:#9a9a9a;fill-opacity:1;stroke:#9a9a9a;stroke-width:4.30581951;stroke-linecap:butt;stroke-linejoin:round;stroke-miterlimit:4;stroke-dasharray:none;stroke-opacity:1"
         d="m 393.43589,249.46257 c -0.19988,0.19988 6.30463,12.86459 25.15625,48.96875 l 5.875,11.28125 15.9375,0 15.9375,0 -10.53125,-21.09375 -10.5625,-21.125 -20.78125,-9.125 c -11.4363,-5.01942 -20.9079,-9.0296 -21.03125,-8.90625 z m -7.84375,2.125 c -0.15648,0.45986 -7.41902,21.28019 -16.125,46.28125 -8.70598,25.00105 -15.72864,45.58387 -15.59375,45.71875 0.13489,0.13489 8.49821,2.37051 18.5625,4.96875 10.06429,2.59825 18.3223,4.6701 18.375,4.625 0.0527,-0.045 1.83509,-3.45657 3.96875,-7.59375 4.47848,-8.68381 9.43351,-15.98418 17.53125,-25.875 l 5.75,-7 -16.09375,-30.96875 c -8.85007,-17.03996 -16.21852,-30.6161 -16.375,-30.15625 z m 60.46875,20.96875 c -0.11761,0.1113 4.03934,8.67791 9.21875,19.03125 l 9.40625,18.8125 4.15625,0 c 2.29015,0 4.15625,-0.06 4.15625,-0.15625 0,-1.26567 -4.90036,-27.90036 -5.1875,-28.1875 -0.60144,-0.60143 -21.50505,-9.7318 -21.75,-9.5 z m -94.25,78.09375 c -0.54444,0.0192 -28.8811,79.69675 -30.0625,84.53125 -0.1867,0.76399 58.65317,-34.10801 60.53125,-35.875 0.31339,-0.29485 1.01651,-5.03947 1.5625,-10.53125 1.05812,-10.64281 2.42966,-19.57704 3.9375,-25.3125 l 0.9375,-3.5 -18.09375,-4.6875 c -9.95206,-2.56346 -18.41579,-4.639 -18.8125,-4.625 z m 33.1875,55.59375 c -0.37069,0 -55.75908,33.25711 -56.625,34 -0.29988,0.25725 1.10648,0.35999 3.125,0.21875 4.70318,-0.32911 78.22431,-4.375 79.5,-4.375 0.52786,0 -5.02942,-6.72623 -12.34375,-14.9375 -7.31434,-8.21127 -13.47268,-14.90625 -13.65625,-14.90625 z"
         id="path3971"
         inkscape:connector-curvature="0" />
    </g>
    <g
       inkscape:label="Bomb lines"
       id="g3821"
       inkscape:groupmode="layer"
       style="display:inline"
       transform="translate(-211.61809,-124.00455)">
      <g
         id="g3852"
         transform="translate(13.748394,-23.568676)">
        <path
           style="fill:none;stroke:#000000;stroke-width:6.20078754;stroke-linecap:butt;stroke-linejoin:round;stroke-miterlimit:4;stroke-dasharray:none;stroke-opacity:1"
           d="m 233.96822,435.65229 71.5653,-194.31883 66.0414,23.93694 -70.70603,203.15708 z"
           inkscape:connector-curvature="0"
           id="path3002"
           sodipodi:nodetypes="ccccc" />
        <path
           style="fill:none;stroke:#000000;stroke-width:6.20078754;stroke-linecap:butt;stroke-linejoin:miter;stroke-miterlimit:4;stroke-dasharray:none;stroke-opacity:1"
           d="M 379.18564,381.02697 334.74886,369.48814"
           id="path3824"
           inkscape:connector-curvature="0" />
        <path
           style="fill:none;stroke:#000000;stroke-width:6.20078754;stroke-linecap:butt;stroke-linejoin:miter;stroke-miterlimit:4;stroke-dasharray:none;stroke-opacity:1"
           d="m 371.57492,425.341 -70.95154,42.71822"
           id="path3826"
           inkscape:connector-curvature="0" />
        <path
           style="fill:none;stroke:#000000;stroke-width:6.20078754;stroke-linecap:butt;stroke-linejoin:miter;stroke-miterlimit:4;stroke-dasharray:none;stroke-opacity:1"
           d="m 405.12875,462.62211 -104.28362,5.8141"
           id="path3828"
           inkscape:connector-curvature="0"
           sodipodi:nodetypes="cc" />
        <path
           style="fill:none;stroke:#000000;stroke-width:6.20078754;stroke-linecap:butt;stroke-linejoin:miter;stroke-miterlimit:4;stroke-dasharray:none;stroke-opacity:1"
           d="M 408.6352,336.91995 371.32941,265.2704"
           id="path3830"
           inkscape:connector-curvature="0"
           sodipodi:nodetypes="cc" />
        <path
           style="fill:none;stroke:#000000;stroke-width:6.20078754;stroke-linecap:butt;stroke-linejoin:miter;stroke-miterlimit:4;stroke-dasharray:none;stroke-opacity:1"
           d="M 448.21524,336.67444 424.00301,288.1868"
           id="path3832"
           inkscape:connector-curvature="0"
           sodipodi:nodetypes="cc" />
        <path
           style="fill:none;stroke:#000000;stroke-width:6.20078754;stroke-linecap:butt;stroke-linejoin:round;stroke-miterlimit:4;stroke-dasharray:none;stroke-opacity:1"
           d="M 463.51731,337.94049 457.45154,303.0487 370.85585,264.98894"
           id="path3834"
           inkscape:connector-curvature="0"
           sodipodi:nodetypes="ccc" />
        <path
           style="fill:none;stroke:#000000;stroke-width:6.20078754;stroke-linecap:butt;stroke-linejoin:miter;stroke-miterlimit:4;stroke-dasharray:none;stroke-opacity:1"
           d="m 408.65369,336.90314 c -37.89298,41.27668 -32.73336,62.68293 -36.45593,88.18865 64.06723,74.92759 89.48786,85.12213 117.70059,99.99343 31.60663,14.62138 93.1093,49.90535 161.10052,4.86079 25.21122,-17.80662 50.04472,-37.01998 29.16475,-81.93906 C 651.44258,375.32473 574.09119,350.93865 557.25504,349.05512 509.1366,339.78023 452.8959,336.11789 408.65369,336.90314 Z"
           inkscape:connector-curvature="0"
           sodipodi:nodetypes="ccccccc"
           id="path3836" />
        <path
           style="fill:none;stroke:#000000;stroke-width:6.20078754;stroke-linecap:butt;stroke-linejoin:miter;stroke-miterlimit:4;stroke-dasharray:none;stroke-opacity:1"
           d="m 557.94943,348.70792 c -58.82846,70.91784 -55.38502,121.07839 -67.35668,176.3773"
           id="path3838"
           inkscape:connector-curvature="0"
           sodipodi:nodetypes="cc" />
        <path
           style="fill:none;stroke:#000000;stroke-width:6.20078754;stroke-linecap:butt;stroke-linejoin:miter;stroke-miterlimit:4;stroke-dasharray:none;stroke-opacity:1"
           d="m 680.16362,448.70135 c -11.82508,17.54 -21.84739,46.49758 -30.90074,81.59186"
           id="path3840"
           inkscape:connector-curvature="0"
           sodipodi:nodetypes="cc" />
      </g>
    </g>
    <g
       inkscape:groupmode="layer"
       id="layer5"
       inkscape:label="Raptor fills"
       style="display:inline">
      <path
         style="opacity:1;fill:#90ab99;fill-opacity:1;stroke:#90ab99;stroke-width:7.19999981;stroke-miterlimit:4;stroke-dasharray:none;stroke-opacity:1"
         d="m 495.69091,260.33067 c -2.61057,-1.3703 -5.66799,-4.7345 -12.25076,-13.48001 -15.75758,-20.93469 -42.33141,-42.34262 -66.105,-53.25433 -11.0977,-5.09368 -16.3328,-6.25942 -27.89424,-6.21143 -8.57487,0.0356 -12.36251,0.61019 -21.5,3.26166 -3.01324,0.87436 -5.50217,1.13523 -12.66822,1.32777 l -8.91821,0.23963 3.24568,-3.32654 c 3.92181,-4.01952 5.30863,-6.53317 4.21037,-7.63143 -0.60147,-0.60147 -1.10646,-0.6301 -2.84689,-0.16145 -6.08755,1.6392 -16.07858,10.15301 -21.21587,18.07898 -5.11379,7.88972 -7.2921,14.00194 -8.50648,23.86877 -0.89558,7.27653 -2.57007,10.77909 -7.26797,15.20256 -3.92197,3.69287 -8.13012,6.03821 -13.12544,7.31527 -4.98967,1.27562 -10.18499,1.80422 -10.63152,1.08173 -0.49646,-0.8033 2.24726,-1.82758 7.50047,-2.80008 5.78467,-1.07088 8.034,-2.09239 10.40649,-4.726 4.64103,-5.15182 5.49343,-10.1156 4.0383,-23.51617 -0.77944,-7.17797 -0.82891,-9.05499 -0.31731,-12.03843 1.30195,-7.59238 4.75462,-14.01433 11.80676,-21.96051 2.0745,-2.3375 5.12587,-5.77453 6.78083,-7.63784 5.17606,-5.82771 3.73118,-7.51118 -3.4537,-4.024 -3.08339,1.49652 -4.80064,2.85065 -9.23951,7.28576 l -5.45221,5.44759 -4.79779,-0.80911 c -9.80655,-1.6538 -18.54804,-5.50085 -24.0284,-10.5747 -9.61125,-8.89832 -12.7914,-20.44333 -13.82457,-50.1877 -0.27563,-7.93551 -0.16199,-10.49344 0.7997,-18 2.5882,-20.202312 0.30384,-25.566709 -16.74451,-39.321416 -6.35283,-5.125497 -9.36558,-8.358723 -9.15673,-9.826837 0.40033,-2.814222 8.14107,-3.964868 19.36394,-2.878414 12.19571,1.180632 21.29804,4.686783 29.06239,11.194623 5.12057,4.291903 6.69873,6.64845 6.67999,9.974705 -0.0184,3.274468 -1.06244,5.32382 -5.66841,11.127167 -4.20173,5.294015 -8.1338,12.982544 -9.24589,18.078872 -2.79486,12.80782 2.5451,21.03354 18.44856,28.41839 2.48388,1.1534 5.36192,2.37076 6.39564,2.70525 l 1.87948,0.60817 -0.87948,1.53181 c -1.6836,2.93231 -5.51179,6.66206 -7.95564,7.75105 -1.33312,0.59405 -4.18579,1.58098 -6.33928,2.19319 -6.08779,1.73069 -7.92839,3.87644 -4.98109,5.80691 1.06205,0.69564 2.38779,0.88424 6.15708,0.87591 4.44229,-0.01 5.06444,-0.13877 8.27152,-1.7144 4.09024,-2.00952 7.67045,-5.48625 10.33423,-10.03552 1.02647,-1.75304 1.93811,-3.40274 2.02587,-3.66601 0.41643,-1.24928 25.80336,8.18274 34.21612,12.71234 2.53456,1.36466 10.52206,5.92757 17.75,10.13979 17.99189,10.48514 21.72911,12.50495 40.3917,21.83003 19.99462,9.99066 22.24441,11.25813 32.25,18.16878 28.44435,19.64592 39.37526,29.67318 50.23816,46.08502 5.42283,8.19289 7.12126,11.66692 6.91528,14.14475 -0.12892,1.5509 -0.35317,1.8672 -1.40344,1.97952 -0.6875,0.0735 -1.925,-0.22062 -2.75,-0.65367 z"
         id="path4677"
         inkscape:connector-curvature="0" />
    </g>
    <g
       inkscape:groupmode="layer"
       id="layer6"
       inkscape:label="Raptor lines"
       style="display:inline"
       transform="translate(-211.61809,-124.00455)">
      <path
         style="display:inline;fill:#000000;fill-opacity:1;fill-rule:nonzero;stroke:none"
         clip-path="none"
         d="m 455.53782,169.73805 c -11.89031,5.52925 -6.81394,12.30366 0.68195,18.8119 4.21812,3.66234 9.22388,6.65965 12.70636,9.97317 4.12704,3.9268 8.04823,10.18867 7.33008,15.85547 -3.6076,28.46704 -1.37069,42.721 1.60742,63.17968 3.02354,20.77075 22.13923,31.65436 42.87696,35.22852 -4.8661,9.32891 -5.8172,20.46391 -3.5,30.82812 2.49408,11.15536 0.22567,15.90195 -4.40775,17.40459 -4.65389,1.50927 -12.17604,-0.50074 -16.642,4.48901 -3.024,3.37867 -3.08575,7.08716 0.59837,9.78134 5.23243,3.82645 14.4796,0.39074 20.42013,-0.82533 13.37095,-2.73713 22.71277,-15.31622 23.54101,-28.61914 0.57284,-9.20067 5.07296,-16.85415 10.89063,-23.58594 12.78358,2.87815 24.34582,0.39187 35.30654,-2.17947 10.44413,-2.45015 20.47224,-3.14578 28.75986,-0.0178 36.17381,13.65303 59.94978,36.86946 81.11719,64.5 5.31003,6.93136 23.17006,11.40935 21.42578,-2.06055 -0.85881,-6.632 -4.56999,-11.92288 -7.82699,-17.2986 -10.71586,-17.68667 -28.30821,-30.63735 -44.62418,-43.11741 -19.91378,-15.23202 -43.31649,-24.09214 -64.74414,-36.58985 -14.54292,-8.48218 -27.11142,-16.43338 -40.01572,-22.37173 -9.41132,-4.33094 -19.16729,-7.06422 -29.36123,-10.43686 1.37564,-5.60799 2.29211,-11.52622 2.30469,-16.9707 0.0217,-9.40945 -0.59951,-21.00976 6.46874,-28.01758 1.37941,3.69868 4.26987,5.72448 6.83433,0.2773 10.04459,-3.13154 8.02982,-25.07256 -4.67959,-26.60517 -10.09244,-8.51435 -4.72778,15.25253 -3.70226,20.568 -6.18923,2.50522 -9.20752,8.13543 -10.68883,14.68966 -2.49863,11.05548 0.0508,22.75103 -3.0918,33.80859 -4.91122,-1.78503 -9.53027,-3.52367 -13.82866,-6.32372 -4.03652,-2.62947 -7.46021,-5.63709 -8.21812,-10.12523 -1.38765,-8.21728 3.43791,-16.78012 8.51944,-22.64285 5.90642,-6.81443 9.88123,-16.52172 3.74023,-24.39258 -9.39343,-12.03948 -26.67175,-19.30249 -40.41465,-19.02739 -6.92378,0.1386 -14.16557,-0.61404 -19.38379,1.81255 z m 53.82776,20.62296 c 4.96244,5.60835 0.79744,12.13111 -3.2461,16.83008 -8.04865,9.35329 -14.73961,24.61801 -6.55468,35.73828 5.75587,7.82009 20.8325,12.95495 23.74804,14.13476 -2.27061,4.85969 -5.1471,9.32149 -11.0232,10.70372 -19.82326,4.66302 -7.60831,9.81344 2.4384,6.70643 7.88168,-2.43746 12.1469,-8.9673 14.84847,-15.2578 9.96804,2.53446 16.97925,4.63087 29.38424,10.51973 10.8531,5.15216 20.5064,11.18318 30.13725,16.92167 18.81571,11.21124 39.58095,18.75217 57.91016,30.66016 21.22395,13.78863 43.18323,29.47687 57.4459,50.76443 15.46021,23.07494 3.16687,20.66523 -5.3797,8.65014 -17.33266,-24.3669 -47.79856,-48.77603 -72.60136,-59.95168 -14.06886,-6.33915 -29.80759,-7.06192 -44.32617,-2.55859 -8.0849,2.50775 -16.43723,2.68483 -24.73047,1.88476 22.79208,-20.17369 -7.77472,-10.97492 -19.50054,13.6842 -3.608,7.58753 -4.34419,15.12314 -4.9897,20.14002 -1.42277,11.05776 -12.12351,18.47717 -22.59375,20.43945 -12.2943,2.30414 -11.80946,-1.07535 -2.27111,-2.63292 3.94683,-0.6445 8.42745,-1.40978 11.05236,-4.27919 9.30279,-10.16931 2.83368,-22.47708 3.79102,-34.29687 0.62405,-7.70481 4.14508,-13.98302 8.48359,-19.52788 3.55921,-4.54888 7.02404,-7.99931 11.12916,-12.49751 6.84437,-7.49974 -1.36564,-5.10151 -7.98181,-0.43463 -4.62456,3.26205 -8.51201,8.25658 -10.047,10.21783 -26.07501,-2.79226 -36.33354,-14.12861 -40.17524,-29.54218 -3.30608,-13.26455 -2.89543,-25.60948 -3.23828,-38.50124 -0.26104,-9.81543 2.22157,-17.25825 1.79115,-24.79312 -0.17841,-3.12324 -0.49507,-6.14775 -2.13733,-9.43743 -1.33708,-2.67835 -3.73166,-5.62187 -6.19147,-8.2104 -2.74212,-2.88562 -7.29183,-6.5676 -11.45601,-10.01172 -7.47358,-6.18126 -12.72377,-11.7927 2.92126,-12.0543 7.50746,-0.12553 15.5211,0.46603 22.72103,2.74494 8.45685,2.67675 15.78903,7.76235 20.64189,13.24686 z"
         id="path3433"
         inkscape:connector-curvature="0"
         sodipodi:nodetypes="ssssscsssssscsssssssscsccccscssssssssscsscssssssscssssssssscsssssssss" />
    </g>
  </g>
  <g
     inkscape:groupmode="layer"
     id="layer3"
     inkscape:label="Dark"
     style="display:none">
    <g
       inkscape:groupmode="layer"
       id="layer7"
       inkscape:label="Dark test background"
       style="display:none">
      <rect
         style="opacity:1;fill:#000000;fill-opacity:1;stroke:#b0b0b0;stroke-opacity:1"
         id="rect3451"
         width="540"
         height="450"
         x="0"
         y="0" />
    </g>
    <g
       transform="translate(-211.61809,-124.00455)"
       style="display:inline"
       inkscape:label="Bomb fills (dark)"
       id="g3485"
       inkscape:groupmode="layer">
      <g
         id="g3487"
         style="fill:#a9a9a9;fill-opacity:1;stroke:#a9a9a9;stroke-opacity:1">
        <path
           style="fill:#a9a9a9;fill-opacity:1;stroke:#a9a9a9;stroke-width:4.30581951;stroke-linecap:butt;stroke-linejoin:round;stroke-miterlimit:4;stroke-dasharray:none;stroke-opacity:1"
           d="m 668.83087,498.34225 c 0,-0.13397 0.29221,-1.14953 0.64935,-2.2568 0.35713,-1.10727 2.23935,-7.39205 4.1827,-13.96619 4.5154,-15.27511 10.09695,-30.17008 15.41431,-41.13482 3.11586,-6.42508 4.34742,-8.37038 4.79402,-7.57235 0.33055,0.59065 1.39375,4.12508 2.36268,7.85429 4.17378,16.06399 1.2394,29.39718 -9.17637,41.69547 -4.73132,5.58644 -18.22669,16.97437 -18.22669,15.3804 z"
           id="path3489"
           inkscape:connector-curvature="0" />
        <path
           style="fill:#a9a9a9;fill-opacity:1;stroke:#a9a9a9;stroke-width:4.30581951;stroke-linecap:butt;stroke-linejoin:round;stroke-miterlimit:4;stroke-dasharray:none;stroke-opacity:1"
           d="m 584.11422,524.53308 c -0.9548,-0.13792 -4.54831,-0.60129 -7.98559,-1.02971 -13.42594,-1.67342 -30.87885,-6.96825 -47.91351,-14.53593 -16.0371,-7.1245 -19.79037,-9.01704 -19.79037,-9.979 0,-0.51927 0.63532,-4.02521 1.41182,-7.79096 0.7765,-3.76575 2.03285,-10.75282 2.79189,-15.52682 8.16132,-51.33117 16.06505,-77.34281 32.07128,-105.54861 9.85365,-17.36386 26.49208,-40.27513 29.24826,-40.27513 5.05828,0 22.27256,6.06603 35.51178,12.51376 34.70131,16.90015 61.05907,42.12776 76.41392,73.13745 l 4.41692,8.92015 -1.68532,2.66971 c -8.05231,12.75569 -17.37765,36.91776 -25.31002,65.57854 -2.68119,9.6875 -3.80864,12.75287 -5.03554,13.69085 -0.86946,0.66472 -5.64308,3.2228 -10.60803,5.68462 -12.70485,6.29957 -25.93397,10.32245 -40.15178,12.20989 -5.07052,0.67313 -19.47354,0.84631 -23.38571,0.28119 l 0,0 z"
           id="path3491"
           inkscape:connector-curvature="0" />
        <path
           style="fill:#a9a9a9;fill-opacity:1;stroke:#a9a9a9;stroke-width:4.30581951;stroke-linecap:butt;stroke-linejoin:round;stroke-miterlimit:4;stroke-dasharray:none;stroke-opacity:1"
           d="m 212.4375,192.45703 -5.55469,6.74805 c -18.92582,22.99584 -24.82534,37.0044 -27.75976,65.92187 -0.94095,9.27264 -0.96866,11.2006 -0.17969,12.15039 15.32921,18.45386 46.52873,50.54547 60.57617,62.3086 14.32945,11.9993 22.97186,17.88814 40.27344,27.43359 5.34687,2.94991 9.92764,5.15505 10.17773,4.90039 0.42967,-0.43752 2.08508,-9.34479 7.89258,-42.47461 4.31369,-24.60807 8.57787,-40.64978 15.41406,-57.98242 8.04174,-20.38921 19.01056,-39.64785 33.83789,-59.40625 3.27843,-4.36872 5.72261,-8.02119 5.42969,-8.11719 -0.29292,-0.096 -3.70362,-0.73936 -7.57812,-1.42968 l -7.04492,-1.25586 -32.23829,-4.25 -8.08398,-0.83203 c -17.14062,-1.76103 -37.49426,-2.85618 -60.85938,-3.27735 l -24.30273,-0.4375 z"
           transform="translate(211.61809,124.00455)"
           id="path3493"
           inkscape:connector-curvature="0" />
      </g>
      <path
         inkscape:connector-curvature="0"
         id="path3495"
         d="m 282.05074,425.01828 c -18.14761,-8.8986 -29.48343,-14.83419 -29.4379,-15.41407 0.054,-0.68822 68.10011,-186.1986 68.6655,-187.19908 0.22352,-0.39553 58.99372,21.23668 59.15019,21.77207 0.29797,1.01952 -67.46248,194.91945 -68.18763,195.12236 -0.37301,0.10437 -13.95859,-6.3222 -30.19016,-14.28128 z"
         style="fill:#a9a9a9;fill-opacity:1;stroke:#a9a9a9;stroke-width:4.30581951;stroke-linecap:butt;stroke-linejoin:round;stroke-miterlimit:4;stroke-dasharray:none;stroke-opacity:1" />
      <path
         inkscape:connector-curvature="0"
         id="path3497"
         d="m 393.43589,249.46257 c -0.19988,0.19988 6.30463,12.86459 25.15625,48.96875 l 5.875,11.28125 15.9375,0 15.9375,0 -10.53125,-21.09375 -10.5625,-21.125 -20.78125,-9.125 c -11.4363,-5.01942 -20.9079,-9.0296 -21.03125,-8.90625 z m -7.84375,2.125 c -0.15648,0.45986 -7.41902,21.28019 -16.125,46.28125 -8.70598,25.00105 -15.72864,45.58387 -15.59375,45.71875 0.13489,0.13489 8.49821,2.37051 18.5625,4.96875 10.06429,2.59825 18.3223,4.6701 18.375,4.625 0.0527,-0.045 1.83509,-3.45657 3.96875,-7.59375 4.47848,-8.68381 9.43351,-15.98418 17.53125,-25.875 l 5.75,-7 -16.09375,-30.96875 c -8.85007,-17.03996 -16.21852,-30.6161 -16.375,-30.15625 z m 60.46875,20.96875 c -0.11761,0.1113 4.03934,8.67791 9.21875,19.03125 l 9.40625,18.8125 4.15625,0 c 2.29015,0 4.15625,-0.06 4.15625,-0.15625 0,-1.26567 -4.90036,-27.90036 -5.1875,-28.1875 -0.60144,-0.60143 -21.50505,-9.7318 -21.75,-9.5 z m -94.25,78.09375 c -0.54444,0.0192 -28.8811,79.69675 -30.0625,84.53125 -0.1867,0.76399 58.65317,-34.10801 60.53125,-35.875 0.31339,-0.29485 1.01651,-5.03947 1.5625,-10.53125 1.05812,-10.64281 2.42966,-19.57704 3.9375,-25.3125 l 0.9375,-3.5 -18.09375,-4.6875 c -9.95206,-2.56346 -18.41579,-4.639 -18.8125,-4.625 z m 33.1875,55.59375 c -0.37069,0 -55.75908,33.25711 -56.625,34 -0.29988,0.25725 1.10648,0.35999 3.125,0.21875 4.70318,-0.32911 78.22431,-4.375 79.5,-4.375 0.52786,0 -5.02942,-6.72623 -12.34375,-14.9375 -7.31434,-8.21127 -13.47268,-14.90625 -13.65625,-14.90625 z"
         style="fill:#686868;fill-opacity:1;stroke:#686868;stroke-width:4.30581951;stroke-linecap:butt;stroke-linejoin:round;stroke-miterlimit:4;stroke-dasharray:none;stroke-opacity:1" />
    </g>
    <g
       transform="translate(-211.61809,-124.00455)"
       style="display:inline"
       inkscape:groupmode="layer"
       id="g3457"
       inkscape:label="Bomb lines (dark)">
      <g
         transform="translate(13.748394,-23.568676)"
         id="g3459"
         style="stroke:#ffffff">
        <path
           sodipodi:nodetypes="ccccc"
           id="path3461"
           inkscape:connector-curvature="0"
           d="m 233.96822,435.65229 71.5653,-194.31883 66.0414,23.93694 -70.70603,203.15708 z"
           style="fill:none;stroke:#ffffff;stroke-width:6.20078754;stroke-linecap:butt;stroke-linejoin:round;stroke-miterlimit:4;stroke-dasharray:none;stroke-opacity:1" />
        <path
           inkscape:connector-curvature="0"
           id="path3463"
           d="M 379.18564,381.02697 334.74886,369.48814"
           style="fill:none;stroke:#ffffff;stroke-width:6.20078754;stroke-linecap:butt;stroke-linejoin:miter;stroke-miterlimit:4;stroke-dasharray:none;stroke-opacity:1" />
        <path
           inkscape:connector-curvature="0"
           id="path3465"
           d="m 371.57492,425.341 -70.95154,42.71822"
           style="fill:none;stroke:#ffffff;stroke-width:6.20078754;stroke-linecap:butt;stroke-linejoin:miter;stroke-miterlimit:4;stroke-dasharray:none;stroke-opacity:1" />
        <path
           sodipodi:nodetypes="cc"
           inkscape:connector-curvature="0"
           id="path3467"
           d="m 405.12875,462.62211 -104.28362,5.8141"
           style="fill:none;stroke:#ffffff;stroke-width:6.20078754;stroke-linecap:butt;stroke-linejoin:miter;stroke-miterlimit:4;stroke-dasharray:none;stroke-opacity:1" />
        <path
           sodipodi:nodetypes="cc"
           inkscape:connector-curvature="0"
           id="path3469"
           d="M 408.6352,336.91995 371.32941,265.2704"
           style="fill:none;stroke:#ffffff;stroke-width:6.20078754;stroke-linecap:butt;stroke-linejoin:miter;stroke-miterlimit:4;stroke-dasharray:none;stroke-opacity:1" />
        <path
           sodipodi:nodetypes="cc"
           inkscape:connector-curvature="0"
           id="path3471"
           d="M 448.21524,336.67444 424.00301,288.1868"
           style="fill:none;stroke:#ffffff;stroke-width:6.20078754;stroke-linecap:butt;stroke-linejoin:miter;stroke-miterlimit:4;stroke-dasharray:none;stroke-opacity:1" />
        <path
           sodipodi:nodetypes="ccc"
           inkscape:connector-curvature="0"
           id="path3473"
           d="M 463.51731,337.94049 457.45154,303.0487 370.85585,264.98894"
           style="fill:none;stroke:#ffffff;stroke-width:6.20078754;stroke-linecap:butt;stroke-linejoin:round;stroke-miterlimit:4;stroke-dasharray:none;stroke-opacity:1" />
        <path
           id="path3475"
           sodipodi:nodetypes="ccccccc"
           inkscape:connector-curvature="0"
           d="m 408.65369,336.90314 c -37.89298,41.27668 -32.73336,62.68293 -36.45593,88.18865 64.06723,74.92759 89.48786,85.12213 117.70059,99.99343 31.60663,14.62138 93.1093,49.90535 161.10052,4.86079 25.21122,-17.80662 50.04472,-37.01998 29.16475,-81.93906 C 651.44258,375.32473 574.09119,350.93865 557.25504,349.05512 509.1366,339.78023 452.8959,336.11789 408.65369,336.90314 Z"
           style="fill:none;stroke:#ffffff;stroke-width:6.20078754;stroke-linecap:butt;stroke-linejoin:miter;stroke-miterlimit:4;stroke-dasharray:none;stroke-opacity:1" />
        <path
           sodipodi:nodetypes="cc"
           inkscape:connector-curvature="0"
           id="path3477"
           d="m 557.94943,348.70792 c -58.82846,70.91784 -55.38502,121.07839 -67.35668,176.3773"
           style="fill:none;stroke:#ffffff;stroke-width:6.20078754;stroke-linecap:butt;stroke-linejoin:miter;stroke-miterlimit:4;stroke-dasharray:none;stroke-opacity:1" />
        <path
           sodipodi:nodetypes="cc"
           inkscape:connector-curvature="0"
           id="path3479"
           d="m 680.16362,448.70135 c -11.82508,17.54 -21.84739,46.49758 -30.90074,81.59186"
           style="fill:none;stroke:#ffffff;stroke-width:6.20078754;stroke-linecap:butt;stroke-linejoin:miter;stroke-miterlimit:4;stroke-dasharray:none;stroke-opacity:1" />
      </g>
    </g>
    <g
       style="display:inline"
       inkscape:label="Raptor fills (dark)"
       id="g3372"
       inkscape:groupmode="layer">
      <path
         style="display:inline;opacity:1;fill:#5e7a67;fill-opacity:1;stroke:#5e7a67;stroke-width:7.19999981;stroke-miterlimit:4;stroke-dasharray:none;stroke-opacity:1"
         d="m 495.69091,260.33067 c -2.61057,-1.3703 -5.66799,-4.7345 -12.25076,-13.48001 -15.75758,-20.93469 -42.33141,-42.34262 -66.105,-53.25433 -11.0977,-5.09368 -16.3328,-6.25942 -27.89424,-6.21143 -8.57487,0.0356 -12.36251,0.61019 -21.5,3.26166 -3.01324,0.87436 -5.50217,1.13523 -12.66822,1.32777 l -8.91821,0.23963 3.24568,-3.32654 c 3.92181,-4.01952 5.30863,-6.53317 4.21037,-7.63143 -0.60147,-0.60147 -1.10646,-0.6301 -2.84689,-0.16145 -6.08755,1.6392 -16.07858,10.15301 -21.21587,18.07898 -5.11379,7.88972 -7.2921,14.00194 -8.50648,23.86877 -0.89558,7.27653 -2.57007,10.77909 -7.26797,15.20256 -3.92197,3.69287 -8.13012,6.03821 -13.12544,7.31527 -4.98967,1.27562 -10.18499,1.80422 -10.63152,1.08173 -0.49646,-0.8033 2.24726,-1.82758 7.50047,-2.80008 5.78467,-1.07088 8.034,-2.09239 10.40649,-4.726 4.64103,-5.15182 5.49343,-10.1156 4.0383,-23.51617 -0.77944,-7.17797 -0.82891,-9.05499 -0.31731,-12.03843 1.30195,-7.59238 4.75462,-14.01433 11.80676,-21.96051 2.0745,-2.3375 5.12587,-5.77453 6.78083,-7.63784 5.17606,-5.82771 3.73118,-7.51118 -3.4537,-4.024 -3.08339,1.49652 -4.80064,2.85065 -9.23951,7.28576 l -5.45221,5.44759 -4.79779,-0.80911 c -9.80655,-1.6538 -18.54804,-5.50085 -24.0284,-10.5747 -9.61125,-8.89832 -12.7914,-20.44333 -13.82457,-50.1877 -0.27563,-7.93551 -0.16199,-10.49344 0.7997,-18 2.5882,-20.202314 0.30384,-25.566711 -16.74451,-39.321418 -6.35283,-5.125497 -9.36558,-8.358723 -9.15673,-9.826837 0.40033,-2.814222 8.14107,-3.964868 19.36394,-2.878414 12.19571,1.180632 21.29804,4.686783 29.06239,11.194623 5.12057,4.291903 6.69873,6.64845 6.67999,9.974705 -0.0184,3.274468 -1.06244,5.32382 -5.66841,11.127167 -4.20173,5.294015 -8.1338,12.982544 -9.24589,18.078874 -2.79486,12.80782 2.5451,21.03354 18.44856,28.41839 2.48388,1.1534 5.36192,2.37076 6.39564,2.70525 l 1.87948,0.60817 -0.87948,1.53181 c -1.6836,2.93231 -5.51179,6.66206 -7.95564,7.75105 -1.33312,0.59405 -4.18579,1.58098 -6.33928,2.19319 -6.08779,1.73069 -7.92839,3.87644 -4.98109,5.80691 1.06205,0.69564 2.38779,0.88424 6.15708,0.87591 4.44229,-0.01 5.06444,-0.13877 8.27152,-1.7144 4.09024,-2.00952 7.67045,-5.48625 10.33423,-10.03552 1.02647,-1.75304 1.93811,-3.40274 2.02587,-3.66601 0.41643,-1.24928 25.80336,8.18274 34.21612,12.71234 2.53456,1.36466 10.52206,5.92757 17.75,10.13979 17.99189,10.48514 21.72911,12.50495 40.3917,21.83003 19.99462,9.99066 22.24441,11.25813 32.25,18.16878 28.44435,19.64592 39.37526,29.67318 50.23816,46.08502 5.42283,8.19289 7.12126,11.66692 6.91528,14.14475 -0.12892,1.5509 -0.35317,1.8672 -1.40344,1.97952 -0.6875,0.0735 -1.925,-0.22062 -2.75,-0.65367 z"
         id="path4677-5"
         inkscape:connector-curvature="0" />
    </g>
    <g
       transform="translate(-211.61809,-124.00455)"
       style="display:inline"
       inkscape:label="Raptor lines (dark)"
       id="g3453"
       inkscape:groupmode="layer">
      <path
         style="display:inline;fill:#ffffff;fill-opacity:1;fill-rule:nonzero;stroke:none"
         clip-path="none"
         d="m 455.53782,169.73805 c -11.89031,5.52925 -6.81394,12.30366 0.68195,18.8119 4.21812,3.66234 9.22388,6.65965 12.70636,9.97317 4.12704,3.9268 8.04823,10.18867 7.33008,15.85547 -3.6076,28.46704 -1.37069,42.721 1.60742,63.17968 3.02354,20.77075 22.13923,31.65436 42.87696,35.22852 -4.8661,9.32891 -5.8172,20.46391 -3.5,30.82812 2.49408,11.15536 0.22567,15.90195 -4.40775,17.40459 -4.65389,1.50927 -12.17604,-0.50074 -16.642,4.48901 -3.024,3.37867 -3.08575,7.08716 0.59837,9.78134 5.23243,3.82645 14.4796,0.39074 20.42013,-0.82533 13.37095,-2.73713 22.71277,-15.31622 23.54101,-28.61914 0.57284,-9.20067 5.07296,-16.85415 10.89063,-23.58594 12.78358,2.87815 24.34582,0.39187 35.30654,-2.17947 10.44413,-2.45015 20.47224,-3.14578 28.75986,-0.0178 36.17381,13.65303 59.94978,36.86946 81.11719,64.5 5.31003,6.93136 23.17006,11.40935 21.42578,-2.06055 -0.85881,-6.632 -4.56999,-11.92288 -7.82699,-17.2986 -10.71586,-17.68667 -28.30821,-30.63735 -44.62418,-43.11741 -19.91378,-15.23202 -43.31649,-24.09214 -64.74414,-36.58985 -14.54292,-8.48218 -27.11142,-16.43338 -40.01572,-22.37173 -9.41132,-4.33094 -19.16729,-7.06422 -29.36123,-10.43686 1.37564,-5.60799 2.29211,-11.52622 2.30469,-16.9707 0.0217,-9.40945 -0.59951,-21.00976 6.46874,-28.01758 1.37941,3.69868 4.26987,5.72448 6.83433,0.2773 10.04459,-3.13154 8.02982,-25.07256 -4.67959,-26.60517 -10.09244,-8.51435 -4.72778,15.25253 -3.70226,20.568 -6.18923,2.50522 -9.20752,8.13543 -10.68883,14.68966 -2.49863,11.05548 0.0508,22.75103 -3.0918,33.80859 -4.91122,-1.78503 -9.53027,-3.52367 -13.82866,-6.32372 -4.03652,-2.62947 -7.46021,-5.63709 -8.21812,-10.12523 -1.38765,-8.21728 3.43791,-16.78012 8.51944,-22.64285 5.90642,-6.81443 9.88123,-16.52172 3.74023,-24.39258 -9.39343,-12.03948 -26.67175,-19.30249 -40.41465,-19.02739 -6.92378,0.1386 -14.16557,-0.61404 -19.38379,1.81255 z m 53.82776,20.62296 c 4.96244,5.60835 0.79744,12.13111 -3.2461,16.83008 -8.04865,9.35329 -14.73961,24.61801 -6.55468,35.73828 5.75587,7.82009 20.8325,12.95495 23.74804,14.13476 -2.27061,4.85969 -5.1471,9.32149 -11.0232,10.70372 -19.82326,4.66302 -7.60831,9.81344 2.4384,6.70643 7.88168,-2.43746 12.1469,-8.9673 14.84847,-15.2578 9.96804,2.53446 16.97925,4.63087 29.38424,10.51973 10.8531,5.15216 20.5064,11.18318 30.13725,16.92167 18.81571,11.21124 39.58095,18.75217 57.91016,30.66016 21.22395,13.78863 43.18323,29.47687 57.4459,50.76443 15.46021,23.07494 3.16687,20.66523 -5.3797,8.65014 -17.33266,-24.3669 -47.79856,-48.77603 -72.60136,-59.95168 -14.06886,-6.33915 -29.80759,-7.06192 -44.32617,-2.55859 -8.0849,2.50775 -16.43723,2.68483 -24.73047,1.88476 22.79208,-20.17369 -7.77472,-10.97492 -19.50054,13.6842 -3.608,7.58753 -4.34419,15.12314 -4.9897,20.14002 -1.42277,11.05776 -12.12351,18.47717 -22.59375,20.43945 -12.2943,2.30414 -11.80946,-1.07535 -2.27111,-2.63292 3.94683,-0.6445 8.42745,-1.40978 11.05236,-4.27919 9.30279,-10.16931 2.83368,-22.47708 3.79102,-34.29687 0.62405,-7.70481 4.14508,-13.98302 8.48359,-19.52788 3.55921,-4.54888 7.02404,-7.99931 11.12916,-12.49751 6.84437,-7.49974 -1.36564,-5.10151 -7.98181,-0.43463 -4.62456,3.26205 -8.51201,8.25658 -10.047,10.21783 -26.07501,-2.79226 -36.33354,-14.12861 -40.17524,-29.54218 -3.30608,-13.26455 -2.89543,-25.60948 -3.23828,-38.50124 -0.26104,-9.81543 2.22157,-17.25825 1.79115,-24.79312 -0.17841,-3.12324 -0.49507,-6.14775 -2.13733,-9.43743 -1.33708,-2.67835 -3.73166,-5.62187 -6.19147,-8.2104 -2.74212,-2.88562 -7.29183,-6.5676 -11.45601,-10.01172 -7.47358,-6.18126 -12.72377,-11.7927 2.92126,-12.0543 7.50746,-0.12553 15.5211,0.46603 22.72103,2.74494 8.45685,2.67675 15.78903,7.76235 20.64189,13.24686 z"
         id="path3433-6"
         inkscape:connector-curvature="0"
         sodipodi:nodetypes="ssssscsssssscsssssssscsccccscssssssssscsscssssssscssssssssscsssssssss" />
    </g>
  </g>
</svg>
