<?xml version="1.0" encoding="UTF-8" standalone="no"?>
<!-- Created with Inkscape (http://www.inkscape.org/) -->

<svg
   xmlns:dc="http://purl.org/dc/elements/1.1/"
   xmlns:cc="http://creativecommons.org/ns#"
   xmlns:rdf="http://www.w3.org/1999/02/22-rdf-syntax-ns#"
   xmlns:svg="http://www.w3.org/2000/svg"
   xmlns="http://www.w3.org/2000/svg"
   xmlns:sodipodi="http://sodipodi.sourceforge.net/DTD/sodipodi-0.dtd"
   xmlns:inkscape="http://www.inkscape.org/namespaces/inkscape"
   width="6in"
   height="5in"
   id="svg2985"
   version="1.1"
   inkscape:version="0.91 r13725"
   sodipodi:docname="vad2000.svg"
   style="display:inline">
  <defs
     id="defs2987" />
  <sodipodi:namedview
     inkscape:document-units="in"
     pagecolor="#ffffff"
     bordercolor="#666666"
     borderopacity="1.0"
     inkscape:pageopacity="0.0"
     inkscape:pageshadow="2"
     inkscape:zoom="1.0183007"
     inkscape:cx="336.21151"
     inkscape:cy="181.60666"
     inkscape:current-layer="layer2"
     id="namedview2989"
     showgrid="false"
     showguides="true"
     inkscape:guide-bbox="true"
     inkscape:window-width="1366"
     inkscape:window-height="744"
     inkscape:window-x="0"
     inkscape:window-y="24"
     inkscape:window-maximized="1"
     fit-margin-top="0"
     fit-margin-left="0"
     fit-margin-right="0"
     fit-margin-bottom="0"
     units="in" />
  <metadata
     id="metadata2991">
    <rdf:RDF>
      <cc:Work
         rdf:about="">
        <dc:format>image/svg+xml</dc:format>
        <dc:type
           rdf:resource="http://purl.org/dc/dcmitype/StillImage" />
        <dc:title></dc:title>
      </cc:Work>
    </rdf:RDF>
  </metadata>
  <g
     inkscape:groupmode="layer"
     id="layer2"
     inkscape:label="Bomb fills"
     style="display:inline"
     transform="translate(-211.61809,-124.00455)">
    <g
       id="g3445">
      <path
         inkscape:connector-curvature="0"
         id="path3963"
         d="m 668.83087,498.34225 c 0,-0.13397 0.29221,-1.14953 0.64935,-2.2568 0.35713,-1.10727 2.23935,-7.39205 4.1827,-13.96619 4.5154,-15.27511 10.09695,-30.17008 15.41431,-41.13482 3.11586,-6.42508 4.34742,-8.37038 4.79402,-7.57235 0.33055,0.59065 1.39375,4.12508 2.36268,7.85429 4.17378,16.06399 1.2394,29.39718 -9.17637,41.69547 -4.73132,5.58644 -18.22669,16.97437 -18.22669,15.3804 z"
         style="fill:#e2e2e2;fill-opacity:1;stroke:#e2e2e2;stroke-width:4.30581951;stroke-linecap:butt;stroke-linejoin:round;stroke-miterlimit:4;stroke-dasharray:none;stroke-opacity:1" />
      <path
         inkscape:connector-curvature="0"
         id="path3965"
         d="m 584.11422,524.53308 c -0.9548,-0.13792 -4.54831,-0.60129 -7.98559,-1.02971 -13.42594,-1.67342 -30.87885,-6.96825 -47.91351,-14.53593 -16.0371,-7.1245 -19.79037,-9.01704 -19.79037,-9.979 0,-0.51927 0.63532,-4.02521 1.41182,-7.79096 0.7765,-3.76575 2.03285,-10.75282 2.79189,-15.52682 8.16132,-51.33117 16.06505,-77.34281 32.07128,-105.54861 9.85365,-17.36386 26.49208,-40.27513 29.24826,-40.27513 5.05828,0 22.27256,6.06603 35.51178,12.51376 34.70131,16.90015 61.05907,42.12776 76.41392,73.13745 l 4.41692,8.92015 -1.68532,2.66971 c -8.05231,12.75569 -17.37765,36.91776 -25.31002,65.57854 -2.68119,9.6875 -3.80864,12.75287 -5.03554,13.69085 -0.86946,0.66472 -5.64308,3.2228 -10.60803,5.68462 -12.70485,6.29957 -25.93397,10.32245 -40.15178,12.20989 -5.07052,0.67313 -19.47354,0.84631 -23.38571,0.28119 l 0,0 z"
         style="fill:#e2e2e2;fill-opacity:1;stroke:#e2e2e2;stroke-width:4.30581951;stroke-linecap:butt;stroke-linejoin:round;stroke-miterlimit:4;stroke-dasharray:none;stroke-opacity:1" />
      <path
         inkscape:connector-curvature="0"
         id="path3967"
         d="m 491.41198,491.02357 c -17.30158,-9.54545 -25.94568,-15.43316 -40.27513,-27.43246 -14.04744,-11.76313 -45.24655,-43.85473 -60.57576,-62.30859 -0.78897,-0.94979 -0.76028,-2.87934 0.18067,-12.15198 2.93442,-28.91747 8.83253,-42.92422 27.75835,-65.92006 l 5.55519,-6.74984 24.30396,0.43809 c 23.36512,0.42117 43.71742,1.51761 60.85804,3.27863 l 8.08373,0.83052 -0.65351,2.16272 c -0.90087,2.9813 -0.87127,15.24817 0.0478,19.79107 0.41617,2.05721 0.75667,5.58812 0.75667,7.84647 0,6.90266 -2.71981,10.27349 -8.3137,10.3037 -6.81366,0.0368 -12.98379,2.61231 -14.56331,6.07897 -2.46168,5.40279 1.29599,9.88269 8.27554,9.8661 5.23672,-0.0124 15.87029,-2.28936 20.31725,-4.35044 6.88978,-3.19328 12.8888,-9.86424 15.75169,-17.51602 0.74498,-1.99112 1.71053,-6.2425 2.14567,-9.44749 0.89443,-6.58791 2.80561,-11.8436 6.17265,-16.97464 l 2.30264,-3.50899 7.04454,1.25512 c 3.8745,0.69032 7.28421,1.33369 7.57713,1.42972 0.29292,0.096 -2.14976,3.74902 -5.42819,8.11774 -14.82733,19.7584 -25.7972,39.01648 -33.83894,59.40569 -6.83619,17.33264 -11.10082,33.37423 -15.41451,57.9823 -5.8075,33.12982 -7.46248,42.03662 -7.89215,42.47414 -0.25009,0.25466 -4.82942,-1.95056 -10.17629,-4.90047 z"
         style="fill:#e2e2e2;fill-opacity:1;stroke:#e2e2e2;stroke-width:4.30581951;stroke-linecap:butt;stroke-linejoin:round;stroke-miterlimit:4;stroke-dasharray:none;stroke-opacity:1" />
    </g>
    <path
       style="fill:#e2e2e2;fill-opacity:1;stroke:#e2e2e2;stroke-width:4.30581951;stroke-linecap:butt;stroke-linejoin:round;stroke-miterlimit:4;stroke-dasharray:none;stroke-opacity:1"
       d="m 282.05074,425.01828 c -18.14761,-8.8986 -29.48343,-14.83419 -29.4379,-15.41407 0.054,-0.68822 68.10011,-186.1986 68.6655,-187.19908 0.22352,-0.39553 58.99372,21.23668 59.15019,21.77207 0.29797,1.01952 -67.46248,194.91945 -68.18763,195.12236 -0.37301,0.10437 -13.95859,-6.3222 -30.19016,-14.28128 z"
       id="path3969"
       inkscape:connector-curvature="0" />
    <path
       style="fill:#9a9a9a;fill-opacity:1;stroke:#9a9a9a;stroke-width:4.30581951;stroke-linecap:butt;stroke-linejoin:round;stroke-miterlimit:4;stroke-dasharray:none;stroke-opacity:1"
       d="m 393.43589,249.46257 c -0.19988,0.19988 6.30463,12.86459 25.15625,48.96875 l 5.875,11.28125 15.9375,0 15.9375,0 -10.53125,-21.09375 -10.5625,-21.125 -20.78125,-9.125 c -11.4363,-5.01942 -20.9079,-9.0296 -21.03125,-8.90625 z m -7.84375,2.125 c -0.15648,0.45986 -7.41902,21.28019 -16.125,46.28125 -8.70598,25.00105 -15.72864,45.58387 -15.59375,45.71875 0.13489,0.13489 8.49821,2.37051 18.5625,4.96875 10.06429,2.59825 18.3223,4.6701 18.375,4.625 0.0527,-0.045 1.83509,-3.45657 3.96875,-7.59375 4.47848,-8.68381 9.43351,-15.98418 17.53125,-25.875 l 5.75,-7 -16.09375,-30.96875 c -8.85007,-17.03996 -16.21852,-30.6161 -16.375,-30.15625 z m 60.46875,20.96875 c -0.11761,0.1113 4.03934,8.67791 9.21875,19.03125 l 9.40625,18.8125 4.15625,0 c 2.29015,0 4.15625,-0.06 4.15625,-0.15625 0,-1.26567 -4.90036,-27.90036 -5.1875,-28.1875 -0.60144,-0.60143 -21.50505,-9.7318 -21.75,-9.5 z m -94.25,78.09375 c -0.54444,0.0192 -28.8811,79.69675 -30.0625,84.53125 -0.1867,0.76399 58.65317,-34.10801 60.53125,-35.875 0.31339,-0.29485 1.01651,-5.03947 1.5625,-10.53125 1.05812,-10.64281 2.42966,-19.57704 3.9375,-25.3125 l 0.9375,-3.5 -18.09375,-4.6875 c -9.95206,-2.56346 -18.41579,-4.639 -18.8125,-4.625 z m 33.1875,55.59375 c -0.37069,0 -55.75908,33.25711 -56.625,34 -0.29988,0.25725 1.10648,0.35999 3.125,0.21875 4.70318,-0.32911 78.22431,-4.375 79.5,-4.375 0.52786,0 -5.02942,-6.72623 -12.34375,-14.9375 -7.31434,-8.21127 -13.47268,-14.90625 -13.65625,-14.90625 z"
       id="path3971"
       inkscape:connector-curvature="0" />
  </g>
  <g
     inkscape:groupmode="layer"
     id="layer5"
     inkscape:label="Raptor fills"
     style="display:inline">
    <path
       transform="translate(-211.61809,-124.00455)"
       style="display:inline;fill:#90ab99;fill-opacity:1;stroke:#90ab99;stroke-width:4.30581951;stroke-linecap:butt;stroke-linejoin:round;stroke-miterlimit:4;stroke-dasharray:none;stroke-opacity:1"
       d="m 705.35409,381.8271 c -3.33141,-2.20663 -5.57472,-4.91837 -12.08703,-14.61092 -3.53194,-5.25675 -9.34521,-10.67432 -28.60258,-26.65565 -13.49733,-11.20119 -23.35584,-17.56471 -35.93719,-23.19692 -12.28345,-5.49884 -14.2184,-5.92238 -26.9059,-5.88926 -10.18918,0.0266 -11.82863,0.21371 -19.77294,2.25679 -7.16653,1.84306 -9.97302,2.2278 -16.25048,2.2278 l -7.58791,0 3.9249,-4.11484 c 2.15869,-2.26316 3.92489,-4.60676 3.92489,-5.20799 0,-1.70387 -4.3652,-1.36768 -8.33024,0.64155 -4.54436,2.30281 -7.5534,5.02937 -12.98139,11.76278 -6.87363,8.5267 -8.72528,12.83157 -11.36398,26.41979 -0.74052,3.81333 -2.14593,8.56753 -3.12315,10.56489 -2.01548,4.11951 -6.69656,8.56865 -11.67654,11.09801 -5.08683,2.58363 -17.21263,4.86036 -16.07402,3.01806 0.47697,-0.77175 3.71855,-1.72335 9.73341,-2.85732 3.5032,-0.66046 4.62355,-1.2596 7.03838,-3.76397 4.55239,-4.7212 5.44326,-8.39026 4.70988,-19.39783 -0.33225,-4.98694 -0.56358,-11.25452 -0.51408,-13.92795 0.16779,-9.06101 4.12618,-16.41619 15.0294,-27.92654 5.011,-5.29001 6.72037,-7.56112 6.72037,-8.92885 0,-1.64994 -0.19193,-1.78794 -1.9096,-1.37304 -5.00361,1.20862 -12.1479,6.21659 -16.18036,11.34203 l -2.39481,3.04392 -4.37471,-0.42724 c -5.58129,-0.54507 -14.95498,-3.68807 -20.01604,-6.71139 -5.29472,-3.16288 -10.17235,-7.99255 -12.25424,-12.1337 -3.35016,-6.66393 -5.49223,-19.57302 -6.70744,-40.42222 -0.63805,-10.94693 -0.572,-12.7663 0.74372,-20.48477 1.84875,-10.84543 1.52746,-15.47951 -1.50477,-21.70372 -2.89415,-5.94078 -4.48922,-7.71982 -14.9483,-16.67238 -4.71897,-4.03925 -8.78229,-7.98161 -9.02959,-8.7608 -0.28201,-0.88853 -0.0244,-1.84088 0.69111,-2.55447 0.96654,-0.964 2.91293,-1.13635 12.74415,-1.12849 10.17877,0.008 12.2428,0.20779 16.81138,1.62618 7.10771,2.20672 13.60991,5.73048 18.31917,9.92777 7.93064,7.06846 8.00888,10.64105 0.44496,20.31546 -6.85639,8.76945 -9.74169,15.98111 -9.73016,24.32005 0.0115,8.36194 3.04939,13.00779 12.4288,19.00772 2.11882,1.35539 6.29069,3.46244 9.27083,4.68233 l 5.41843,2.21799 -2.75512,3.48549 c -2.98738,3.77932 -9.01287,7.31682 -13.85686,8.13521 -2.66382,0.45004 -5.65208,2.51094 -5.65208,3.89804 0,1.21868 4.67051,2.71511 8.47412,2.71511 6.77071,0 15.85974,-6.22593 18.98848,-13.00699 0.74522,-1.61517 1.66743,-2.83141 2.04935,-2.70278 0.38192,0.12864 4.28792,1.39347 8.67999,2.81074 15.33849,4.94957 19.83665,7.0652 41.97441,19.74196 12.24161,7.00992 29.75698,16.50171 38.92305,21.09287 25.27176,12.65827 30.62753,15.95523 52.07991,32.05998 9.83829,7.38581 23.58426,20.86625 28.74819,28.19287 3.48349,4.9424 10.48534,17.91764 10.48534,19.43055 0,1.34421 -2.55203,0.69871 -5.83511,-1.47591 z"
       id="path3961"
       inkscape:connector-curvature="0" />
  </g>
  <g
     inkscape:groupmode="layer"
     id="layer1"
     inkscape:label="Bomb lines (unbroken)"
     style="display:none"
     transform="translate(-211.61809,-124.00455)">
    <path
       style="fill:none;stroke:#000000;stroke-width:4.42913389;stroke-linecap:butt;stroke-linejoin:miter;stroke-miterlimit:4;stroke-dasharray:none;stroke-opacity:1"
       d="m 247.71661,412.08361 71.5653,-194.31883 66.0414,23.93694 -70.70603,203.15708 z"
       inkscape:connector-curvature="0"
       sodipodi:nodetypes="ccccc"
       id="path20" />
    <path
       style="fill:none;stroke:#000000;stroke-width:4.42913389;stroke-linecap:butt;stroke-linejoin:miter;stroke-miterlimit:4;stroke-dasharray:none;stroke-opacity:1"
       d="M 392.93403,357.45829 348.49725,345.91946"
       id="path3772"
       inkscape:connector-curvature="0" />
    <path
       style="fill:none;stroke:#000000;stroke-width:4.42913389;stroke-linecap:butt;stroke-linejoin:miter;stroke-miterlimit:4;stroke-dasharray:none;stroke-opacity:1"
       d="m 385.32331,401.77232 -70.95154,42.71822"
       id="path3774"
       inkscape:connector-curvature="0" />
    <path
       style="fill:none;stroke:#000000;stroke-width:4.42913389;stroke-linecap:butt;stroke-linejoin:miter;stroke-miterlimit:4;stroke-dasharray:none;stroke-opacity:1"
       d="M 418.87714,439.05343 315.6992,445.72771"
       id="path3776"
       inkscape:connector-curvature="0"
       sodipodi:nodetypes="cc" />
    <path
       style="fill:none;stroke:#000000;stroke-width:4.42913389;stroke-linecap:butt;stroke-linejoin:miter;stroke-miterlimit:4;stroke-dasharray:none;stroke-opacity:1"
       d="M 422.38359,313.35127 385.0778,241.70172"
       id="path3778"
       inkscape:connector-curvature="0"
       sodipodi:nodetypes="cc" />
    <path
       style="fill:none;stroke:#000000;stroke-width:4.42913389;stroke-linecap:butt;stroke-linejoin:miter;stroke-miterlimit:4;stroke-dasharray:none;stroke-opacity:1"
       d="M 461.96363,313.10576 437.7514,264.61812"
       id="path3782"
       inkscape:connector-curvature="0"
       sodipodi:nodetypes="cc" />
    <path
       style="fill:none;stroke:#000000;stroke-width:4.42913389;stroke-linecap:butt;stroke-linejoin:miter;stroke-miterlimit:4;stroke-dasharray:none;stroke-opacity:1"
       d="m 477.2657,314.37181 -6.06577,-34.89179 -84.01042,-37.11369"
       id="path3784"
       inkscape:connector-curvature="0"
       sodipodi:nodetypes="ccc" />
    <path
       style="fill:none;stroke:#000000;stroke-width:4.42913389;stroke-linecap:butt;stroke-linejoin:miter;stroke-miterlimit:4;stroke-dasharray:none;stroke-opacity:1"
       d="M 693.91201,424.43827 C 665.19097,351.75605 587.83958,327.36997 571.00343,325.48644 522.86121,316.33339 473.3219,312.303 422.40208,313.33446 c -37.89298,41.27668 -32.73336,62.68293 -36.45593,88.18865 64.06723,74.92759 89.48786,85.12213 117.70059,99.99343 31.60663,14.62138 93.1093,49.90535 161.10052,4.86079 25.21122,-17.80662 50.04472,-37.01998 29.16475,-81.93906 z"
       inkscape:connector-curvature="0"
       sodipodi:nodetypes="ccccccc"
       id="path3801" />
    <path
       style="fill:none;stroke:#000000;stroke-width:4.42913389;stroke-linecap:butt;stroke-linejoin:miter;stroke-miterlimit:4;stroke-dasharray:none;stroke-opacity:1"
       d="m 571.69782,325.13924 c -58.82846,70.91784 -55.38502,121.07839 -67.35668,176.3773"
       id="path3803"
       inkscape:connector-curvature="0"
       sodipodi:nodetypes="cc" />
    <path
       style="fill:none;stroke:#000000;stroke-width:4.42913389;stroke-linecap:butt;stroke-linejoin:miter;stroke-miterlimit:4;stroke-dasharray:none;stroke-opacity:1"
       d="m 693.91201,425.13267 c -11.82508,17.54 -21.84739,46.49758 -30.90074,81.59186"
       id="path3805"
       inkscape:connector-curvature="0"
       sodipodi:nodetypes="cc" />
  </g>
  <g
     inkscape:label="Bomb lines"
     id="g3821"
     inkscape:groupmode="layer"
     style="display:inline"
     transform="translate(-211.61809,-124.00455)">
    <g
       id="g3852"
       transform="translate(13.748394,-23.568676)">
      <path
         style="fill:none;stroke:#000000;stroke-width:6.20078754;stroke-linecap:butt;stroke-linejoin:round;stroke-miterlimit:4;stroke-dasharray:none;stroke-opacity:1"
         d="m 233.96822,435.65229 71.5653,-194.31883 66.0414,23.93694 -70.70603,203.15708 z"
         inkscape:connector-curvature="0"
         id="path3002"
         sodipodi:nodetypes="ccccc" />
      <path
         style="fill:none;stroke:#000000;stroke-width:6.20078754;stroke-linecap:butt;stroke-linejoin:miter;stroke-miterlimit:4;stroke-dasharray:none;stroke-opacity:1"
         d="M 379.18564,381.02697 334.74886,369.48814"
         id="path3824"
         inkscape:connector-curvature="0" />
      <path
         style="fill:none;stroke:#000000;stroke-width:6.20078754;stroke-linecap:butt;stroke-linejoin:miter;stroke-miterlimit:4;stroke-dasharray:none;stroke-opacity:1"
         d="m 371.57492,425.341 -70.95154,42.71822"
         id="path3826"
         inkscape:connector-curvature="0" />
      <path
         style="fill:none;stroke:#000000;stroke-width:6.20078754;stroke-linecap:butt;stroke-linejoin:miter;stroke-miterlimit:4;stroke-dasharray:none;stroke-opacity:1"
         d="m 405.12875,462.62211 -104.28362,5.8141"
         id="path3828"
         inkscape:connector-curvature="0"
         sodipodi:nodetypes="cc" />
      <path
         style="fill:none;stroke:#000000;stroke-width:6.20078754;stroke-linecap:butt;stroke-linejoin:miter;stroke-miterlimit:4;stroke-dasharray:none;stroke-opacity:1"
         d="M 408.6352,336.91995 371.32941,265.2704"
         id="path3830"
         inkscape:connector-curvature="0"
         sodipodi:nodetypes="cc" />
      <path
         style="fill:none;stroke:#000000;stroke-width:6.20078754;stroke-linecap:butt;stroke-linejoin:miter;stroke-miterlimit:4;stroke-dasharray:none;stroke-opacity:1"
         d="M 448.21524,336.67444 424.00301,288.1868"
         id="path3832"
         inkscape:connector-curvature="0"
         sodipodi:nodetypes="cc" />
      <path
         style="fill:none;stroke:#000000;stroke-width:6.20078754;stroke-linecap:butt;stroke-linejoin:round;stroke-miterlimit:4;stroke-dasharray:none;stroke-opacity:1"
         d="M 463.51731,337.94049 457.45154,303.0487 370.85585,264.98894"
         id="path3834"
         inkscape:connector-curvature="0"
         sodipodi:nodetypes="ccc" />
      <path
         style="fill:none;stroke:#000000;stroke-width:6.20078754;stroke-linecap:butt;stroke-linejoin:miter;stroke-miterlimit:4;stroke-dasharray:none;stroke-opacity:1"
         d="m 508.24692,341.56057 c -32.58595,-3.79571 -65.78531,-5.34226 -99.59323,-4.65743 -37.89298,41.27668 -32.73336,62.68293 -36.45593,88.18865 64.06723,74.92759 89.48786,85.12213 117.70059,99.99343 31.60663,14.62138 93.1093,49.90535 161.10052,4.86079 25.21122,-17.80662 50.04472,-37.01998 29.16475,-81.93906 -28.72104,-72.68222 -106.07243,-97.0683 -122.90858,-98.95183 -7.61614,-1.44802 -15.26725,-2.76783 -22.95326,-3.95968"
         inkscape:connector-curvature="0"
         sodipodi:nodetypes="cccccccc"
         id="path3836" />
      <path
         style="fill:none;stroke:#000000;stroke-width:6.20078754;stroke-linecap:butt;stroke-linejoin:miter;stroke-miterlimit:4;stroke-dasharray:none;stroke-opacity:1"
         d="m 557.94943,348.70792 c -58.82846,70.91784 -55.38502,121.07839 -67.35668,176.3773"
         id="path3838"
         inkscape:connector-curvature="0"
         sodipodi:nodetypes="cc" />
      <path
         style="fill:none;stroke:#000000;stroke-width:6.20078754;stroke-linecap:butt;stroke-linejoin:miter;stroke-miterlimit:4;stroke-dasharray:none;stroke-opacity:1"
         d="m 680.16362,448.70135 c -11.82508,17.54 -21.84739,46.49758 -30.90074,81.59186"
         id="path3840"
         inkscape:connector-curvature="0"
         sodipodi:nodetypes="cc" />
    </g>
  </g>
  <g
     inkscape:groupmode="layer"
     id="layer6"
     inkscape:label="Raptor lines"
     style="display:inline"
     transform="translate(-211.61809,-124.00455)">
    <path
       style="fill:#000000;fill-opacity:1;fill-rule:nonzero;stroke:none"
       clip-path="none"
       d="m 475.26987,167.87663 c -8.76771,0.16586 -24.82732,-1.22737 -26.71484,9.67383 2.61877,9.75222 12.51318,13.92927 19.72266,20.37305 0.01,0.0409 0.0149,0.0756 0.0254,0.11719 0.206,0.14789 0.41418,0.31331 0.62304,0.48242 0.88467,0.82857 1.73183,1.68968 2.50196,2.61328 0.19989,0.25655 0.41867,0.46643 0.64258,0.6582 2.66765,3.46138 4.74809,8.19062 4.18554,12.58399 -4.47552,20.82685 -1.84706,42.19992 0.98242,63.05468 1.19381,13.84378 11.7909,24.52671 24.29688,29.30274 4.6562,3.18371 13.26312,5.51698 19.20508,6.05078 -4.8661,9.32891 -5.99154,20.50444 -3.5,30.82812 0.83343,5.69486 2.29688,15.15544 -4.5586,17.52539 -7.27994,0.38929 -18.62986,0.59199 -18.73632,10.41602 3.84986,9.2394 15.96396,4.19611 23.26367,2.9082 13.3368,-2.89897 22.49489,-15.33158 23.54101,-28.61914 0.35469,-9.21166 5.07296,-16.85415 10.89063,-23.58594 1.70827,0.43357 3.71883,0.65045 5.53515,0.74805 19.78515,3.84204 39.03997,-10.23323 58.53125,-2.94531 22.63365,6.74179 40.43448,22.6926 58.09375,37.5625 10.07306,6.89363 15.75318,17.66464 23.02344,26.9375 5.16982,7.03656 22.98816,11.43166 21.42578,-2.06055 -8.14909,-26.49715 -30.4881,-45.08396 -52.45117,-60.41601 -19.35803,-15.93235 -43.35889,-24.01973 -64.74414,-36.58985 -18.97099,-9.69166 -36.07978,-23.52314 -57.1582,-28.50195 -3.93505,-1.59134 -8.07405,-2.9348 -12.21875,-4.30664 1.37564,-5.60799 1.92888,-11.53919 2.30469,-16.9707 -0.34152,-9.40328 -0.59951,-21.00976 6.46874,-28.01758 1.37941,3.69868 3.57793,5.93159 6.72266,1.71484 0.0177,8.4e-4 0.031,0.005 0.0488,0.006 4.65843,-2.88216 7.23152,-10.28616 6.19531,-15.58984 -0.0499,-6.51927 -6.67414,-12.50769 -13.42187,-12.31055 -5.96567,-2.99291 -1.98882,13.02263 -1.36328,16.66602 0.027,0.94177 0.15356,2.26236 0.3789,3.70703 -6.18923,2.50522 -9.12439,8.22826 -10.79687,14.73633 -2.30645,11.09717 0.0508,22.75103 -3.0918,33.80859 -7.33298,-2.66525 -14.35435,-5.9225 -19.92383,-11.43555 -6.17859,-9.11536 0.55022,-20.22137 6.39649,-27.65625 6.29887,-6.4534 9.96586,-16.58849 3.74023,-24.39258 -9.30821,-12.10549 -24.94547,-18.72851 -40.06641,-19.07617 z m -7.65429,6.51563 c 1.6129,0.0231 3.06384,0.0939 4.09765,0.13281 13.94722,-0.0994 28.57877,4.94261 37.65235,15.83594 5.00995,5.56595 0.99411,12.30778 -3.2461,16.83008 -7.84646,9.52355 -14.43358,23.77255 -6.92968,35.36328 6.40126,7.30121 15.0825,11.26745 24.12304,14.50976 -3.21665,7.17653 -10.74655,11.91009 -18.64648,12.73828 -10.88795,4.78777 7.74416,7.87228 12.03515,3.53125 6.45253,-2.9748 10.39187,-8.11118 12.875,-14.11718 4.1249,1.37862 8.23216,2.73432 12.14649,4.29882 17.51376,3.8317 31.85744,14.86932 47.375,23.14258 18.57272,11.60934 39.12734,19.48135 57.91016,30.66016 23.99593,16.77389 50.71167,33.57371 62.73046,61.55078 3.99384,6.5447 1.41811,7.23302 -4.25976,3.67188 -9.18577,-5.63171 -11.33099,-17.54621 -20.11133,-23.82813 -18.37745,-15.52246 -36.10932,-33.00568 -58.89453,-41.93164 -13.76234,-7.09507 -29.76748,-6.93053 -44.32617,-2.55859 -8.04314,2.63863 -16.43723,2.68483 -24.73047,1.88476 0.37724,-0.37869 0.75186,-0.769 1.12891,-1.14258 18.81745,-16.15764 -5.18092,-9.71149 -13.10157,4.10742 -8.45216,8.13954 -10.82085,19.76547 -12.51758,30.85938 -1.83759,10.99644 -12.08975,18.66672 -22.59375,20.43945 -7.18337,1.30505 -10.0198,0.37649 -9.18554,0.10938 3.73243,-4.4964 13.26182,-1.12127 17.96679,-7.02149 9.49538,-9.98973 2.98705,-22.46566 3.79102,-34.29687 0.32649,-6.17513 2.68976,-11.51867 6.00781,-16.35352 l 0.0703,0.45313 c 0.0252,-0.21687 0.0377,-0.42022 0.0488,-0.62305 3.95554,-5.71043 9.23408,-10.71195 14.09961,-15.50195 8.4422,-11.16723 -11.183,-0.88083 -15.46093,6.1914 -1.14752,1.13531 -2.2046,2.3375 -3.18165,3.5918 -3.3986,-0.84269 -7.89742,-0.531 -10.61914,-1.85547 -10.96681,-2.67512 -22.40623,-8.80579 -27.3125,-19.73242 -4.92091,-14.97636 -4.93255,-31.11314 -5.92382,-46.7207 -1.08637,-12.86278 7.03628,-23.60125 -1.14063,-35.375 -0.47451,-2.14729 -2.63448,-4.8488 -4.95508,-6.80078 -6.94448,-7.53699 -19.94016,-15.67033 -18.89648,-18.73047 0.84307,-3.01206 7.13591,-3.3817 11.97461,-3.3125 z m 71.54492,14.15429 c -0.0156,0.0362 -0.0527,0.0541 -0.14844,0.0274 0.053,-0.014 0.0965,-0.015 0.14844,-0.0274 z"
       id="path3433"
       inkscape:connector-curvature="0" />
  </g>
</svg>
